<?xml version="1.0" encoding="UTF-8" standalone="no"?>
<!DOCTYPE svg PUBLIC "-//W3C//DTD SVG 1.1//EN"
 "http://www.w3.org/Graphics/SVG/1.1/DTD/svg11.dtd">
<!-- Generated by graphviz version 14.1.3 (20260303.0454)
 -->
<!-- Title: modbusDigReg Pages: 1 -->
<svg width="132pt" height="76pt"
 viewBox="0.00 0.00 132.00 76.00" xmlns="http://www.w3.org/2000/svg" xmlns:xlink="http://www.w3.org/1999/xlink">
<g id="graph0" class="graph" transform="scale(1 1) rotate(0) translate(4 72)">
<title>modbusDigReg</title>
<!-- Node1 -->
<g id="Node000001" class="node">
<title>Node1</title>
<g id="a_Node000001"><a xlink:title="Linked&#45;node representation for digital register domains.">
<polygon fill="#999999" stroke="none" points="75.5,-68 0,-68 0,0 75.5,0 75.5,-68"/>
<text xml:space="preserve" text-anchor="start" x="4" y="-54.25" font-family="Helvetica,sans-Serif" font-size="10.00">modbusDigReg</text>
<text xml:space="preserve" text-anchor="start" x="9.75" y="-38.25" font-family="Helvetica,sans-Serif" font-size="10.00">+</text>
<text xml:space="preserve" text-anchor="start" x="25.5" y="-38.25" font-family="Helvetica,sans-Serif" font-size="10.00">address</text>
<text xml:space="preserve" text-anchor="start" x="9.75" y="-22.25" font-family="Helvetica,sans-Serif" font-size="10.00">+</text>
<text xml:space="preserve" text-anchor="start" x="25.5" y="-22.25" font-family="Helvetica,sans-Serif" font-size="10.00">value</text>
<text xml:space="preserve" text-anchor="start" x="36.25" y="-6.25" font-family="Helvetica,sans-Serif" font-size="10.00"> </text>
<polygon fill="#666666" stroke="#666666" points="0,-50 0,-50 75.5,-50 75.5,-50 0,-50"/>
<polygon fill="#666666" stroke="#666666" points="0,-18 0,-18 23.5,-18 23.5,-18 0,-18"/>
<polygon fill="#666666" stroke="#666666" points="23.5,-18 23.5,-18 75.5,-18 75.5,-18 23.5,-18"/>
<polygon fill="none" stroke="#666666" points="0,0 0,-68 75.5,-68 75.5,0 0,0"/>
</a>
</g>
</g>
<!-- Node1&#45;&gt;Node1 -->
<g id="edge1_Node000001_Node000001" class="edge">
<title>Node1&#45;&gt;Node1</title>
<g id="a_edge1_Node000001_Node000001"><a xlink:title=" ">
<path fill="none" stroke="#63b8ff" d="M75.27,-46.67C85.6,-46.06 93.5,-41.84 93.5,-34 93.5,-29.84 91.27,-26.69 87.63,-24.57"/>
<polygon fill="none" stroke="#63b8ff" points="87.75,-24.6 80.93,-26.95 76.14,-21.56 82.96,-19.21 87.75,-24.6"/>
</a>
</g>
<text xml:space="preserve" text-anchor="start" x="96.5" y="-30.25" font-family="Helvetica,sans-Serif" font-size="10.00" fill="grey">+next</text>
</g>
</g>
</svg>
