<?xml version="1.0" encoding="UTF-8" standalone="no"?>
<!DOCTYPE svg PUBLIC "-//W3C//DTD SVG 1.1//EN"
 "http://www.w3.org/Graphics/SVG/1.1/DTD/svg11.dtd">
<!-- Generated by graphviz version 14.1.3 (20260303.0454)
 -->
<!-- Title: Sequence Pages: 1 -->
<!--zoomable 1095 -->

<svg id="main" version="1.1" xmlns="http://www.w3.org/2000/svg" xmlns:xlink="http://www.w3.org/1999/xlink" xml:space="preserve" onload="init(evt)">

<style type="text/css"><![CDATA[
.node, .edge {opacity: 0.7;}
.node.selected, .edge.selected {opacity: 1;}
.edge:hover path { stroke: red; }
.edge:hover polygon { stroke: red; fill: red; }
]]></style>

<defs>
  <circle id="rim" cx="0" cy="0" r="7"/>
  <circle id="rim2" cx="0" cy="0" r="3.5"/>
  <g id="zoomPlus">
    <use xlink:href="#rim" fill="#404040"><set attributeName="fill" to="#808080" begin="zoomplus.mouseover" end="zoomplus.mouseout"/></use>
    <path d="M-4,0h8M0,-4v8" fill="none" stroke="white" stroke-width="1.5" pointer-events="none"/>
  </g>
  <g id="zoomMin">
    <use xlink:href="#rim" fill="#404040"><set attributeName="fill" to="#808080" begin="zoomminus.mouseover" end="zoomminus.mouseout"/></use>
    <path d="M-4,0h8" fill="none" stroke="white" stroke-width="1.5" pointer-events="none"/>
  </g>
  <g id="arrowUp" transform="translate(30 24)">
    <use xlink:href="#rim"/>
    <path pointer-events="none" fill="none" stroke="white" stroke-width="1.5" d="M0,-3.0v7 M-2.5,-0.5L0,-3.0L2.5,-0.5"/>
  </g>
  <g id="arrowRight" transform="rotate(90) translate(36 -43)">
    <use xlink:href="#rim"/>
    <path pointer-events="none" fill="none" stroke="white" stroke-width="1.5" d="M0,-3.0v7 M-2.5,-0.5L0,-3.0L2.5,-0.5"/>
  </g>
  <g id="arrowDown" transform="rotate(180) translate(-30 -48)">
    <use xlink:href="#rim"/>
    <path pointer-events="none" fill="none" stroke="white" stroke-width="1.5" d="M0,-3.0v7 M-2.5,-0.5L0,-3.0L2.5,-0.5"/>
  </g>
  <g id="arrowLeft" transform="rotate(270) translate(-36 17)">
    <use xlink:href="#rim"/>
    <path pointer-events="none" fill="none" stroke="white" stroke-width="1.5" d="M0,-3.0v7 M-2.5,-0.5L0,-3.0L2.5,-0.5"/>
  </g>
  <g id="resetDef">
    <use xlink:href="#rim2" fill="#404040"><set attributeName="fill" to="#808080" begin="reset.mouseover" end="reset.mouseout"/></use>
  </g>
</defs>
<script type="application/ecmascript">
var viewWidth = 163;
var viewHeight = 1095;
</script>
<script type="application/ecmascript" xlink:href="svg.min.js"/>
<svg id="graph" class="graph">
<g id="viewport">
<title>Sequence</title>
<polygon fill="white" stroke="none" points="-4,4 -4,-1091 158.75,-1091 158.75,4 -4,4"/>
<!-- T0 -->
<g id="node1" class="node">
<title>T0</title>
<polygon fill="#f0f0f0" stroke="black" points="150.25,-1087 4.5,-1087 4.5,-1051 150.25,-1051 150.25,-1087"/>
<text xml:space="preserve" text-anchor="middle" x="77.38" y="-1065.7" font-family="Helvetica,sans-Serif" font-size="9.00">t=0: Master sends FC03 request</text>
</g>
<!-- T1 -->
<g id="node2" class="node">
<title>T1</title>
<polygon fill="#e6f2ff" stroke="black" points="154.75,-1005.25 0,-1005.25 0,-969.25 154.75,-969.25 154.75,-1005.25"/>
<text xml:space="preserve" text-anchor="middle" x="77.38" y="-983.95" font-family="Helvetica,sans-Serif" font-size="9.00">t=1ms: Bytes arrive at Serial buffer</text>
</g>
<!-- T0&#45;&gt;T1 -->
<g id="edge1" class="edge">
<title>T0&#45;&gt;T1</title>
<path fill="none" stroke="black" d="M77.38,-1050.7C77.38,-1040.77 77.38,-1028.06 77.38,-1016.7"/>
<polygon fill="black" stroke="black" points="80.88,-1017.03 77.38,-1007.03 73.88,-1017.03 80.88,-1017.03"/>
<text xml:space="preserve" text-anchor="middle" x="102.88" y="-1025.4" font-family="Helvetica,sans-Serif" font-size="8.00">Physical Layer</text>
</g>
<!-- T2 -->
<g id="node3" class="node">
<title>T2</title>
<polygon fill="#e6f2ff" stroke="black" points="139.75,-923.5 15,-923.5 15,-887.5 139.75,-887.5 139.75,-923.5"/>
<text xml:space="preserve" text-anchor="middle" x="77.38" y="-907.45" font-family="Helvetica,sans-Serif" font-size="9.00">t=2ms: run() detects bytes</text>
<text xml:space="preserve" text-anchor="middle" x="77.38" y="-896.95" font-family="Helvetica,sans-Serif" font-size="9.00">State: IDLE → RECEIVING</text>
</g>
<!-- T1&#45;&gt;T2 -->
<g id="edge2" class="edge">
<title>T1&#45;&gt;T2</title>
<path fill="none" stroke="black" d="M77.38,-968.95C77.38,-959.02 77.38,-946.31 77.38,-934.95"/>
<polygon fill="black" stroke="black" points="80.88,-935.28 77.38,-925.28 73.88,-935.28 80.88,-935.28"/>
<text xml:space="preserve" text-anchor="middle" x="96.5" y="-943.65" font-family="Helvetica,sans-Serif" font-size="8.00">slave.run()</text>
</g>
<!-- T3 -->
<g id="node4" class="node">
<title>T3</title>
<polygon fill="#e6f2ff" stroke="black" points="137.12,-841.75 17.63,-841.75 17.63,-805.75 137.12,-805.75 137.12,-841.75"/>
<text xml:space="preserve" text-anchor="middle" x="77.38" y="-825.7" font-family="Helvetica,sans-Serif" font-size="9.00">t=3ms: Last byte received</text>
<text xml:space="preserve" text-anchor="middle" x="77.38" y="-815.2" font-family="Helvetica,sans-Serif" font-size="9.00">Silence timer resets</text>
</g>
<!-- T2&#45;&gt;T3 -->
<g id="edge3" class="edge">
<title>T2&#45;&gt;T3</title>
<path fill="none" stroke="black" d="M77.38,-887.2C77.38,-877.27 77.38,-864.56 77.38,-853.2"/>
<polygon fill="black" stroke="black" points="80.88,-853.53 77.38,-843.53 73.88,-853.53 80.88,-853.53"/>
<text xml:space="preserve" text-anchor="middle" x="102.5" y="-861.9" font-family="Helvetica,sans-Serif" font-size="8.00">Byte collection</text>
</g>
<!-- T4 -->
<g id="node5" class="node">
<title>T4</title>
<polygon fill="#ffffcc" stroke="black" points="154.38,-760 0.38,-760 0.38,-724 154.38,-724 154.38,-760"/>
<text xml:space="preserve" text-anchor="middle" x="77.38" y="-743.95" font-family="Helvetica,sans-Serif" font-size="9.00">t=3+3.5char: Silence expires</text>
<text xml:space="preserve" text-anchor="middle" x="77.38" y="-733.45" font-family="Helvetica,sans-Serif" font-size="9.00">State: RECEIVING → COMPLETE</text>
</g>
<!-- T3&#45;&gt;T4 -->
<g id="edge4" class="edge">
<title>T3&#45;&gt;T4</title>
<path fill="none" stroke="black" d="M77.38,-805.45C77.38,-795.52 77.38,-782.81 77.38,-771.45"/>
<polygon fill="black" stroke="black" points="80.88,-771.78 77.38,-761.78 73.88,-771.78 80.88,-771.78"/>
<text xml:space="preserve" text-anchor="middle" x="97.25" y="-780.15" font-family="Helvetica,sans-Serif" font-size="8.00">t3.5 silence</text>
</g>
<!-- T5 -->
<g id="node6" class="node">
<title>T5</title>
<polygon fill="#ffccff" stroke="black" points="143.5,-678.25 11.25,-678.25 11.25,-642.25 143.5,-642.25 143.5,-678.25"/>
<text xml:space="preserve" text-anchor="middle" x="77.38" y="-662.2" font-family="Helvetica,sans-Serif" font-size="9.00">t=4ms: processFrame() entry</text>
<text xml:space="preserve" text-anchor="middle" x="77.38" y="-651.7" font-family="Helvetica,sans-Serif" font-size="9.00">Validation chain begins</text>
</g>
<!-- T4&#45;&gt;T5 -->
<g id="edge5" class="edge">
<title>T4&#45;&gt;T5</title>
<path fill="none" stroke="black" d="M77.38,-723.7C77.38,-713.77 77.38,-701.06 77.38,-689.7"/>
<polygon fill="black" stroke="black" points="80.88,-690.03 77.38,-680.03 73.88,-690.03 80.88,-690.03"/>
<text xml:space="preserve" text-anchor="middle" x="106.62" y="-698.4" font-family="Helvetica,sans-Serif" font-size="8.00">Frame complete</text>
</g>
<!-- T6 -->
<g id="node7" class="node">
<title>T6</title>
<polygon fill="#ffccff" stroke="black" points="146.88,-596.5 7.88,-596.5 7.88,-554.75 146.88,-554.75 146.88,-596.5"/>
<text xml:space="preserve" text-anchor="middle" x="77.38" y="-583.95" font-family="Helvetica,sans-Serif" font-size="9.00">Check 1: Length ≥ 8? ✓</text>
<text xml:space="preserve" text-anchor="middle" x="77.38" y="-572.7" font-family="Helvetica,sans-Serif" font-size="9.00">Check 2: CRC valid? ✓</text>
<text xml:space="preserve" text-anchor="middle" x="77.38" y="-561.45" font-family="Helvetica,sans-Serif" font-size="9.00">Check 3: Slave ID match? ✓</text>
</g>
<!-- T5&#45;&gt;T6 -->
<g id="edge6" class="edge">
<title>T5&#45;&gt;T6</title>
<path fill="none" stroke="black" d="M77.38,-642.13C77.38,-632.38 77.38,-619.85 77.38,-608.36"/>
<polygon fill="black" stroke="black" points="80.88,-608.45 77.38,-598.45 73.88,-608.45 80.88,-608.45"/>
<text xml:space="preserve" text-anchor="middle" x="104.75" y="-616.65" font-family="Helvetica,sans-Serif" font-size="8.00">Security checks</text>
</g>
<!-- T7 -->
<g id="node8" class="node">
<title>T7</title>
<polygon fill="#ffccff" stroke="black" points="146.12,-517.75 8.62,-517.75 8.62,-481.75 146.12,-481.75 146.12,-517.75"/>
<text xml:space="preserve" text-anchor="middle" x="77.38" y="-502.45" font-family="Helvetica,sans-Serif" font-size="9.00">Check 4: Function code? ✓</text>
<text xml:space="preserve" text-anchor="middle" x="77.38" y="-491.2" font-family="Helvetica,sans-Serif" font-size="9.00">Check 5: Address range? ✓</text>
</g>
<!-- T6&#45;&gt;T7 -->
<g id="edge7" class="edge">
<title>T6&#45;&gt;T7</title>
<path fill="none" stroke="black" d="M77.38,-554.44C77.38,-546.66 77.38,-537.62 77.38,-529.2"/>
<polygon fill="black" stroke="black" points="80.88,-529.42 77.38,-519.42 73.88,-529.42 80.88,-529.42"/>
</g>
<!-- T8 -->
<g id="node9" class="node">
<title>T8</title>
<polygon fill="#ffe6cc" stroke="black" points="133.75,-436 21,-436 21,-400 133.75,-400 133.75,-436"/>
<text xml:space="preserve" text-anchor="middle" x="77.38" y="-419.95" font-family="Helvetica,sans-Serif" font-size="9.00">onRead() callback fires</text>
<text xml:space="preserve" text-anchor="middle" x="77.38" y="-409.45" font-family="Helvetica,sans-Serif" font-size="9.00">[User Application Code]</text>
</g>
<!-- T7&#45;&gt;T8 -->
<g id="edge8" class="edge">
<title>T7&#45;&gt;T8</title>
<path fill="none" stroke="orange" d="M77.38,-481.45C77.38,-471.52 77.38,-458.81 77.38,-447.45"/>
<polygon fill="orange" stroke="orange" points="80.88,-447.78 77.38,-437.78 73.88,-447.78 80.88,-447.78"/>
<text xml:space="preserve" text-anchor="middle" x="107" y="-456.15" font-family="Helvetica,sans-Serif" font-size="8.00">Callback window</text>
</g>
<!-- T9 -->
<g id="node10" class="node">
<title>T9</title>
<polygon fill="#e6ffe6" stroke="black" points="142.38,-354.25 12.38,-354.25 12.38,-318.25 142.38,-318.25 142.38,-354.25"/>
<text xml:space="preserve" text-anchor="middle" x="77.38" y="-338.2" font-family="Helvetica,sans-Serif" font-size="9.00">Register Bank: get(address)</text>
<text xml:space="preserve" text-anchor="middle" x="77.38" y="-327.7" font-family="Helvetica,sans-Serif" font-size="9.00">Returns value(s)</text>
</g>
<!-- T8&#45;&gt;T9 -->
<g id="edge9" class="edge">
<title>T8&#45;&gt;T9</title>
<path fill="none" stroke="black" d="M77.38,-399.7C77.38,-389.77 77.38,-377.06 77.38,-365.7"/>
<polygon fill="black" stroke="black" points="80.88,-366.03 77.38,-356.03 73.88,-366.03 80.88,-366.03"/>
<text xml:space="preserve" text-anchor="middle" x="99.12" y="-374.4" font-family="Helvetica,sans-Serif" font-size="8.00">Data access</text>
</g>
<!-- T10 -->
<g id="node11" class="node">
<title>T10</title>
<polygon fill="#ffccff" stroke="black" points="128.88,-272.5 25.88,-272.5 25.88,-236.5 128.88,-236.5 128.88,-272.5"/>
<text xml:space="preserve" text-anchor="middle" x="77.38" y="-256.45" font-family="Helvetica,sans-Serif" font-size="9.00">Build response frame</text>
<text xml:space="preserve" text-anchor="middle" x="77.38" y="-245.95" font-family="Helvetica,sans-Serif" font-size="9.00">Calculate CRC</text>
</g>
<!-- T9&#45;&gt;T10 -->
<g id="edge10" class="edge">
<title>T9&#45;&gt;T10</title>
<path fill="none" stroke="black" d="M77.38,-317.95C77.38,-308.02 77.38,-295.31 77.38,-283.95"/>
<polygon fill="black" stroke="black" points="80.88,-284.28 77.38,-274.28 73.88,-284.28 80.88,-284.28"/>
<text xml:space="preserve" text-anchor="middle" x="104.75" y="-292.65" font-family="Helvetica,sans-Serif" font-size="8.00">Response build</text>
</g>
<!-- T11 -->
<g id="node12" class="node">
<title>T11</title>
<polygon fill="#e6f2ff" stroke="black" points="152.5,-190.75 2.25,-190.75 2.25,-154.75 152.5,-154.75 152.5,-190.75"/>
<text xml:space="preserve" text-anchor="middle" x="77.38" y="-174.7" font-family="Helvetica,sans-Serif" font-size="9.00">TX Enable (RS485 DE pin HIGH)</text>
<text xml:space="preserve" text-anchor="middle" x="77.38" y="-164.2" font-family="Helvetica,sans-Serif" font-size="9.00">Send response bytes</text>
</g>
<!-- T10&#45;&gt;T11 -->
<g id="edge11" class="edge">
<title>T10&#45;&gt;T11</title>
<path fill="none" stroke="black" d="M77.38,-236.2C77.38,-226.27 77.38,-213.56 77.38,-202.2"/>
<polygon fill="black" stroke="black" points="80.88,-202.53 77.38,-192.53 73.88,-202.53 80.88,-202.53"/>
<text xml:space="preserve" text-anchor="middle" x="92.75" y="-210.9" font-family="Helvetica,sans-Serif" font-size="8.00">Transmit</text>
</g>
<!-- T12 -->
<g id="node13" class="node">
<title>T12</title>
<polygon fill="#e6f2ff" stroke="black" points="152.5,-117.75 2.25,-117.75 2.25,-81.75 152.5,-81.75 152.5,-117.75"/>
<text xml:space="preserve" text-anchor="middle" x="77.38" y="-101.7" font-family="Helvetica,sans-Serif" font-size="9.00">TX Disable (RS485 DE pin LOW)</text>
<text xml:space="preserve" text-anchor="middle" x="77.38" y="-91.2" font-family="Helvetica,sans-Serif" font-size="9.00">State: COMPLETE → IDLE</text>
</g>
<!-- T11&#45;&gt;T12 -->
<g id="edge12" class="edge">
<title>T11&#45;&gt;T12</title>
<path fill="none" stroke="black" d="M77.38,-154.56C77.38,-146.98 77.38,-137.85 77.38,-129.29"/>
<polygon fill="black" stroke="black" points="80.88,-129.29 77.38,-119.29 73.88,-129.29 80.88,-129.29"/>
</g>
<!-- T13 -->
<g id="node14" class="node">
<title>T13</title>
<polygon fill="#f0f0f0" stroke="black" points="152.5,-36 2.25,-36 2.25,0 152.5,0 152.5,-36"/>
<text xml:space="preserve" text-anchor="middle" x="77.38" y="-19.95" font-family="Helvetica,sans-Serif" font-size="9.00">t=6ms: Master receives response</text>
<text xml:space="preserve" text-anchor="middle" x="77.38" y="-9.45" font-family="Helvetica,sans-Serif" font-size="9.00">Transaction complete</text>
</g>
<!-- T12&#45;&gt;T13 -->
<g id="edge13" class="edge">
<title>T12&#45;&gt;T13</title>
<path fill="none" stroke="black" d="M77.38,-81.45C77.38,-71.52 77.38,-58.81 77.38,-47.45"/>
<polygon fill="black" stroke="black" points="80.88,-47.78 77.38,-37.78 73.88,-47.78 80.88,-47.78"/>
<text xml:space="preserve" text-anchor="middle" x="102.88" y="-56.15" font-family="Helvetica,sans-Serif" font-size="8.00">Physical Layer</text>
</g>
</g>
</svg>

<g id="navigator" transform="translate(0 0)" fill="#404254">
  <rect fill="#f2f5e9" fill-opacity="0.5" stroke="#606060" stroke-width=".5" x="0" y="0" width="60" height="60"/>
  <use id="zoomplus" xlink:href="#zoomPlus" x="17" y="9" onmousedown="handleZoom(evt,'in')"/>
  <use id="zoomminus" xlink:href="#zoomMin" x="42" y="9" onmousedown="handleZoom(evt,'out')"/>
  <use id="reset" xlink:href="#resetDef" x="30" y="36" onmousedown="handleReset()"/>
   <use id="arrowup" xlink:href="#arrowUp" x="0" y="0" onmousedown="handlePan(0,-1)"/>
  <use id="arrowright" xlink:href="#arrowRight" x="0" y="0" onmousedown="handlePan(1,0)"/>
  <use id="arrowdown" xlink:href="#arrowDown" x="0" y="0" onmousedown="handlePan(0,1)"/>
  <use id="arrowleft" xlink:href="#arrowLeft" x="0" y="0" onmousedown="handlePan(-1,0)"/>
</g>
<svg viewBox="0 0 15 15" width="100%" height="30px" preserveAspectRatio="xMaxYMin meet">
 <g id="arrow_out" transform="scale(0.3 0.3)">
  <a xlink:href="dot_inline_dotgraph_f40b088a0118ca5fa674efab83b2b577_org.svg" target="_base">
   <rect id="button" ry="5" rx="5" y="6" x="6" height="38" width="38"
        fill="#f2f5e9" fill-opacity="0.5" stroke="#606060" stroke-width="1.0"/>
   <path id="arrow"
     d="M 11.500037,31.436501 C 11.940474,20.09759 22.043105,11.32322 32.158766,21.979434 L 37.068811,17.246167 C 37.068811,17.246167 37.088388,32 37.088388,32 L 22.160133,31.978069 C 22.160133,31.978069 26.997745,27.140456 26.997745,27.140456 C 18.528582,18.264221 13.291696,25.230495 11.500037,31.436501 z"
     style="fill:#404040;"/>
  </a>
 </g>
</svg>

<style type='text/css'>
<![CDATA[
[data-mouse-over-selected='false'] { opacity: 0.7; }
[data-mouse-over-selected='true']  { opacity: 1.0; }
]]>
</style>
<script type="application/ecmascript"><![CDATA[
document.addEventListener('DOMContentLoaded', (event) => {
  highlightEdges();
  highlightAdjacentNodes();
});
]]></script>
</svg>
