<?xml version="1.0" encoding="UTF-8" standalone="no"?>
<!DOCTYPE svg PUBLIC "-//W3C//DTD SVG 1.1//EN"
 "http://www.w3.org/Graphics/SVG/1.1/DTD/svg11.dtd">
<!-- Generated by graphviz version 14.1.3 (20260303.0454)
 -->
<!-- Title: G Pages: 1 -->
<!--zoomable 97 -->

<svg id="main" version="1.1" xmlns="http://www.w3.org/2000/svg" xmlns:xlink="http://www.w3.org/1999/xlink" xml:space="preserve" onload="init(evt)">

<style type="text/css"><![CDATA[
.node, .edge {opacity: 0.7;}
.node.selected, .edge.selected {opacity: 1;}
.edge:hover path { stroke: red; }
.edge:hover polygon { stroke: red; fill: red; }
]]></style>

<defs>
  <circle id="rim" cx="0" cy="0" r="7"/>
  <circle id="rim2" cx="0" cy="0" r="3.5"/>
  <g id="zoomPlus">
    <use xlink:href="#rim" fill="#404040"><set attributeName="fill" to="#808080" begin="zoomplus.mouseover" end="zoomplus.mouseout"/></use>
    <path d="M-4,0h8M0,-4v8" fill="none" stroke="white" stroke-width="1.5" pointer-events="none"/>
  </g>
  <g id="zoomMin">
    <use xlink:href="#rim" fill="#404040"><set attributeName="fill" to="#808080" begin="zoomminus.mouseover" end="zoomminus.mouseout"/></use>
    <path d="M-4,0h8" fill="none" stroke="white" stroke-width="1.5" pointer-events="none"/>
  </g>
  <g id="arrowUp" transform="translate(30 24)">
    <use xlink:href="#rim"/>
    <path pointer-events="none" fill="none" stroke="white" stroke-width="1.5" d="M0,-3.0v7 M-2.5,-0.5L0,-3.0L2.5,-0.5"/>
  </g>
  <g id="arrowRight" transform="rotate(90) translate(36 -43)">
    <use xlink:href="#rim"/>
    <path pointer-events="none" fill="none" stroke="white" stroke-width="1.5" d="M0,-3.0v7 M-2.5,-0.5L0,-3.0L2.5,-0.5"/>
  </g>
  <g id="arrowDown" transform="rotate(180) translate(-30 -48)">
    <use xlink:href="#rim"/>
    <path pointer-events="none" fill="none" stroke="white" stroke-width="1.5" d="M0,-3.0v7 M-2.5,-0.5L0,-3.0L2.5,-0.5"/>
  </g>
  <g id="arrowLeft" transform="rotate(270) translate(-36 17)">
    <use xlink:href="#rim"/>
    <path pointer-events="none" fill="none" stroke="white" stroke-width="1.5" d="M0,-3.0v7 M-2.5,-0.5L0,-3.0L2.5,-0.5"/>
  </g>
  <g id="resetDef">
    <use xlink:href="#rim2" fill="#404040"><set attributeName="fill" to="#808080" begin="reset.mouseover" end="reset.mouseout"/></use>
  </g>
</defs>
<script type="application/ecmascript">
var viewWidth = 1038;
var viewHeight = 97;
</script>
<script type="application/ecmascript" xlink:href="svg.min.js"/>
<svg id="graph" class="graph">
<g id="viewport">
<title>G</title>
<polygon fill="white" stroke="none" points="-4,4 -4,-92.5 1034.3,-92.5 1034.3,4 -4,4"/>
<!-- Master -->
<g id="node1" class="node">
<title>Master</title>
<polygon fill="lightgrey" stroke="black" points="83.5,-42.5 0,-42.5 0,-6.5 83.5,-6.5 83.5,-42.5"/>
<text xml:space="preserve" text-anchor="middle" x="41.75" y="-27" font-family="Helvetica,sans-Serif" font-size="10.00">Modbus Master</text>
<text xml:space="preserve" text-anchor="middle" x="41.75" y="-15" font-family="Helvetica,sans-Serif" font-size="10.00">(PLC/SCADA)</text>
</g>
<!-- Serial -->
<g id="node2" class="node">
<title>Serial</title>
<ellipse fill="none" stroke="black" cx="215.15" cy="-24.5" rx="52.15" ry="22.63"/>
<text xml:space="preserve" text-anchor="middle" x="215.15" y="-27" font-family="Helvetica,sans-Serif" font-size="10.00">Serial/RS485</text>
<text xml:space="preserve" text-anchor="middle" x="215.15" y="-15" font-family="Helvetica,sans-Serif" font-size="10.00">Buffer</text>
</g>
<!-- Master&#45;&gt;Serial -->
<g id="edge1" class="edge">
<title>Master&#45;&gt;Serial</title>
<path fill="none" stroke="black" d="M83.8,-24.5C104.05,-24.5 128.92,-24.5 151.48,-24.5"/>
<polygon fill="black" stroke="black" points="151.17,-28 161.17,-24.5 151.17,-21 151.17,-28"/>
<text xml:space="preserve" text-anchor="middle" x="123.25" y="-27.7" font-family="Times New Roman,serif" font-size="14.00">Request</text>
</g>
<!-- Serial&#45;&gt;Master -->
<g id="edge9" class="edge">
<title>Serial&#45;&gt;Master</title>
<path fill="none" stroke="black" d="M173.63,-10.38C164.34,-7.73 154.42,-5.37 145,-4 125.87,-1.22 120.56,-0.77 101.5,-4 99.21,-4.39 96.89,-4.86 94.57,-5.39"/>
<polygon fill="black" stroke="black" points="93.93,-1.93 85.16,-7.88 95.72,-8.7 93.93,-1.93"/>
<text xml:space="preserve" text-anchor="middle" x="123.25" y="-7.2" font-family="Times New Roman,serif" font-size="14.00">Frame</text>
</g>
<!-- Parser -->
<g id="node3" class="node">
<title>Parser</title>
<polygon fill="none" stroke="blue" stroke-width="2" points="455.8,-42.5 376.8,-42.5 376.8,-6.5 455.8,-6.5 455.8,-42.5"/>
<text xml:space="preserve" text-anchor="middle" x="416.3" y="-27" font-family="Helvetica,sans-Serif" font-size="10.00">State Machine</text>
<text xml:space="preserve" text-anchor="middle" x="416.3" y="-15" font-family="Helvetica,sans-Serif" font-size="10.00">(run)</text>
</g>
<!-- Serial&#45;&gt;Parser -->
<g id="edge2" class="edge">
<title>Serial&#45;&gt;Parser</title>
<path fill="none" stroke="black" d="M267.69,-24.5C297.5,-24.5 334.87,-24.5 364.54,-24.5"/>
<polygon fill="black" stroke="black" points="364.41,-28 374.41,-24.5 364.41,-21 364.41,-28"/>
<text xml:space="preserve" text-anchor="middle" x="322.05" y="-27.7" font-family="Times New Roman,serif" font-size="14.00">Byte&#45;by&#45;Byte</text>
</g>
<!-- Parser&#45;&gt;Serial -->
<g id="edge8" class="edge">
<title>Parser&#45;&gt;Serial</title>
<path fill="none" stroke="black" d="M375.96,-8.27C370.28,-6.51 364.45,-4.99 358.8,-4 326.63,1.66 317.63,0.69 285.3,-4 279.56,-4.83 273.63,-6.04 267.78,-7.45"/>
<polygon fill="black" stroke="black" points="266.91,-4.06 258.13,-9.99 268.69,-10.83 266.91,-4.06"/>
<text xml:space="preserve" text-anchor="middle" x="322.05" y="-7.2" font-family="Times New Roman,serif" font-size="14.00">Response</text>
</g>
<!-- Callback -->
<g id="node4" class="node">
<title>Callback</title>
<polygon fill="none" stroke="orange" stroke-dasharray="5,2" points="641.3,-88.5 557.8,-88.5 557.8,-52.5 641.3,-52.5 641.3,-88.5"/>
<text xml:space="preserve" text-anchor="middle" x="599.55" y="-73" font-family="Helvetica,sans-Serif" font-size="10.00">User Callbacks</text>
<text xml:space="preserve" text-anchor="middle" x="599.55" y="-61" font-family="Helvetica,sans-Serif" font-size="10.00">(Expert Level)</text>
</g>
<!-- Parser&#45;&gt;Callback -->
<g id="edge3" class="edge">
<title>Parser&#45;&gt;Callback</title>
<path fill="none" stroke="black" d="M456.63,-34.48C482.91,-41.15 517.79,-50 546.39,-57.26"/>
<polygon fill="black" stroke="black" points="545.39,-60.62 555.94,-59.69 547.11,-53.84 545.39,-60.62"/>
<text xml:space="preserve" text-anchor="middle" x="506.8" y="-57.51" font-family="Times New Roman,serif" font-size="14.00">If registered</text>
</g>
<!-- Bank -->
<g id="node5" class="node">
<title>Bank</title>
<polygon fill="none" stroke="green" points="1030.3,-42.5 952.05,-42.5 952.05,-6.5 1030.3,-6.5 1030.3,-42.5"/>
<text xml:space="preserve" text-anchor="middle" x="991.17" y="-27" font-family="Helvetica,sans-Serif" font-size="10.00">Register Bank</text>
<text xml:space="preserve" text-anchor="middle" x="991.17" y="-15" font-family="Helvetica,sans-Serif" font-size="10.00">(Data Store)</text>
</g>
<!-- Parser&#45;&gt;Bank -->
<g id="edge4" class="edge">
<title>Parser&#45;&gt;Bank</title>
<path fill="none" stroke="black" d="M456.67,-24.5C558.12,-24.5 828.28,-24.5 940.36,-24.5"/>
<polygon fill="black" stroke="black" points="940.14,-28 950.14,-24.5 940.14,-21 940.14,-28"/>
<text xml:space="preserve" text-anchor="middle" x="709.17" y="-27.7" font-family="Times New Roman,serif" font-size="14.00">Direct Read/Write</text>
</g>
<!-- User -->
<g id="node6" class="node">
<title>User</title>
<polygon fill="lightgreen" stroke="black" points="880.8,-88.5 777.05,-88.5 777.05,-52.5 880.8,-52.5 880.8,-88.5"/>
<text xml:space="preserve" text-anchor="middle" x="828.92" y="-73" font-family="Helvetica,sans-Serif" font-size="10.00">Your Application</text>
<text xml:space="preserve" text-anchor="middle" x="828.92" y="-61" font-family="Helvetica,sans-Serif" font-size="10.00">(Basic/Intermediate)</text>
</g>
<!-- Callback&#45;&gt;User -->
<g id="edge5" class="edge">
<title>Callback&#45;&gt;User</title>
<path fill="none" stroke="black" d="M641.72,-70.5C676.2,-70.5 725.95,-70.5 765.35,-70.5"/>
<polygon fill="black" stroke="black" points="765.18,-74 775.18,-70.5 765.18,-67 765.18,-74"/>
<text xml:space="preserve" text-anchor="middle" x="709.17" y="-73.7" font-family="Times New Roman,serif" font-size="14.00">Event Trigger</text>
</g>
<!-- Bank&#45;&gt;Parser -->
<g id="edge7" class="edge">
<title>Bank&#45;&gt;Parser</title>
<path fill="none" stroke="black" d="M951.8,-20.05C906,-14.98 827.06,-7.01 759.05,-4 655.7,0.57 534.91,-10.55 468.17,-18.14"/>
<polygon fill="black" stroke="black" points="467.78,-14.66 458.25,-19.29 468.58,-21.61 467.78,-14.66"/>
<text xml:space="preserve" text-anchor="middle" x="709.17" y="-7.2" font-family="Times New Roman,serif" font-size="14.00">Data</text>
</g>
<!-- User&#45;&gt;Bank -->
<g id="edge6" class="edge">
<title>User&#45;&gt;Bank</title>
<path fill="none" stroke="black" d="M881.07,-55.82C900.21,-50.32 921.9,-44.1 940.88,-38.65"/>
<polygon fill="black" stroke="black" points="941.59,-42.09 950.24,-35.96 939.66,-35.36 941.59,-42.09"/>
<text xml:space="preserve" text-anchor="middle" x="916.42" y="-53.46" font-family="Times New Roman,serif" font-size="14.00">get/set</text>
</g>
</g>
</svg>

<g id="navigator" transform="translate(0 0)" fill="#404254">
  <rect fill="#f2f5e9" fill-opacity="0.5" stroke="#606060" stroke-width=".5" x="0" y="0" width="60" height="60"/>
  <use id="zoomplus" xlink:href="#zoomPlus" x="17" y="9" onmousedown="handleZoom(evt,'in')"/>
  <use id="zoomminus" xlink:href="#zoomMin" x="42" y="9" onmousedown="handleZoom(evt,'out')"/>
  <use id="reset" xlink:href="#resetDef" x="30" y="36" onmousedown="handleReset()"/>
   <use id="arrowup" xlink:href="#arrowUp" x="0" y="0" onmousedown="handlePan(0,-1)"/>
  <use id="arrowright" xlink:href="#arrowRight" x="0" y="0" onmousedown="handlePan(1,0)"/>
  <use id="arrowdown" xlink:href="#arrowDown" x="0" y="0" onmousedown="handlePan(0,1)"/>
  <use id="arrowleft" xlink:href="#arrowLeft" x="0" y="0" onmousedown="handlePan(-1,0)"/>
</g>
<svg viewBox="0 0 15 15" width="100%" height="30px" preserveAspectRatio="xMaxYMin meet">
 <g id="arrow_out" transform="scale(0.3 0.3)">
  <a xlink:href="dot_inline_dotgraph_847cc8e496997db84d546fd0f2d740c1_org.svg" target="_base">
   <rect id="button" ry="5" rx="5" y="6" x="6" height="38" width="38"
        fill="#f2f5e9" fill-opacity="0.5" stroke="#606060" stroke-width="1.0"/>
   <path id="arrow"
     d="M 11.500037,31.436501 C 11.940474,20.09759 22.043105,11.32322 32.158766,21.979434 L 37.068811,17.246167 C 37.068811,17.246167 37.088388,32 37.088388,32 L 22.160133,31.978069 C 22.160133,31.978069 26.997745,27.140456 26.997745,27.140456 C 18.528582,18.264221 13.291696,25.230495 11.500037,31.436501 z"
     style="fill:#404040;"/>
  </a>
 </g>
</svg>

<style type='text/css'>
<![CDATA[
[data-mouse-over-selected='false'] { opacity: 0.7; }
[data-mouse-over-selected='true']  { opacity: 1.0; }
]]>
</style>
<script type="application/ecmascript"><![CDATA[
document.addEventListener('DOMContentLoaded', (event) => {
  highlightEdges();
  highlightAdjacentNodes();
});
]]></script>
</svg>
