<?xml version="1.0" encoding="UTF-8" standalone="no"?>
<!DOCTYPE svg PUBLIC "-//W3C//DTD SVG 1.1//EN"
 "http://www.w3.org/Graphics/SVG/1.1/DTD/svg11.dtd">
<!-- Generated by graphviz version 14.1.3 (20260303.0454)
 -->
<!-- Title: G Pages: 1 -->
<!--zoomable 791 -->

<svg id="main" version="1.1" xmlns="http://www.w3.org/2000/svg" xmlns:xlink="http://www.w3.org/1999/xlink" xml:space="preserve" onload="init(evt)">

<style type="text/css"><![CDATA[
.node, .edge {opacity: 0.7;}
.node.selected, .edge.selected {opacity: 1;}
.edge:hover path { stroke: red; }
.edge:hover polygon { stroke: red; fill: red; }
]]></style>

<defs>
  <circle id="rim" cx="0" cy="0" r="7"/>
  <circle id="rim2" cx="0" cy="0" r="3.5"/>
  <g id="zoomPlus">
    <use xlink:href="#rim" fill="#404040"><set attributeName="fill" to="#808080" begin="zoomplus.mouseover" end="zoomplus.mouseout"/></use>
    <path d="M-4,0h8M0,-4v8" fill="none" stroke="white" stroke-width="1.5" pointer-events="none"/>
  </g>
  <g id="zoomMin">
    <use xlink:href="#rim" fill="#404040"><set attributeName="fill" to="#808080" begin="zoomminus.mouseover" end="zoomminus.mouseout"/></use>
    <path d="M-4,0h8" fill="none" stroke="white" stroke-width="1.5" pointer-events="none"/>
  </g>
  <g id="arrowUp" transform="translate(30 24)">
    <use xlink:href="#rim"/>
    <path pointer-events="none" fill="none" stroke="white" stroke-width="1.5" d="M0,-3.0v7 M-2.5,-0.5L0,-3.0L2.5,-0.5"/>
  </g>
  <g id="arrowRight" transform="rotate(90) translate(36 -43)">
    <use xlink:href="#rim"/>
    <path pointer-events="none" fill="none" stroke="white" stroke-width="1.5" d="M0,-3.0v7 M-2.5,-0.5L0,-3.0L2.5,-0.5"/>
  </g>
  <g id="arrowDown" transform="rotate(180) translate(-30 -48)">
    <use xlink:href="#rim"/>
    <path pointer-events="none" fill="none" stroke="white" stroke-width="1.5" d="M0,-3.0v7 M-2.5,-0.5L0,-3.0L2.5,-0.5"/>
  </g>
  <g id="arrowLeft" transform="rotate(270) translate(-36 17)">
    <use xlink:href="#rim"/>
    <path pointer-events="none" fill="none" stroke="white" stroke-width="1.5" d="M0,-3.0v7 M-2.5,-0.5L0,-3.0L2.5,-0.5"/>
  </g>
  <g id="resetDef">
    <use xlink:href="#rim2" fill="#404040"><set attributeName="fill" to="#808080" begin="reset.mouseover" end="reset.mouseout"/></use>
  </g>
</defs>
<script type="application/ecmascript">
var viewWidth = 496;
var viewHeight = 791;
</script>
<script type="application/ecmascript" xlink:href="svg.min.js"/>
<svg id="graph" class="graph">
<g id="viewport">
<title>G</title>
<polygon fill="white" stroke="none" points="-4,4 -4,-786.5 492.29,-786.5 492.29,4 -4,4"/>
<g id="clust1" class="cluster">
<title>cluster_0</title>
<polygon fill="#f0f0f0" stroke="grey" points="39,-672.5 39,-774.5 179,-774.5 179,-672.5 39,-672.5"/>
<text xml:space="preserve" text-anchor="middle" x="109" y="-757.2" font-family="Times New Roman,serif" font-size="14.00">Physical Layer</text>
</g>
<g id="clust2" class="cluster">
<title>cluster_1</title>
<polygon fill="#e6f2ff" stroke="blue" points="8,-278 8,-638 244,-638 244,-278 8,-278"/>
<text xml:space="preserve" text-anchor="middle" x="126" y="-620.7" font-family="Times New Roman,serif" font-size="14.00">Library Core (modbusSlave)</text>
</g>
<g id="clust3" class="cluster">
<title>cluster_2</title>
<polygon fill="#e6ffe6" stroke="green" points="124,-8 124,-239.5 404,-239.5 404,-8 124,-8"/>
<text xml:space="preserve" text-anchor="middle" x="264" y="-222.2" font-family="Times New Roman,serif" font-size="14.00">Data Layer (modbusRegBank)</text>
</g>
<g id="clust4" class="cluster">
<title>cluster_3</title>
<polygon fill="#fff5e6" stroke="orange" points="252,-274 252,-384 476,-384 476,-274 252,-274"/>
<text xml:space="preserve" text-anchor="middle" x="364" y="-366.7" font-family="Times New Roman,serif" font-size="14.00">User Application</text>
</g>
<!-- Serial -->
<g id="node1" class="node">
<title>Serial</title>
<polygon fill="none" stroke="black" points="47.38,-681 47.38,-717 170.62,-717 170.62,-681 47.38,-681"/>
<text xml:space="preserve" text-anchor="middle" x="109" y="-701.5" font-family="Helvetica,sans-Serif" font-size="10.00">Stream / HardwareSerial</text>
<text xml:space="preserve" text-anchor="middle" x="109" y="-689.5" font-family="Helvetica,sans-Serif" font-size="10.00">(RS485/USB)</text>
</g>
<!-- Parser -->
<g id="node2" class="node">
<title>Parser</title>
<polygon fill="none" stroke="black" points="49.5,-516.5 49.5,-580.5 128.5,-580.5 128.5,-516.5 49.5,-516.5"/>
<text xml:space="preserve" text-anchor="middle" x="89" y="-567" font-family="Helvetica,sans-Serif" font-size="10.00">State Machine</text>
<polyline fill="none" stroke="black" points="49.5,-560.5 128.5,-560.5"/>
<text xml:space="preserve" text-anchor="start" x="57.5" y="-547" font-family="Helvetica,sans-Serif" font-size="10.00">IDLE </text>
<text xml:space="preserve" text-anchor="start" x="57.5" y="-535" font-family="Helvetica,sans-Serif" font-size="10.00"> RECEIVING </text>
<text xml:space="preserve" text-anchor="start" x="57.5" y="-523" font-family="Helvetica,sans-Serif" font-size="10.00"> COMPLETE </text>
</g>
<!-- Serial&#45;&gt;Parser -->
<g id="edge1" class="edge">
<title>Serial&#45;&gt;Parser</title>
<path fill="none" stroke="black" d="M74.69,-680.52C68.27,-675.61 62.43,-669.61 58.75,-662.5 47.14,-640.08 53.94,-612.79 64,-590.64"/>
<polygon fill="black" stroke="black" points="67.03,-592.43 68.3,-581.91 60.75,-589.33 67.03,-592.43"/>
<text xml:space="preserve" text-anchor="middle" x="88.38" y="-649.2" font-family="Times New Roman,serif" font-size="14.00">Raw Bytes</text>
</g>
<!-- Parser&#45;&gt;Serial -->
<g id="edge12" class="edge">
<title>Parser&#45;&gt;Serial</title>
<path fill="none" stroke="black" d="M103.63,-580.75C112.51,-603.21 121.51,-634.36 118,-662.5 117.7,-664.87 117.3,-667.3 116.83,-669.73"/>
<polygon fill="black" stroke="black" points="113.45,-668.82 114.61,-679.36 120.27,-670.4 113.45,-668.82"/>
<text xml:space="preserve" text-anchor="middle" x="147.28" y="-649.2" font-family="Times New Roman,serif" font-size="14.00">TX Frame</text>
</g>
<!-- CRC -->
<g id="node3" class="node">
<title>CRC</title>
<polygon fill="none" stroke="black" points="16.5,-427 16.5,-463 113.5,-463 113.5,-427 16.5,-427"/>
<text xml:space="preserve" text-anchor="middle" x="65" y="-441.5" font-family="Helvetica,sans-Serif" font-size="10.00">CRC&#45;16 Validation</text>
</g>
<!-- Parser&#45;&gt;CRC -->
<g id="edge2" class="edge">
<title>Parser&#45;&gt;CRC</title>
<path fill="none" stroke="black" d="M76.15,-516.16C74.08,-510.21 72.16,-503.97 70.75,-498 68.97,-490.46 67.74,-482.17 66.89,-474.47"/>
<polygon fill="black" stroke="black" points="70.38,-474.18 65.98,-464.55 63.41,-474.82 70.38,-474.18"/>
<text xml:space="preserve" text-anchor="middle" x="107.88" y="-484.7" font-family="Times New Roman,serif" font-size="14.00">Frame Buffer</text>
</g>
<!-- FunctionCode -->
<g id="node4" class="node">
<title>FunctionCode</title>
<polygon fill="none" stroke="black" points="93.5,-286.5 93.5,-322.5 226.5,-322.5 226.5,-286.5 93.5,-286.5"/>
<text xml:space="preserve" text-anchor="middle" x="160" y="-307" font-family="Helvetica,sans-Serif" font-size="10.00">Function Code Router</text>
<text xml:space="preserve" text-anchor="middle" x="160" y="-295" font-family="Helvetica,sans-Serif" font-size="10.00">(FC01&#45;FC06, FC15, FC16)</text>
</g>
<!-- CRC&#45;&gt;FunctionCode -->
<g id="edge3" class="edge">
<title>CRC&#45;&gt;FunctionCode</title>
<path fill="none" stroke="black" d="M66.83,-426.79C68.5,-416.25 71.64,-402.76 77.5,-392 90.55,-368.04 111.96,-345.87 129.7,-329.98"/>
<polygon fill="black" stroke="black" points="131.67,-332.9 136.92,-323.69 127.08,-327.62 131.67,-332.9"/>
<text xml:space="preserve" text-anchor="middle" x="111.25" y="-395.2" font-family="Times New Roman,serif" font-size="14.00">Valid Frame</text>
</g>
<!-- FunctionCode&#45;&gt;Parser -->
<g id="edge11" class="edge">
<title>FunctionCode&#45;&gt;Parser</title>
<path fill="none" stroke="black" d="M162.78,-322.84C167.56,-358.01 174.23,-439.35 145,-498 142.72,-502.57 139.83,-506.9 136.55,-510.96"/>
<polygon fill="black" stroke="black" points="134.03,-508.53 129.9,-518.28 139.21,-513.23 134.03,-508.53"/>
<text xml:space="preserve" text-anchor="middle" x="207.22" y="-439.95" font-family="Times New Roman,serif" font-size="14.00">Build Response</text>
</g>
<!-- Bank -->
<g id="node5" class="node">
<title>Bank</title>
<polygon fill="none" stroke="black" points="176.75,-106 176.75,-182 341.25,-182 341.25,-106 176.75,-106"/>
<text xml:space="preserve" text-anchor="middle" x="259" y="-168.5" font-family="Helvetica,sans-Serif" font-size="10.00">Register Store</text>
<polyline fill="none" stroke="black" points="176.75,-162 341.25,-162"/>
<text xml:space="preserve" text-anchor="start" x="184.75" y="-148.5" font-family="Helvetica,sans-Serif" font-size="10.00">Coils (1&#45;2000) </text>
<text xml:space="preserve" text-anchor="start" x="184.75" y="-136.5" font-family="Helvetica,sans-Serif" font-size="10.00"> Discrete Inputs (10001&#45;12000) </text>
<text xml:space="preserve" text-anchor="start" x="184.75" y="-124.5" font-family="Helvetica,sans-Serif" font-size="10.00"> Input Registers (30001&#45;30125) </text>
<text xml:space="preserve" text-anchor="start" x="184.75" y="-112.5" font-family="Helvetica,sans-Serif" font-size="10.00"> Holding Registers (40001&#45;40125) </text>
</g>
<!-- FunctionCode&#45;&gt;Bank -->
<g id="edge4" class="edge">
<title>FunctionCode&#45;&gt;Bank</title>
<path fill="none" stroke="black" d="M136.06,-286.14C124.45,-275.46 114.35,-261.23 121.25,-247.5 133.13,-223.84 153.35,-204.26 174.69,-188.78"/>
<polygon fill="black" stroke="black" points="176.42,-191.84 182.64,-183.26 172.43,-186.09 176.42,-191.84"/>
<text xml:space="preserve" text-anchor="middle" x="153.12" y="-250.7" font-family="Times New Roman,serif" font-size="14.00">Direct R/W</text>
</g>
<!-- Expert -->
<g id="node9" class="node">
<title>Expert</title>
<polygon fill="none" stroke="black" points="376.12,-282.5 376.12,-326.5 467.88,-326.5 467.88,-282.5 376.12,-282.5"/>
<text xml:space="preserve" text-anchor="middle" x="422" y="-313" font-family="Helvetica,sans-Serif" font-size="10.00">Expert Level</text>
<text xml:space="preserve" text-anchor="middle" x="422" y="-301" font-family="Helvetica,sans-Serif" font-size="10.00">Callback Hooks</text>
<text xml:space="preserve" text-anchor="middle" x="422" y="-289" font-family="Helvetica,sans-Serif" font-size="10.00">(onRead/onWrite)</text>
</g>
<!-- FunctionCode&#45;&gt;Expert -->
<g id="edge5" class="edge">
<title>FunctionCode&#45;&gt;Expert</title>
<path fill="none" stroke="orange" stroke-dasharray="5,2" d="M173.51,-322.67C189.05,-341.93 216.5,-371.28 248,-384 252.74,-385.91 254.39,-384.29 259.5,-384.38 307.27,-385.15 324.81,-406.42 367,-384 385.78,-374.02 399.44,-354.44 408.45,-337.22"/>
<polygon fill="orange" stroke="orange" points="411.58,-338.78 412.8,-328.26 405.28,-335.72 411.58,-338.78"/>
<text xml:space="preserve" text-anchor="middle" x="297" y="-395.2" font-family="Times New Roman,serif" font-size="14.00">Event Trigger</text>
</g>
<!-- Bank&#45;&gt;FunctionCode -->
<g id="edge10" class="edge">
<title>Bank&#45;&gt;FunctionCode</title>
<path fill="none" stroke="black" d="M235.91,-182.3C221.35,-205.78 202.13,-236.69 185,-264 182.43,-268.1 179.7,-272.43 177.02,-276.67"/>
<polygon fill="black" stroke="black" points="174.18,-274.61 171.79,-284.94 180.1,-278.36 174.18,-274.61"/>
<text xml:space="preserve" text-anchor="middle" x="235.61" y="-250.7" font-family="Times New Roman,serif" font-size="14.00">Response Data</text>
</g>
<!-- Atomic -->
<g id="node6" class="node">
<title>Atomic</title>
<polygon fill="none" stroke="black" points="131.88,-16.5 131.88,-52.5 282.12,-52.5 282.12,-16.5 131.88,-16.5"/>
<text xml:space="preserve" text-anchor="middle" x="207" y="-37" font-family="Helvetica,sans-Serif" font-size="10.00">Atomic Lock Guard</text>
<text xml:space="preserve" text-anchor="middle" x="207" y="-25" font-family="Helvetica,sans-Serif" font-size="10.00">(Read&#45;Modify&#45;Write Protection)</text>
</g>
<!-- Bank&#45;&gt;Atomic -->
<g id="edge8" class="edge">
<title>Bank&#45;&gt;Atomic</title>
<path fill="none" stroke="black" stroke-dasharray="5,2" d="M209.1,-105.81C204.33,-100.21 200.18,-94.08 197.25,-87.5 193.98,-80.17 194.08,-71.79 195.63,-63.93"/>
<polygon fill="black" stroke="black" points="198.96,-65 198.3,-54.42 192.22,-63.1 198.96,-65"/>
<text xml:space="preserve" text-anchor="middle" x="239.62" y="-74.2" font-family="Times New Roman,serif" font-size="14.00">Critical Section</text>
</g>
<!-- TypedHelpers -->
<g id="node7" class="node">
<title>TypedHelpers</title>
<polygon fill="none" stroke="black" points="299.88,-16.5 299.88,-52.5 396.12,-52.5 396.12,-16.5 299.88,-16.5"/>
<text xml:space="preserve" text-anchor="middle" x="348" y="-37" font-family="Helvetica,sans-Serif" font-size="10.00">Typed Helpers</text>
<text xml:space="preserve" text-anchor="middle" x="348" y="-25" font-family="Helvetica,sans-Serif" font-size="10.00">(Float/Long/String)</text>
</g>
<!-- Bank&#45;&gt;TypedHelpers -->
<g id="edge9" class="edge">
<title>Bank&#45;&gt;TypedHelpers</title>
<path fill="none" stroke="black" stroke-dasharray="1,5" d="M289.88,-105.7C301.95,-91.12 315.51,-74.75 326.49,-61.48"/>
<polygon fill="black" stroke="black" points="328.98,-63.96 332.66,-54.02 323.59,-59.49 328.98,-63.96"/>
<text xml:space="preserve" text-anchor="middle" x="362.42" y="-74.2" font-family="Times New Roman,serif" font-size="14.00">Data Conversion</text>
</g>
<!-- Basic -->
<g id="node8" class="node">
<title>Basic</title>
<polygon fill="none" stroke="black" points="260.12,-282.5 260.12,-326.5 357.88,-326.5 357.88,-282.5 260.12,-282.5"/>
<text xml:space="preserve" text-anchor="middle" x="309" y="-313" font-family="Helvetica,sans-Serif" font-size="10.00">Basic/Intermediate</text>
<text xml:space="preserve" text-anchor="middle" x="309" y="-301" font-family="Helvetica,sans-Serif" font-size="10.00">Polling Logic</text>
<text xml:space="preserve" text-anchor="middle" x="309" y="-289" font-family="Helvetica,sans-Serif" font-size="10.00">(get/set in loop)</text>
</g>
<!-- Basic&#45;&gt;Bank -->
<g id="edge7" class="edge">
<title>Basic&#45;&gt;Bank</title>
<path fill="none" stroke="black" d="M302.26,-282.12C295.09,-259.4 283.51,-222.71 274.14,-192.99"/>
<polygon fill="black" stroke="black" points="277.6,-192.33 271.25,-183.85 270.92,-194.44 277.6,-192.33"/>
<text xml:space="preserve" text-anchor="middle" x="336.47" y="-250.7" font-family="Times New Roman,serif" font-size="14.00">Polling Update</text>
</g>
<!-- Expert&#45;&gt;Bank -->
<g id="edge6" class="edge">
<title>Expert&#45;&gt;Bank</title>
<path fill="none" stroke="black" d="M408.13,-282.09C400.66,-271.24 390.96,-258.15 381,-247.5 361.82,-226.99 338.67,-206.64 317.71,-189.53"/>
<polygon fill="black" stroke="black" points="320.04,-186.91 310.06,-183.36 315.65,-192.36 320.04,-186.91"/>
<text xml:space="preserve" text-anchor="middle" x="441.42" y="-250.7" font-family="Times New Roman,serif" font-size="14.00">Validated Update</text>
</g>
</g>
</svg>

<g id="navigator" transform="translate(0 0)" fill="#404254">
  <rect fill="#f2f5e9" fill-opacity="0.5" stroke="#606060" stroke-width=".5" x="0" y="0" width="60" height="60"/>
  <use id="zoomplus" xlink:href="#zoomPlus" x="17" y="9" onmousedown="handleZoom(evt,'in')"/>
  <use id="zoomminus" xlink:href="#zoomMin" x="42" y="9" onmousedown="handleZoom(evt,'out')"/>
  <use id="reset" xlink:href="#resetDef" x="30" y="36" onmousedown="handleReset()"/>
   <use id="arrowup" xlink:href="#arrowUp" x="0" y="0" onmousedown="handlePan(0,-1)"/>
  <use id="arrowright" xlink:href="#arrowRight" x="0" y="0" onmousedown="handlePan(1,0)"/>
  <use id="arrowdown" xlink:href="#arrowDown" x="0" y="0" onmousedown="handlePan(0,1)"/>
  <use id="arrowleft" xlink:href="#arrowLeft" x="0" y="0" onmousedown="handlePan(-1,0)"/>
</g>
<svg viewBox="0 0 15 15" width="100%" height="30px" preserveAspectRatio="xMaxYMin meet">
 <g id="arrow_out" transform="scale(0.3 0.3)">
  <a xlink:href="dot_inline_dotgraph_b0366aface160dbef869feae7b4f571a_org.svg" target="_base">
   <rect id="button" ry="5" rx="5" y="6" x="6" height="38" width="38"
        fill="#f2f5e9" fill-opacity="0.5" stroke="#606060" stroke-width="1.0"/>
   <path id="arrow"
     d="M 11.500037,31.436501 C 11.940474,20.09759 22.043105,11.32322 32.158766,21.979434 L 37.068811,17.246167 C 37.068811,17.246167 37.088388,32 37.088388,32 L 22.160133,31.978069 C 22.160133,31.978069 26.997745,27.140456 26.997745,27.140456 C 18.528582,18.264221 13.291696,25.230495 11.500037,31.436501 z"
     style="fill:#404040;"/>
  </a>
 </g>
</svg>

<style type='text/css'>
<![CDATA[
[data-mouse-over-selected='false'] { opacity: 0.7; }
[data-mouse-over-selected='true']  { opacity: 1.0; }
]]>
</style>
<script type="application/ecmascript"><![CDATA[
document.addEventListener('DOMContentLoaded', (event) => {
  highlightEdges();
  highlightAdjacentNodes();
});
]]></script>
</svg>
