<?xml version="1.0" encoding="UTF-8" standalone="no"?>
<!DOCTYPE svg PUBLIC "-//W3C//DTD SVG 1.1//EN"
 "http://www.w3.org/Graphics/SVG/1.1/DTD/svg11.dtd">
<!-- Generated by graphviz version 14.1.3 (20260303.0454)
 -->
<!-- Title: modbusRegBank.h Pages: 1 -->
<svg width="163pt" height="140pt"
 viewBox="0.00 0.00 163.00 140.00" xmlns="http://www.w3.org/2000/svg" xmlns:xlink="http://www.w3.org/1999/xlink">
<g id="graph0" class="graph" transform="scale(1 1) rotate(0) translate(4 136)">
<title>modbusRegBank.h</title>
<!-- Node1 -->
<g id="Node000001" class="node">
<title>Node1</title>
<g id="a_Node000001"><a xlink:title="Register storage engine and typed data helpers for Modbus maps.">
<polygon fill="#999999" stroke="#666666" points="99.25,-132 0,-132 0,-112 99.25,-112 99.25,-132"/>
<text xml:space="preserve" text-anchor="middle" x="49.62" y="-118.5" font-family="Helvetica,sans-Serif" font-size="10.00">modbusRegBank.h</text>
</a>
</g>
</g>
<!-- Node2 -->
<g id="Node000002" class="node">
<title>Node2</title>
<g id="a_Node000002"><a xlink:title=" ">
<polygon fill="#e0e0e0" stroke="#999999" points="82.75,-20 34.5,-20 34.5,0 82.75,0 82.75,-20"/>
<text xml:space="preserve" text-anchor="middle" x="58.62" y="-6.5" font-family="Helvetica,sans-Serif" font-size="10.00">stdint.h</text>
</a>
</g>
</g>
<!-- Node1&#45;&gt;Node2 -->
<g id="edge1_Node000001_Node000002" class="edge">
<title>Node1&#45;&gt;Node2</title>
<g id="a_edge1_Node000001_Node000002"><a xlink:title=" ">
<path fill="none" stroke="#63b8ff" d="M37.68,-111.7C23.46,-99.43 2.69,-76.92 11.62,-56 16.43,-44.74 25.59,-34.95 34.56,-27.4"/>
<polygon fill="#63b8ff" stroke="#63b8ff" points="36.67,-30.19 42.44,-21.31 32.39,-24.66 36.67,-30.19"/>
</a>
</g>
</g>
<!-- Node3 -->
<g id="Node000003" class="node">
<title>Node3</title>
<g id="a_Node000003"><a xlink:title=" ">
<polygon fill="#e0e0e0" stroke="#999999" points="78.25,-76 21,-76 21,-56 78.25,-56 78.25,-76"/>
<text xml:space="preserve" text-anchor="middle" x="49.62" y="-62.5" font-family="Helvetica,sans-Serif" font-size="10.00">Arduino.h</text>
</a>
</g>
</g>
<!-- Node1&#45;&gt;Node3 -->
<g id="edge2_Node000001_Node000003" class="edge">
<title>Node1&#45;&gt;Node3</title>
<g id="a_edge2_Node000001_Node000003"><a xlink:title=" ">
<path fill="none" stroke="#63b8ff" d="M49.62,-111.59C49.62,-105.01 49.62,-95.96 49.62,-87.73"/>
<polygon fill="#63b8ff" stroke="#63b8ff" points="53.13,-87.81 49.63,-77.81 46.13,-87.81 53.13,-87.81"/>
</a>
</g>
</g>
<!-- Node4 -->
<g id="Node000004" class="node">
<title>Node4</title>
<g id="a_Node000004"><a xlink:href="modbus_8h.html" target="_top" xlink:title="Core protocol constants, limits, and compile&#45;time configuration for the Modbus RTU library.">
<polygon fill="white" stroke="#666666" points="155,-76 96.25,-76 96.25,-56 155,-56 155,-76"/>
<text xml:space="preserve" text-anchor="middle" x="125.62" y="-62.5" font-family="Helvetica,sans-Serif" font-size="10.00">modbus.h</text>
</a>
</g>
</g>
<!-- Node1&#45;&gt;Node4 -->
<g id="edge3_Node000001_Node000004" class="edge">
<title>Node1&#45;&gt;Node4</title>
<g id="a_edge3_Node000001_Node000004"><a xlink:title=" ">
<path fill="none" stroke="#63b8ff" d="M62.86,-111.59C73.91,-103.74 89.91,-92.38 102.98,-83.09"/>
<polygon fill="#63b8ff" stroke="#63b8ff" points="104.93,-86 111.05,-77.36 100.87,-80.3 104.93,-86"/>
</a>
</g>
</g>
<!-- Node4&#45;&gt;Node2 -->
<g id="edge4_Node000004_Node000002" class="edge">
<title>Node4&#45;&gt;Node2</title>
<g id="a_edge4_Node000004_Node000002"><a xlink:title=" ">
<path fill="none" stroke="#63b8ff" d="M113.95,-55.59C104.35,-47.85 90.5,-36.69 79.06,-27.47"/>
<polygon fill="#63b8ff" stroke="#63b8ff" points="81.32,-24.8 71.34,-21.25 76.93,-30.25 81.32,-24.8"/>
</a>
</g>
</g>
</g>
</svg>
