<?xml version="1.0" encoding="UTF-8" standalone="no"?>
<!DOCTYPE svg PUBLIC "-//W3C//DTD SVG 1.1//EN"
 "http://www.w3.org/Graphics/SVG/1.1/DTD/svg11.dtd">
<!-- Generated by graphviz version 14.1.3 (20260303.0454)
 -->
<!-- Title: modbusRegBank::getLong Pages: 1 -->
<svg width="448pt" height="66pt"
 viewBox="0.00 0.00 448.00 66.00" xmlns="http://www.w3.org/2000/svg" xmlns:xlink="http://www.w3.org/1999/xlink">
<g id="graph0" class="graph" transform="scale(1 1) rotate(0) translate(4 62)">
<title>modbusRegBank::getLong</title>
<!-- Node1 -->
<g id="Node000001" class="node">
<title>Node1</title>
<g id="a_Node000001"><a xlink:title="Read 32&#45;bit integer from two adjacent registers.">
<polygon fill="#999999" stroke="#666666" points="131.5,-39 0,-39 0,-19 131.5,-19 131.5,-39"/>
<text xml:space="preserve" text-anchor="middle" x="65.75" y="-25.5" font-family="Helvetica,sans-Serif" font-size="10.00">modbusRegBank::getLong</text>
</a>
</g>
</g>
<!-- Node2 -->
<g id="Node000002" class="node">
<title>Node2</title>
<g id="a_Node000002"><a xlink:href="classmodbus_reg_bank.html#a20327e143f658ca7c31f08d001d5c421" target="_top" xlink:title="Get register value or MODBUS_REG_NOT_FOUND when missing.">
<polygon fill="white" stroke="#666666" points="279.12,-58 168.62,-58 168.62,-38 279.12,-38 279.12,-58"/>
<text xml:space="preserve" text-anchor="middle" x="223.88" y="-44.5" font-family="Helvetica,sans-Serif" font-size="10.00">modbusRegBank::get</text>
</a>
</g>
</g>
<!-- Node1&#45;&gt;Node2 -->
<g id="edge1_Node000001_Node000002" class="edge">
<title>Node1&#45;&gt;Node2</title>
<g id="a_edge1_Node000001_Node000002"><a xlink:title=" ">
<path fill="none" stroke="#63b8ff" d="M131.6,-36.89C140.01,-37.92 148.63,-38.97 157.06,-39.99"/>
<polygon fill="#63b8ff" stroke="#63b8ff" points="156.54,-43.45 166.89,-41.19 157.38,-36.5 156.54,-43.45"/>
</a>
</g>
</g>
<!-- Node4 -->
<g id="Node000004" class="node">
<title>Node4</title>
<g id="a_Node000004"><a xlink:href="classmodbus_reg_bank.html#a66c95bd2897487bbb5e27b73b3279e56" target="_top" xlink:title="Check whether register exists.">
<polygon fill="white" stroke="#666666" points="280.25,-20 167.5,-20 167.5,0 280.25,0 280.25,-20"/>
<text xml:space="preserve" text-anchor="middle" x="223.88" y="-6.5" font-family="Helvetica,sans-Serif" font-size="10.00">modbusRegBank::has</text>
</a>
</g>
</g>
<!-- Node1&#45;&gt;Node4 -->
<g id="edge3_Node000001_Node000004" class="edge">
<title>Node1&#45;&gt;Node4</title>
<g id="a_edge3_Node000001_Node000004"><a xlink:title=" ">
<path fill="none" stroke="#63b8ff" d="M131.6,-21.11C139.69,-20.12 147.97,-19.12 156.09,-18.13"/>
<polygon fill="#63b8ff" stroke="#63b8ff" points="156.4,-21.62 165.91,-16.93 155.56,-14.67 156.4,-21.62"/>
</a>
</g>
</g>
<!-- Node3 -->
<g id="Node000003" class="node">
<title>Node3</title>
<g id="a_Node000003"><a xlink:href="classmodbus_reg_bank.html#a053dbb17cb5b236f74c4cf82499fe1b9" target="_top" xlink:title="Try reading register value; returns false if register is missing.">
<polygon fill="white" stroke="#666666" points="440.25,-58 316.25,-58 316.25,-38 440.25,-38 440.25,-58"/>
<text xml:space="preserve" text-anchor="middle" x="378.25" y="-44.5" font-family="Helvetica,sans-Serif" font-size="10.00">modbusRegBank::tryGet</text>
</a>
</g>
</g>
<!-- Node2&#45;&gt;Node3 -->
<g id="edge2_Node000002_Node000003" class="edge">
<title>Node2&#45;&gt;Node3</title>
<g id="a_edge2_Node000002_Node000003"><a xlink:title=" ">
<path fill="none" stroke="#63b8ff" d="M279.46,-48C287.56,-48 296.01,-48 304.42,-48"/>
<polygon fill="#63b8ff" stroke="#63b8ff" points="304.29,-51.5 314.29,-48 304.29,-44.5 304.29,-51.5"/>
</a>
</g>
</g>
</g>
</svg>
