<?xml version="1.0" encoding="UTF-8" standalone="no"?>
<!DOCTYPE svg PUBLIC "-//W3C//DTD SVG 1.1//EN"
 "http://www.w3.org/Graphics/SVG/1.1/DTD/svg11.dtd">
<!-- Generated by graphviz version 14.1.3 (20260303.0454)
 -->
<!-- Title: modbusRegBank::has Pages: 1 -->
<svg width="293pt" height="256pt"
 viewBox="0.00 0.00 293.00 256.00" xmlns="http://www.w3.org/2000/svg" xmlns:xlink="http://www.w3.org/1999/xlink">
<g id="graph0" class="graph" transform="scale(1 1) rotate(0) translate(4 252)">
<title>modbusRegBank::has</title>
<!-- Node1 -->
<g id="Node000001" class="node">
<title>Node1</title>
<g id="a_Node000001"><a xlink:title="Check whether register exists.">
<polygon fill="#999999" stroke="#666666" points="284.75,-134 172,-134 172,-114 284.75,-114 284.75,-134"/>
<text xml:space="preserve" text-anchor="middle" x="228.38" y="-120.5" font-family="Helvetica,sans-Serif" font-size="10.00">modbusRegBank::has</text>
</a>
</g>
</g>
<!-- Node2 -->
<g id="Node000002" class="node">
<title>Node2</title>
<g id="a_Node000002"><a xlink:href="classmodbus_reg_bank.html#a8315ad0ddb59a95afe00283e96d84cd0" target="_top" xlink:title="Add a register address to the map.">
<polygon fill="white" stroke="#666666" points="124.38,-248 11.62,-248 11.62,-228 124.38,-228 124.38,-248"/>
<text xml:space="preserve" text-anchor="middle" x="68" y="-234.5" font-family="Helvetica,sans-Serif" font-size="10.00">modbusRegBank::add</text>
</a>
</g>
</g>
<!-- Node1&#45;&gt;Node2 -->
<g id="edge1_Node000001_Node000002" class="edge">
<title>Node1&#45;&gt;Node2</title>
<g id="a_edge1_Node000001_Node000002"><a xlink:title=" ">
<path fill="none" stroke="#63b8ff" d="M213.69,-143.48C197.53,-165.06 168.69,-199.38 136,-219 130.3,-222.42 123.95,-225.25 117.51,-227.58"/>
<polygon fill="#63b8ff" stroke="#63b8ff" points="216.43,-145.67 219.49,-135.52 210.77,-141.55 216.43,-145.67"/>
</a>
</g>
</g>
<!-- Node3 -->
<g id="Node000003" class="node">
<title>Node3</title>
<g id="a_Node000003"><a xlink:href="classmodbus_reg_bank.html#a2b36921dcaf72e0a79ed841d43b5337b" target="_top" xlink:title="Read 32&#45;bit float from two adjacent registers.">
<polygon fill="white" stroke="#666666" points="134.12,-210 1.88,-210 1.88,-190 134.12,-190 134.12,-210"/>
<text xml:space="preserve" text-anchor="middle" x="68" y="-196.5" font-family="Helvetica,sans-Serif" font-size="10.00">modbusRegBank::getFloat</text>
</a>
</g>
</g>
<!-- Node1&#45;&gt;Node3 -->
<g id="edge2_Node000001_Node000003" class="edge">
<title>Node1&#45;&gt;Node3</title>
<g id="a_edge2_Node000001_Node000003"><a xlink:title=" ">
<path fill="none" stroke="#63b8ff" d="M204.2,-141.02C186.31,-153.51 160.55,-170.12 136,-181 128.59,-184.28 120.47,-187.15 112.52,-189.59"/>
<polygon fill="#63b8ff" stroke="#63b8ff" points="206.16,-143.92 212.28,-135.27 202.1,-138.22 206.16,-143.92"/>
</a>
</g>
</g>
<!-- Node4 -->
<g id="Node000004" class="node">
<title>Node4</title>
<g id="a_Node000004"><a xlink:href="classmodbus_reg_bank.html#a7a2ca20b3fe3f1f7b03146980d01041e" target="_top" xlink:title="Read 32&#45;bit integer from two adjacent registers.">
<polygon fill="white" stroke="#666666" points="133.75,-172 2.25,-172 2.25,-152 133.75,-152 133.75,-172"/>
<text xml:space="preserve" text-anchor="middle" x="68" y="-158.5" font-family="Helvetica,sans-Serif" font-size="10.00">modbusRegBank::getLong</text>
</a>
</g>
</g>
<!-- Node1&#45;&gt;Node4 -->
<g id="edge3_Node000001_Node000004" class="edge">
<title>Node1&#45;&gt;Node4</title>
<g id="a_edge3_Node000001_Node000004"><a xlink:title=" ">
<path fill="none" stroke="#63b8ff" d="M172.71,-137.12C153.05,-141.83 131.15,-147.09 112.55,-151.55"/>
<polygon fill="#63b8ff" stroke="#63b8ff" points="173.3,-140.57 182.21,-134.84 171.67,-133.77 173.3,-140.57"/>
</a>
</g>
</g>
<!-- Node5 -->
<g id="Node000005" class="node">
<title>Node5</title>
<g id="a_Node000005"><a xlink:href="classmodbus_reg_bank.html#a0c7162ebf481e9f84f446ed4f3bf4963" target="_top" xlink:title="Read ASCII string from packed register area.">
<polygon fill="white" stroke="#666666" points="136,-134 0,-134 0,-114 136,-114 136,-134"/>
<text xml:space="preserve" text-anchor="middle" x="68" y="-120.5" font-family="Helvetica,sans-Serif" font-size="10.00">modbusRegBank::getString</text>
</a>
</g>
</g>
<!-- Node1&#45;&gt;Node5 -->
<g id="edge4_Node000001_Node000005" class="edge">
<title>Node1&#45;&gt;Node5</title>
<g id="a_edge4_Node000001_Node000005"><a xlink:title=" ">
<path fill="none" stroke="#63b8ff" d="M160.13,-124C152.23,-124 144.17,-124 136.28,-124"/>
<polygon fill="#63b8ff" stroke="#63b8ff" points="160.02,-127.5 170.02,-124 160.02,-120.5 160.02,-127.5"/>
</a>
</g>
</g>
<!-- Node6 -->
<g id="Node000006" class="node">
<title>Node6</title>
<g id="a_Node000006"><a xlink:href="classmodbus_reg_bank.html#a31076a62cdef557959f32299c39c18c6" target="_top" xlink:title="Write 32&#45;bit float to two adjacent registers.">
<polygon fill="white" stroke="#666666" points="134.12,-96 1.88,-96 1.88,-76 134.12,-76 134.12,-96"/>
<text xml:space="preserve" text-anchor="middle" x="68" y="-82.5" font-family="Helvetica,sans-Serif" font-size="10.00">modbusRegBank::setFloat</text>
</a>
</g>
</g>
<!-- Node1&#45;&gt;Node6 -->
<g id="edge5_Node000001_Node000006" class="edge">
<title>Node1&#45;&gt;Node6</title>
<g id="a_edge5_Node000001_Node000006"><a xlink:title=" ">
<path fill="none" stroke="#63b8ff" d="M172.71,-110.88C153.05,-106.17 131.15,-100.91 112.55,-96.45"/>
<polygon fill="#63b8ff" stroke="#63b8ff" points="171.67,-114.23 182.21,-113.16 173.3,-107.43 171.67,-114.23"/>
</a>
</g>
</g>
<!-- Node7 -->
<g id="Node000007" class="node">
<title>Node7</title>
<g id="a_Node000007"><a xlink:href="classmodbus_reg_bank.html#aef36ae9364a3aea6c2f3d88e13629673" target="_top" xlink:title="Write 32&#45;bit integer to two adjacent registers.">
<polygon fill="white" stroke="#666666" points="133.75,-58 2.25,-58 2.25,-38 133.75,-38 133.75,-58"/>
<text xml:space="preserve" text-anchor="middle" x="68" y="-44.5" font-family="Helvetica,sans-Serif" font-size="10.00">modbusRegBank::setLong</text>
</a>
</g>
</g>
<!-- Node1&#45;&gt;Node7 -->
<g id="edge6_Node000001_Node000007" class="edge">
<title>Node1&#45;&gt;Node7</title>
<g id="a_edge6_Node000001_Node000007"><a xlink:title=" ">
<path fill="none" stroke="#63b8ff" d="M204.2,-106.98C186.31,-94.49 160.55,-77.88 136,-67 128.59,-63.72 120.47,-60.85 112.52,-58.41"/>
<polygon fill="#63b8ff" stroke="#63b8ff" points="202.1,-109.78 212.28,-112.73 206.16,-104.08 202.1,-109.78"/>
</a>
</g>
</g>
<!-- Node8 -->
<g id="Node000008" class="node">
<title>Node8</title>
<g id="a_Node000008"><a xlink:href="classmodbus_reg_bank.html#a8be65635073738d364c81b54f87b4ec8" target="_top" xlink:title="Write ASCII string (2 chars/register) starting at address.">
<polygon fill="white" stroke="#666666" points="136,-20 0,-20 0,0 136,0 136,-20"/>
<text xml:space="preserve" text-anchor="middle" x="68" y="-6.5" font-family="Helvetica,sans-Serif" font-size="10.00">modbusRegBank::setString</text>
</a>
</g>
</g>
<!-- Node1&#45;&gt;Node8 -->
<g id="edge7_Node000001_Node000008" class="edge">
<title>Node1&#45;&gt;Node8</title>
<g id="a_edge7_Node000001_Node000008"><a xlink:title=" ">
<path fill="none" stroke="#63b8ff" d="M213.69,-104.52C197.53,-82.94 168.69,-48.62 136,-29 130.3,-25.58 123.95,-22.75 117.51,-20.42"/>
<polygon fill="#63b8ff" stroke="#63b8ff" points="210.77,-106.45 219.49,-112.48 216.43,-102.33 210.77,-106.45"/>
</a>
</g>
</g>
</g>
</svg>
