<?xml version="1.0" encoding="UTF-8" standalone="no"?>
<!DOCTYPE svg PUBLIC "-//W3C//DTD SVG 1.1//EN"
 "http://www.w3.org/Graphics/SVG/1.1/DTD/svg11.dtd">
<!-- Generated by graphviz version 14.1.3 (20260303.0454)
 -->
<!-- Title: modbusRegBank::set Pages: 1 -->
<svg width="296pt" height="142pt"
 viewBox="0.00 0.00 296.00 142.00" xmlns="http://www.w3.org/2000/svg" xmlns:xlink="http://www.w3.org/1999/xlink">
<g id="graph0" class="graph" transform="scale(1 1) rotate(0) translate(4 138)">
<title>modbusRegBank::set</title>
<!-- Node1 -->
<g id="Node000001" class="node">
<title>Node1</title>
<g id="a_Node000001"><a xlink:title="Set register value.">
<polygon fill="#999999" stroke="#666666" points="287.75,-77 177.25,-77 177.25,-57 287.75,-57 287.75,-77"/>
<text xml:space="preserve" text-anchor="middle" x="232.5" y="-63.5" font-family="Helvetica,sans-Serif" font-size="10.00">modbusRegBank::set</text>
</a>
</g>
</g>
<!-- Node2 -->
<g id="Node000002" class="node">
<title>Node2</title>
<g id="a_Node000002"><a xlink:href="classmodbus_reg_bank.html#ad8c1beef92f1cb2abcc264f8edd50177" target="_top" xlink:title="Atomic wrapper around set().">
<polygon fill="white" stroke="#666666" points="141.25,-134 0,-134 0,-114 141.25,-114 141.25,-134"/>
<text xml:space="preserve" text-anchor="middle" x="70.62" y="-120.5" font-family="Helvetica,sans-Serif" font-size="10.00">modbusRegBank::atomicSet</text>
</a>
</g>
</g>
<!-- Node1&#45;&gt;Node2 -->
<g id="edge1_Node000001_Node000002" class="edge">
<title>Node1&#45;&gt;Node2</title>
<g id="a_edge1_Node000001_Node000002"><a xlink:title=" ">
<path fill="none" stroke="#63b8ff" d="M198.72,-82.03C181.77,-89.49 160.63,-98.31 141.25,-105 132.37,-108.07 122.71,-110.97 113.5,-113.54"/>
<polygon fill="#63b8ff" stroke="#63b8ff" points="200.11,-85.25 207.81,-77.98 197.26,-78.86 200.11,-85.25"/>
</a>
</g>
</g>
<!-- Node3 -->
<g id="Node000003" class="node">
<title>Node3</title>
<g id="a_Node000003"><a xlink:href="classmodbus_reg_bank.html#a31076a62cdef557959f32299c39c18c6" target="_top" xlink:title="Write 32&#45;bit float to two adjacent registers.">
<polygon fill="white" stroke="#666666" points="136.75,-96 4.5,-96 4.5,-76 136.75,-76 136.75,-96"/>
<text xml:space="preserve" text-anchor="middle" x="70.62" y="-82.5" font-family="Helvetica,sans-Serif" font-size="10.00">modbusRegBank::setFloat</text>
</a>
</g>
</g>
<!-- Node1&#45;&gt;Node3 -->
<g id="edge2_Node000001_Node000003" class="edge">
<title>Node1&#45;&gt;Node3</title>
<g id="a_edge2_Node000001_Node000003"><a xlink:title=" ">
<path fill="none" stroke="#63b8ff" d="M165.58,-74.83C156.14,-75.96 146.43,-77.11 137,-78.23"/>
<polygon fill="#63b8ff" stroke="#63b8ff" points="165.91,-78.32 175.42,-73.66 165.08,-71.37 165.91,-78.32"/>
</a>
</g>
</g>
<!-- Node4 -->
<g id="Node000004" class="node">
<title>Node4</title>
<g id="a_Node000004"><a xlink:href="classmodbus_reg_bank.html#aef36ae9364a3aea6c2f3d88e13629673" target="_top" xlink:title="Write 32&#45;bit integer to two adjacent registers.">
<polygon fill="white" stroke="#666666" points="136.38,-58 4.88,-58 4.88,-38 136.38,-38 136.38,-58"/>
<text xml:space="preserve" text-anchor="middle" x="70.62" y="-44.5" font-family="Helvetica,sans-Serif" font-size="10.00">modbusRegBank::setLong</text>
</a>
</g>
</g>
<!-- Node1&#45;&gt;Node4 -->
<g id="edge3_Node000001_Node000004" class="edge">
<title>Node1&#45;&gt;Node4</title>
<g id="a_edge3_Node000001_Node000004"><a xlink:title=" ">
<path fill="none" stroke="#63b8ff" d="M165.5,-59.16C155.99,-58.03 146.21,-56.86 136.72,-55.74"/>
<polygon fill="#63b8ff" stroke="#63b8ff" points="165.08,-62.63 175.42,-60.34 165.91,-55.68 165.08,-62.63"/>
</a>
</g>
</g>
<!-- Node5 -->
<g id="Node000005" class="node">
<title>Node5</title>
<g id="a_Node000005"><a xlink:href="classmodbus_reg_bank.html#a8be65635073738d364c81b54f87b4ec8" target="_top" xlink:title="Write ASCII string (2 chars/register) starting at address.">
<polygon fill="white" stroke="#666666" points="138.62,-20 2.62,-20 2.62,0 138.62,0 138.62,-20"/>
<text xml:space="preserve" text-anchor="middle" x="70.62" y="-6.5" font-family="Helvetica,sans-Serif" font-size="10.00">modbusRegBank::setString</text>
</a>
</g>
</g>
<!-- Node1&#45;&gt;Node5 -->
<g id="edge4_Node000001_Node000005" class="edge">
<title>Node1&#45;&gt;Node5</title>
<g id="a_edge4_Node000001_Node000005"><a xlink:title=" ">
<path fill="none" stroke="#63b8ff" d="M198.72,-51.97C181.77,-44.51 160.63,-35.69 141.25,-29 132.37,-25.93 122.71,-23.03 113.5,-20.46"/>
<polygon fill="#63b8ff" stroke="#63b8ff" points="197.26,-55.14 207.81,-56.02 200.11,-48.75 197.26,-55.14"/>
</a>
</g>
</g>
</g>
</svg>
