<?xml version="1.0" encoding="UTF-8" standalone="no"?>
<!DOCTYPE svg PUBLIC "-//W3C//DTD SVG 1.1//EN"
 "http://www.w3.org/Graphics/SVG/1.1/DTD/svg11.dtd">
<!-- Generated by graphviz version 14.1.3 (20260303.0454)
 -->
<!-- Title: modbusRegBank::setFloat Pages: 1 -->
<svg width="289pt" height="66pt"
 viewBox="0.00 0.00 289.00 66.00" xmlns="http://www.w3.org/2000/svg" xmlns:xlink="http://www.w3.org/1999/xlink">
<g id="graph0" class="graph" transform="scale(1 1) rotate(0) translate(4 62)">
<title>modbusRegBank::setFloat</title>
<!-- Node1 -->
<g id="Node000001" class="node">
<title>Node1</title>
<g id="a_Node000001"><a xlink:title="Write 32&#45;bit float to two adjacent registers.">
<polygon fill="#999999" stroke="#666666" points="132.25,-39 0,-39 0,-19 132.25,-19 132.25,-39"/>
<text xml:space="preserve" text-anchor="middle" x="66.12" y="-25.5" font-family="Helvetica,sans-Serif" font-size="10.00">modbusRegBank::setFloat</text>
</a>
</g>
</g>
<!-- Node2 -->
<g id="Node000002" class="node">
<title>Node2</title>
<g id="a_Node000002"><a xlink:href="classmodbus_reg_bank.html#a66c95bd2897487bbb5e27b73b3279e56" target="_top" xlink:title="Check whether register exists.">
<polygon fill="white" stroke="#666666" points="281,-58 168.25,-58 168.25,-38 281,-38 281,-58"/>
<text xml:space="preserve" text-anchor="middle" x="224.62" y="-44.5" font-family="Helvetica,sans-Serif" font-size="10.00">modbusRegBank::has</text>
</a>
</g>
</g>
<!-- Node1&#45;&gt;Node2 -->
<g id="edge1_Node000001_Node000002" class="edge">
<title>Node1&#45;&gt;Node2</title>
<g id="a_edge1_Node000001_Node000002"><a xlink:title=" ">
<path fill="none" stroke="#63b8ff" d="M132.59,-36.95C140.56,-37.92 148.71,-38.9 156.7,-39.88"/>
<polygon fill="#63b8ff" stroke="#63b8ff" points="156.01,-43.32 166.35,-41.05 156.85,-36.37 156.01,-43.32"/>
</a>
</g>
</g>
<!-- Node3 -->
<g id="Node000003" class="node">
<title>Node3</title>
<g id="a_Node000003"><a xlink:href="classmodbus_reg_bank.html#a73657c19d92fc54cac8c5c61e32f0845" target="_top" xlink:title="Set register value.">
<polygon fill="white" stroke="#666666" points="279.88,-20 169.38,-20 169.38,0 279.88,0 279.88,-20"/>
<text xml:space="preserve" text-anchor="middle" x="224.62" y="-6.5" font-family="Helvetica,sans-Serif" font-size="10.00">modbusRegBank::set</text>
</a>
</g>
</g>
<!-- Node1&#45;&gt;Node3 -->
<g id="edge2_Node000001_Node000003" class="edge">
<title>Node1&#45;&gt;Node3</title>
<g id="a_edge2_Node000001_Node000003"><a xlink:title=" ">
<path fill="none" stroke="#63b8ff" d="M132.59,-21.05C141,-20.03 149.61,-18.99 158.02,-17.97"/>
<polygon fill="#63b8ff" stroke="#63b8ff" points="158.31,-21.45 167.82,-16.78 157.47,-14.51 158.31,-21.45"/>
</a>
</g>
</g>
</g>
</svg>
