<?xml version="1.0" encoding="UTF-8" standalone="no"?>
<!DOCTYPE svg PUBLIC "-//W3C//DTD SVG 1.1//EN"
 "http://www.w3.org/Graphics/SVG/1.1/DTD/svg11.dtd">
<!-- Generated by graphviz version 14.1.3 (20260303.0454)
 -->
<!-- Title: modbusSlave::calcCrc Pages: 1 -->
<svg width="316pt" height="180pt"
 viewBox="0.00 0.00 316.00 180.00" xmlns="http://www.w3.org/2000/svg" xmlns:xlink="http://www.w3.org/1999/xlink">
<g id="graph0" class="graph" transform="scale(1 1) rotate(0) translate(4 176)">
<title>modbusSlave::calcCrc</title>
<!-- Node1 -->
<g id="Node000001" class="node">
<title>Node1</title>
<g id="a_Node000001"><a xlink:title="Calculate CRC for current frame buffer.">
<polygon fill="#999999" stroke="#666666" points="308,-96 193,-96 193,-76 308,-76 308,-96"/>
<text xml:space="preserve" text-anchor="middle" x="250.5" y="-82.5" font-family="Helvetica,sans-Serif" font-size="10.00">modbusSlave::calcCrc</text>
</a>
</g>
</g>
<!-- Node2 -->
<g id="Node000002" class="node">
<title>Node2</title>
<g id="a_Node000002"><a xlink:href="classmodbus_slave.html#ac8418d8d2a62d7de5e82e5833bf4cee8" target="_top" xlink:title="Handle FC08 diagnostics subfunctions.">
<polygon fill="white" stroke="#666666" points="143.88,-172 13.12,-172 13.12,-152 143.88,-152 143.88,-172"/>
<text xml:space="preserve" text-anchor="middle" x="78.5" y="-158.5" font-family="Helvetica,sans-Serif" font-size="10.00">modbusSlave::diagnostics</text>
</a>
</g>
</g>
<!-- Node1&#45;&gt;Node2 -->
<g id="edge1_Node000001_Node000002" class="edge">
<title>Node1&#45;&gt;Node2</title>
<g id="a_edge1_Node000001_Node000002"><a xlink:title=" ">
<path fill="none" stroke="#63b8ff" d="M226.69,-102.87C208.6,-115.53 182.25,-132.43 157,-143 149.08,-146.32 140.45,-149.14 131.91,-151.52"/>
<polygon fill="#63b8ff" stroke="#63b8ff" points="228.49,-105.88 234.59,-97.22 224.42,-100.18 228.49,-105.88"/>
</a>
</g>
</g>
<!-- Node3 -->
<g id="Node000003" class="node">
<title>Node3</title>
<g id="a_Node000003"><a xlink:href="classmodbus_slave.html#aeb74fb9170b49430c60175b66db784d3" target="_top" xlink:title="Build analog status response payload.">
<polygon fill="white" stroke="#666666" points="155.12,-134 1.88,-134 1.88,-114 155.12,-114 155.12,-134"/>
<text xml:space="preserve" text-anchor="middle" x="78.5" y="-120.5" font-family="Helvetica,sans-Serif" font-size="10.00">modbusSlave::getAnalogStatus</text>
</a>
</g>
</g>
<!-- Node1&#45;&gt;Node3 -->
<g id="edge2_Node000001_Node000003" class="edge">
<title>Node1&#45;&gt;Node3</title>
<g id="a_edge2_Node000001_Node000003"><a xlink:title=" ">
<path fill="none" stroke="#63b8ff" d="M191.41,-98.98C170.15,-103.74 146.39,-109.05 126.25,-113.55"/>
<polygon fill="#63b8ff" stroke="#63b8ff" points="192.12,-102.41 201.12,-96.81 190.6,-95.58 192.12,-102.41"/>
</a>
</g>
</g>
<!-- Node4 -->
<g id="Node000004" class="node">
<title>Node4</title>
<g id="a_Node000004"><a xlink:href="classmodbus_slave.html#a5300a676840404ee04cddccfcc040280" target="_top" xlink:title="Build digital status response payload.">
<polygon fill="white" stroke="#666666" points="154,-96 3,-96 3,-76 154,-76 154,-96"/>
<text xml:space="preserve" text-anchor="middle" x="78.5" y="-82.5" font-family="Helvetica,sans-Serif" font-size="10.00">modbusSlave::getDigitalStatus</text>
</a>
</g>
</g>
<!-- Node1&#45;&gt;Node4 -->
<g id="edge3_Node000001_Node000004" class="edge">
<title>Node1&#45;&gt;Node4</title>
<g id="a_edge3_Node000001_Node000004"><a xlink:title=" ">
<path fill="none" stroke="#63b8ff" d="M181.67,-86C172.68,-86 163.42,-86 154.31,-86"/>
<polygon fill="#63b8ff" stroke="#63b8ff" points="181.38,-89.5 191.38,-86 181.38,-82.5 181.38,-89.5"/>
</a>
</g>
</g>
<!-- Node5 -->
<g id="Node000005" class="node">
<title>Node5</title>
<g id="a_Node000005"><a xlink:href="classmodbus_slave.html#a54d0d00d60eae2974a74e76a6a2c2a79" target="_top" xlink:title="Handle single&#45;write function payloads.">
<polygon fill="white" stroke="#666666" points="140.12,-58 16.88,-58 16.88,-38 140.12,-38 140.12,-58"/>
<text xml:space="preserve" text-anchor="middle" x="78.5" y="-44.5" font-family="Helvetica,sans-Serif" font-size="10.00">modbusSlave::setStatus</text>
</a>
</g>
</g>
<!-- Node1&#45;&gt;Node5 -->
<g id="edge4_Node000001_Node000005" class="edge">
<title>Node1&#45;&gt;Node5</title>
<g id="a_edge4_Node000001_Node000005"><a xlink:title=" ">
<path fill="none" stroke="#63b8ff" d="M191.41,-73.02C170.15,-68.26 146.39,-62.95 126.25,-58.45"/>
<polygon fill="#63b8ff" stroke="#63b8ff" points="190.6,-76.42 201.12,-75.19 192.12,-69.59 190.6,-76.42"/>
</a>
</g>
</g>
<!-- Node6 -->
<g id="Node000006" class="node">
<title>Node6</title>
<g id="a_Node000006"><a xlink:href="classmodbus_slave.html#a84354689ab5c2a67e67cb593793386a4" target="_top" xlink:title="Handle multi&#45;write function payloads.">
<polygon fill="white" stroke="#666666" points="157,-20 0,-20 0,0 157,0 157,-20"/>
<text xml:space="preserve" text-anchor="middle" x="78.5" y="-6.5" font-family="Helvetica,sans-Serif" font-size="10.00">modbusSlave::setStatusMultiple</text>
</a>
</g>
</g>
<!-- Node1&#45;&gt;Node6 -->
<g id="edge5_Node000001_Node000006" class="edge">
<title>Node1&#45;&gt;Node6</title>
<g id="a_edge5_Node000001_Node000006"><a xlink:title=" ">
<path fill="none" stroke="#63b8ff" d="M226.69,-69.13C208.6,-56.47 182.25,-39.57 157,-29 149.08,-25.68 140.45,-22.86 131.91,-20.48"/>
<polygon fill="#63b8ff" stroke="#63b8ff" points="224.42,-71.82 234.59,-74.78 228.49,-66.12 224.42,-71.82"/>
</a>
</g>
</g>
</g>
</svg>
