<?xml version="1.0" encoding="UTF-8" standalone="no"?>
<!DOCTYPE svg PUBLIC "-//W3C//DTD SVG 1.1//EN"
 "http://www.w3.org/Graphics/SVG/1.1/DTD/svg11.dtd">
<!-- Generated by graphviz version 14.1.3 (20260303.0454)
 -->
<!-- Title: modbusRegBank::get Pages: 1 -->
<svg width="297pt" height="142pt"
 viewBox="0.00 0.00 297.00 142.00" xmlns="http://www.w3.org/2000/svg" xmlns:xlink="http://www.w3.org/1999/xlink">

<svg id="main" version="1.1" xmlns="http://www.w3.org/2000/svg" xmlns:xlink="http://www.w3.org/1999/xlink" xml:space="preserve">

<style type="text/css"><![CDATA[
.node, .edge {opacity: 0.7;}
.node.selected, .edge.selected {opacity: 1;}
.edge:hover path { stroke: red; }
.edge:hover polygon { stroke: red; fill: red; }
]]></style>
<script type="application/ecmascript" xlink:href="svg.min.js"/>
<svg id="graph" class="graph">
<g id="graph0" class="graph" transform="scale(1 1) rotate(0) translate(4 138)">
<title>modbusRegBank::get</title>
<!-- Node1 -->
<g id="Node000001" class="node">
<title>Node1</title>
<g id="a_Node000001"><a xlink:title="Get register value or MODBUS_REG_NOT_FOUND when missing.">
<polygon fill="#999999" stroke="#666666" points="288.5,-77 178,-77 178,-57 288.5,-57 288.5,-77"/>
<text xml:space="preserve" text-anchor="middle" x="233.25" y="-63.5" font-family="Helvetica,sans-Serif" font-size="10.00">modbusRegBank::get</text>
</a>
</g>
</g>
<!-- Node2 -->
<g id="Node000002" class="node">
<title>Node2</title>
<g id="a_Node000002"><a xlink:href="classmodbus_reg_bank.html#a21c0fc6ab6831bcbb85aa872764309f8" target="_top" xlink:title="Atomic wrapper around get().">
<polygon fill="white" stroke="#666666" points="142,-134 0,-134 0,-114 142,-114 142,-134"/>
<text xml:space="preserve" text-anchor="middle" x="71" y="-120.5" font-family="Helvetica,sans-Serif" font-size="10.00">modbusRegBank::atomicGet</text>
</a>
</g>
</g>
<!-- Node1&#45;&gt;Node2 -->
<g id="edge1_Node000001_Node000002" class="edge">
<title>Node1&#45;&gt;Node2</title>
<g id="a_edge1_Node000001_Node000002"><a xlink:title=" ">
<path fill="none" stroke="#63b8ff" d="M199.48,-82.04C182.53,-89.5 161.38,-98.32 142,-105 133.07,-108.08 123.37,-110.98 114.1,-113.55"/>
<polygon fill="#63b8ff" stroke="#63b8ff" points="200.86,-85.26 208.57,-77.99 198.01,-78.87 200.86,-85.26"/>
</a>
</g>
</g>
<!-- Node3 -->
<g id="Node000003" class="node">
<title>Node3</title>
<g id="a_Node000003"><a xlink:href="classmodbus_reg_bank.html#a2b36921dcaf72e0a79ed841d43b5337b" target="_top" xlink:title="Read 32&#45;bit float from two adjacent registers.">
<polygon fill="white" stroke="#666666" points="137.12,-96 4.88,-96 4.88,-76 137.12,-76 137.12,-96"/>
<text xml:space="preserve" text-anchor="middle" x="71" y="-82.5" font-family="Helvetica,sans-Serif" font-size="10.00">modbusRegBank::getFloat</text>
</a>
</g>
</g>
<!-- Node1&#45;&gt;Node3 -->
<g id="edge2_Node000001_Node000003" class="edge">
<title>Node1&#45;&gt;Node3</title>
<g id="a_edge2_Node000001_Node000003"><a xlink:title=" ">
<path fill="none" stroke="#63b8ff" d="M166.18,-74.83C156.71,-75.96 146.98,-77.11 137.52,-78.23"/>
<polygon fill="#63b8ff" stroke="#63b8ff" points="166.53,-78.32 176.05,-73.66 165.7,-71.37 166.53,-78.32"/>
</a>
</g>
</g>
<!-- Node4 -->
<g id="Node000004" class="node">
<title>Node4</title>
<g id="a_Node000004"><a xlink:href="classmodbus_reg_bank.html#a7a2ca20b3fe3f1f7b03146980d01041e" target="_top" xlink:title="Read 32&#45;bit integer from two adjacent registers.">
<polygon fill="white" stroke="#666666" points="136.75,-58 5.25,-58 5.25,-38 136.75,-38 136.75,-58"/>
<text xml:space="preserve" text-anchor="middle" x="71" y="-44.5" font-family="Helvetica,sans-Serif" font-size="10.00">modbusRegBank::getLong</text>
</a>
</g>
</g>
<!-- Node1&#45;&gt;Node4 -->
<g id="edge3_Node000001_Node000004" class="edge">
<title>Node1&#45;&gt;Node4</title>
<g id="a_edge3_Node000001_Node000004"><a xlink:title=" ">
<path fill="none" stroke="#63b8ff" d="M166.41,-59.19C156.78,-58.05 146.86,-56.88 137.24,-55.74"/>
<polygon fill="#63b8ff" stroke="#63b8ff" points="165.7,-62.63 176.05,-60.34 166.53,-55.68 165.7,-62.63"/>
</a>
</g>
</g>
<!-- Node5 -->
<g id="Node000005" class="node">
<title>Node5</title>
<g id="a_Node000005"><a xlink:href="classmodbus_reg_bank.html#a0c7162ebf481e9f84f446ed4f3bf4963" target="_top" xlink:title="Read ASCII string from packed register area.">
<polygon fill="white" stroke="#666666" points="139,-20 3,-20 3,0 139,0 139,-20"/>
<text xml:space="preserve" text-anchor="middle" x="71" y="-6.5" font-family="Helvetica,sans-Serif" font-size="10.00">modbusRegBank::getString</text>
</a>
</g>
</g>
<!-- Node1&#45;&gt;Node5 -->
<g id="edge4_Node000001_Node000005" class="edge">
<title>Node1&#45;&gt;Node5</title>
<g id="a_edge4_Node000001_Node000005"><a xlink:title=" ">
<path fill="none" stroke="#63b8ff" d="M199.48,-51.96C182.53,-44.5 161.38,-35.68 142,-29 133.07,-25.92 123.37,-23.02 114.1,-20.45"/>
<polygon fill="#63b8ff" stroke="#63b8ff" points="198.01,-55.13 208.57,-56.01 200.86,-48.74 198.01,-55.13"/>
</a>
</g>
</g>
</g>
</svg>
</svg>

<style type='text/css'>
<![CDATA[
[data-mouse-over-selected='false'] { opacity: 0.7; }
[data-mouse-over-selected='true']  { opacity: 1.0; }
]]>
</style>
<script type="application/ecmascript"><![CDATA[
document.addEventListener('DOMContentLoaded', (event) => {
  highlightEdges();
  highlightAdjacentNodes();
});
]]></script>
</svg>
