<?xml version="1.0" encoding="UTF-8" standalone="no"?>
<!DOCTYPE svg PUBLIC "-//W3C//DTD SVG 1.1//EN"
 "http://www.w3.org/Graphics/SVG/1.1/DTD/svg11.dtd">
<!-- Generated by graphviz version 14.1.3 (20260303.0454)
 -->
<!-- Title: IndustrialTopology Pages: 1 -->
<!--zoomable 51 -->

<svg id="main" version="1.1" xmlns="http://www.w3.org/2000/svg" xmlns:xlink="http://www.w3.org/1999/xlink" xml:space="preserve" onload="init(evt)">

<style type="text/css"><![CDATA[
.node, .edge {opacity: 0.7;}
.node.selected, .edge.selected {opacity: 1;}
.edge:hover path { stroke: red; }
.edge:hover polygon { stroke: red; fill: red; }
]]></style>

<defs>
  <circle id="rim" cx="0" cy="0" r="7"/>
  <circle id="rim2" cx="0" cy="0" r="3.5"/>
  <g id="zoomPlus">
    <use xlink:href="#rim" fill="#404040"><set attributeName="fill" to="#808080" begin="zoomplus.mouseover" end="zoomplus.mouseout"/></use>
    <path d="M-4,0h8M0,-4v8" fill="none" stroke="white" stroke-width="1.5" pointer-events="none"/>
  </g>
  <g id="zoomMin">
    <use xlink:href="#rim" fill="#404040"><set attributeName="fill" to="#808080" begin="zoomminus.mouseover" end="zoomminus.mouseout"/></use>
    <path d="M-4,0h8" fill="none" stroke="white" stroke-width="1.5" pointer-events="none"/>
  </g>
  <g id="arrowUp" transform="translate(30 24)">
    <use xlink:href="#rim"/>
    <path pointer-events="none" fill="none" stroke="white" stroke-width="1.5" d="M0,-3.0v7 M-2.5,-0.5L0,-3.0L2.5,-0.5"/>
  </g>
  <g id="arrowRight" transform="rotate(90) translate(36 -43)">
    <use xlink:href="#rim"/>
    <path pointer-events="none" fill="none" stroke="white" stroke-width="1.5" d="M0,-3.0v7 M-2.5,-0.5L0,-3.0L2.5,-0.5"/>
  </g>
  <g id="arrowDown" transform="rotate(180) translate(-30 -48)">
    <use xlink:href="#rim"/>
    <path pointer-events="none" fill="none" stroke="white" stroke-width="1.5" d="M0,-3.0v7 M-2.5,-0.5L0,-3.0L2.5,-0.5"/>
  </g>
  <g id="arrowLeft" transform="rotate(270) translate(-36 17)">
    <use xlink:href="#rim"/>
    <path pointer-events="none" fill="none" stroke="white" stroke-width="1.5" d="M0,-3.0v7 M-2.5,-0.5L0,-3.0L2.5,-0.5"/>
  </g>
  <g id="resetDef">
    <use xlink:href="#rim2" fill="#404040"><set attributeName="fill" to="#808080" begin="reset.mouseover" end="reset.mouseout"/></use>
  </g>
</defs>
<script type="application/ecmascript">
var viewWidth = 833;
var viewHeight = 51;
</script>
<script type="application/ecmascript" xlink:href="svg.min.js"/>
<svg id="graph" class="graph">
<g id="viewport">
<title>IndustrialTopology</title>
<polygon fill="white" stroke="none" points="-4,4 -4,-46.79 829.25,-46.79 829.25,4 -4,4"/>
<!-- Master -->
<g id="node1" class="node">
<title>Master</title>
<path fill="#f2f2f2" stroke="black" d="M89.5,-42.79C89.5,-42.79 12,-42.79 12,-42.79 6,-42.79 0,-36.79 0,-30.79 0,-30.79 0,-18.79 0,-18.79 0,-12.79 6,-6.79 12,-6.79 12,-6.79 89.5,-6.79 89.5,-6.79 95.5,-6.79 101.5,-12.79 101.5,-18.79 101.5,-18.79 101.5,-30.79 101.5,-30.79 101.5,-36.79 95.5,-42.79 89.5,-42.79"/>
<text xml:space="preserve" text-anchor="middle" x="50.75" y="-27.29" font-family="Helvetica,sans-Serif" font-size="10.00">Master</text>
<text xml:space="preserve" text-anchor="middle" x="50.75" y="-15.29" font-family="Helvetica,sans-Serif" font-size="10.00">(PLC/SCADA/HMI)</text>
</g>
<!-- Line -->
<g id="node2" class="node">
<title>Line</title>
<path fill="#e6f2ff" stroke="black" d="M328.25,-42.79C328.25,-42.79 229,-42.79 229,-42.79 223,-42.79 217,-36.79 217,-30.79 217,-30.79 217,-18.79 217,-18.79 217,-12.79 223,-6.79 229,-6.79 229,-6.79 328.25,-6.79 328.25,-6.79 334.25,-6.79 340.25,-12.79 340.25,-18.79 340.25,-18.79 340.25,-30.79 340.25,-30.79 340.25,-36.79 334.25,-42.79 328.25,-42.79"/>
<text xml:space="preserve" text-anchor="middle" x="278.62" y="-21.29" font-family="Helvetica,sans-Serif" font-size="10.00">RS485 Bus / UART Link</text>
</g>
<!-- Master&#45;&gt;Line -->
<g id="edge1" class="edge">
<title>Master&#45;&gt;Line</title>
<path fill="none" stroke="black" d="M101.88,-24.79C132.36,-24.79 171.78,-24.79 205.56,-24.79"/>
<polygon fill="black" stroke="black" points="205.27,-28.29 215.27,-24.79 205.27,-21.29 205.27,-28.29"/>
<text xml:space="preserve" text-anchor="middle" x="159.25" y="-27.99" font-family="Times New Roman,serif" font-size="14.00">Request frame</text>
</g>
<!-- Line&#45;&gt;Master -->
<g id="edge6" class="edge">
<title>Line&#45;&gt;Master</title>
<path fill="none" stroke="black" d="M216.54,-7.25C210.65,-6.05 204.74,-5.02 199,-4.29 163.95,0.21 154.45,0.89 119.5,-4.29 117.31,-4.61 115.1,-4.99 112.87,-5.41"/>
<polygon fill="black" stroke="black" points="112.18,-1.98 103.17,-7.56 113.69,-8.82 112.18,-1.98"/>
<text xml:space="preserve" text-anchor="middle" x="159.25" y="-7.49" font-family="Times New Roman,serif" font-size="14.00">reply</text>
</g>
<!-- Slave -->
<g id="node3" class="node">
<title>Slave</title>
<path fill="#e6ffe6" stroke="black" d="M530.25,-42.79C530.25,-42.79 471.5,-42.79 471.5,-42.79 465.5,-42.79 459.5,-36.79 459.5,-30.79 459.5,-30.79 459.5,-18.79 459.5,-18.79 459.5,-12.79 465.5,-6.79 471.5,-6.79 471.5,-6.79 530.25,-6.79 530.25,-6.79 536.25,-6.79 542.25,-12.79 542.25,-18.79 542.25,-18.79 542.25,-30.79 542.25,-30.79 542.25,-36.79 536.25,-42.79 530.25,-42.79"/>
<text xml:space="preserve" text-anchor="middle" x="500.88" y="-27.29" font-family="Helvetica,sans-Serif" font-size="10.00">Arduino Device</text>
<text xml:space="preserve" text-anchor="middle" x="500.88" y="-15.29" font-family="Helvetica,sans-Serif" font-size="10.00">modbusSlave</text>
</g>
<!-- Line&#45;&gt;Slave -->
<g id="edge2" class="edge">
<title>Line&#45;&gt;Slave</title>
<path fill="none" stroke="black" d="M340.68,-24.79C374.36,-24.79 415.73,-24.79 447.85,-24.79"/>
<polygon fill="black" stroke="black" points="447.73,-28.29 457.73,-24.79 447.73,-21.29 447.73,-28.29"/>
<text xml:space="preserve" text-anchor="middle" x="399.88" y="-27.99" font-family="Times New Roman,serif" font-size="14.00">byte stream</text>
</g>
<!-- Slave&#45;&gt;Line -->
<g id="edge5" class="edge">
<title>Slave&#45;&gt;Line</title>
<path fill="none" stroke="black" d="M459.2,-8.55C453.34,-6.79 447.32,-5.28 441.5,-4.29 405.03,1.93 394.95,0.42 358.25,-4.29 356.19,-4.55 354.1,-4.85 352.01,-5.19"/>
<polygon fill="black" stroke="black" points="351.4,-1.74 342.2,-6.98 352.66,-8.62 351.4,-1.74"/>
<text xml:space="preserve" text-anchor="middle" x="399.88" y="-7.49" font-family="Times New Roman,serif" font-size="14.00">response frame</text>
</g>
<!-- Model -->
<g id="node4" class="node">
<title>Model</title>
<path fill="#fff5e6" stroke="black" d="M813.25,-42.79C813.25,-42.79 669,-42.79 669,-42.79 663,-42.79 657,-36.79 657,-30.79 657,-30.79 657,-18.79 657,-18.79 657,-12.79 663,-6.79 669,-6.79 669,-6.79 813.25,-6.79 813.25,-6.79 819.25,-6.79 825.25,-12.79 825.25,-18.79 825.25,-18.79 825.25,-30.79 825.25,-30.79 825.25,-36.79 819.25,-42.79 813.25,-42.79"/>
<text xml:space="preserve" text-anchor="middle" x="741.12" y="-27.29" font-family="Helvetica,sans-Serif" font-size="10.00">Register Model</text>
<text xml:space="preserve" text-anchor="middle" x="741.12" y="-15.29" font-family="Helvetica,sans-Serif" font-size="10.00">modbusDevice + modbusRegBank</text>
</g>
<!-- Slave&#45;&gt;Model -->
<g id="edge3" class="edge">
<title>Slave&#45;&gt;Model</title>
<path fill="none" stroke="black" d="M542.56,-24.79C570.74,-24.79 609.47,-24.79 645.17,-24.79"/>
<polygon fill="black" stroke="black" points="645.13,-28.29 655.13,-24.79 645.13,-21.29 645.13,-28.29"/>
<text xml:space="preserve" text-anchor="middle" x="599.62" y="-27.99" font-family="Times New Roman,serif" font-size="14.00">parse + access</text>
</g>
<!-- Model&#45;&gt;Slave -->
<g id="edge4" class="edge">
<title>Model&#45;&gt;Slave</title>
<path fill="none" stroke="black" d="M661.95,-6.29C630.27,-1.29 593.4,1.37 560.25,-4.29 558.07,-4.66 555.86,-5.1 553.64,-5.61"/>
<polygon fill="black" stroke="black" points="552.78,-2.21 544.02,-8.16 554.58,-8.98 552.78,-2.21"/>
<text xml:space="preserve" text-anchor="middle" x="599.62" y="-7.49" font-family="Times New Roman,serif" font-size="14.00">data/flags</text>
</g>
</g>
</svg>

<g id="navigator" transform="translate(0 0)" fill="#404254">
  <rect fill="#f2f5e9" fill-opacity="0.5" stroke="#606060" stroke-width=".5" x="0" y="0" width="60" height="60"/>
  <use id="zoomplus" xlink:href="#zoomPlus" x="17" y="9" onmousedown="handleZoom(evt,'in')"/>
  <use id="zoomminus" xlink:href="#zoomMin" x="42" y="9" onmousedown="handleZoom(evt,'out')"/>
  <use id="reset" xlink:href="#resetDef" x="30" y="36" onmousedown="handleReset()"/>
   <use id="arrowup" xlink:href="#arrowUp" x="0" y="0" onmousedown="handlePan(0,-1)"/>
  <use id="arrowright" xlink:href="#arrowRight" x="0" y="0" onmousedown="handlePan(1,0)"/>
  <use id="arrowdown" xlink:href="#arrowDown" x="0" y="0" onmousedown="handlePan(0,1)"/>
  <use id="arrowleft" xlink:href="#arrowLeft" x="0" y="0" onmousedown="handlePan(-1,0)"/>
</g>
<svg viewBox="0 0 15 15" width="100%" height="30px" preserveAspectRatio="xMaxYMin meet">
 <g id="arrow_out" transform="scale(0.3 0.3)">
  <a xlink:href="dot_inline_dotgraph_41458be1161b3255c79ae4a3d04bf1a5_org.svg" target="_base">
   <rect id="button" ry="5" rx="5" y="6" x="6" height="38" width="38"
        fill="#f2f5e9" fill-opacity="0.5" stroke="#606060" stroke-width="1.0"/>
   <path id="arrow"
     d="M 11.500037,31.436501 C 11.940474,20.09759 22.043105,11.32322 32.158766,21.979434 L 37.068811,17.246167 C 37.068811,17.246167 37.088388,32 37.088388,32 L 22.160133,31.978069 C 22.160133,31.978069 26.997745,27.140456 26.997745,27.140456 C 18.528582,18.264221 13.291696,25.230495 11.500037,31.436501 z"
     style="fill:#404040;"/>
  </a>
 </g>
</svg>

<style type='text/css'>
<![CDATA[
[data-mouse-over-selected='false'] { opacity: 0.7; }
[data-mouse-over-selected='true']  { opacity: 1.0; }
]]>
</style>
<script type="application/ecmascript"><![CDATA[
document.addEventListener('DOMContentLoaded', (event) => {
  highlightEdges();
  highlightAdjacentNodes();
});
]]></script>
</svg>
