<?xml version="1.0" encoding="UTF-8" standalone="no"?>
<!DOCTYPE svg PUBLIC "-//W3C//DTD SVG 1.1//EN"
 "http://www.w3.org/Graphics/SVG/1.1/DTD/svg11.dtd">
<!-- Generated by graphviz version 14.1.3 (20260303.0454)
 -->
<!-- Title: MainBlock Pages: 1 -->
<svg width="822pt" height="53pt"
 viewBox="0.00 0.00 822.00 53.00" xmlns="http://www.w3.org/2000/svg" xmlns:xlink="http://www.w3.org/1999/xlink">
<g id="graph0" class="graph" transform="scale(1 1) rotate(0) translate(4 49.43)">
<title>MainBlock</title>
<polygon fill="white" stroke="none" points="-4,4 -4,-49.43 818,-49.43 818,4 -4,4"/>
<!-- Master -->
<g id="node1" class="node">
<title>Master</title>
<path fill="#f2f2f2" stroke="black" d="M85,-45.43C85,-45.43 12,-45.43 12,-45.43 6,-45.43 0,-39.43 0,-33.43 0,-33.43 0,-21.43 0,-21.43 0,-15.43 6,-9.43 12,-9.43 12,-9.43 85,-9.43 85,-9.43 91,-9.43 97,-15.43 97,-21.43 97,-21.43 97,-33.43 97,-33.43 97,-39.43 91,-45.43 85,-45.43"/>
<text xml:space="preserve" text-anchor="middle" x="48.5" y="-29.93" font-family="Helvetica,sans-Serif" font-size="10.00">Modbus Master</text>
<text xml:space="preserve" text-anchor="middle" x="48.5" y="-17.93" font-family="Helvetica,sans-Serif" font-size="10.00">(PLC/SCADA/PC)</text>
</g>
<!-- RS485 -->
<g id="node2" class="node">
<title>RS485</title>
<path fill="#e6f2ff" stroke="black" d="M335.75,-45.43C335.75,-45.43 254.5,-45.43 254.5,-45.43 248.5,-45.43 242.5,-39.43 242.5,-33.43 242.5,-33.43 242.5,-21.43 242.5,-21.43 242.5,-15.43 248.5,-9.43 254.5,-9.43 254.5,-9.43 335.75,-9.43 335.75,-9.43 341.75,-9.43 347.75,-15.43 347.75,-21.43 347.75,-21.43 347.75,-33.43 347.75,-33.43 347.75,-39.43 341.75,-45.43 335.75,-45.43"/>
<text xml:space="preserve" text-anchor="middle" x="295.12" y="-29.93" font-family="Helvetica,sans-Serif" font-size="10.00">RS485 Transceiver</text>
<text xml:space="preserve" text-anchor="middle" x="295.12" y="-17.93" font-family="Helvetica,sans-Serif" font-size="10.00">(MAX485/MAX3485)</text>
</g>
<!-- Master&#45;&gt;RS485 -->
<g id="edge1" class="edge">
<title>Master&#45;&gt;RS485</title>
<path fill="none" stroke="black" d="M97.25,-27.43C135.38,-27.43 189.14,-27.43 230.85,-27.43"/>
<polygon fill="black" stroke="black" points="230.76,-30.93 240.76,-27.43 230.76,-23.93 230.76,-30.93"/>
<text xml:space="preserve" text-anchor="middle" x="169.75" y="-30.63" font-family="Times New Roman,serif" font-size="14.00">RTU/ASCII Frames</text>
</g>
<!-- RS485&#45;&gt;Master -->
<g id="edge6" class="edge">
<title>RS485&#45;&gt;Master</title>
<path fill="none" stroke="black" d="M242.02,-10.35C236.16,-8.95 230.24,-7.76 224.5,-6.93 176.33,0.01 163.11,0.42 115,-6.93 112.84,-7.26 110.64,-7.65 108.44,-8.09"/>
<polygon fill="black" stroke="black" points="107.84,-4.64 98.87,-10.29 109.4,-11.46 107.84,-4.64"/>
<text xml:space="preserve" text-anchor="middle" x="169.75" y="-10.13" font-family="Times New Roman,serif" font-size="14.00">Bus reply</text>
</g>
<!-- Slave -->
<g id="node3" class="node">
<title>Slave</title>
<path fill="#e6ffe6" stroke="black" d="M540.75,-45.43C540.75,-45.43 483.5,-45.43 483.5,-45.43 477.5,-45.43 471.5,-39.43 471.5,-33.43 471.5,-33.43 471.5,-21.43 471.5,-21.43 471.5,-15.43 477.5,-9.43 483.5,-9.43 483.5,-9.43 540.75,-9.43 540.75,-9.43 546.75,-9.43 552.75,-15.43 552.75,-21.43 552.75,-21.43 552.75,-33.43 552.75,-33.43 552.75,-39.43 546.75,-45.43 540.75,-45.43"/>
<text xml:space="preserve" text-anchor="middle" x="512.12" y="-29.93" font-family="Helvetica,sans-Serif" font-size="10.00">Arduino</text>
<text xml:space="preserve" text-anchor="middle" x="512.12" y="-17.93" font-family="Helvetica,sans-Serif" font-size="10.00">(modbusSlave)</text>
</g>
<!-- RS485&#45;&gt;Slave -->
<g id="edge2" class="edge">
<title>RS485&#45;&gt;Slave</title>
<path fill="none" stroke="black" d="M348.17,-27.43C381.97,-27.43 425.83,-27.43 459.54,-27.43"/>
<polygon fill="black" stroke="black" points="459.49,-30.93 469.49,-27.43 459.49,-23.93 459.49,-30.93"/>
<text xml:space="preserve" text-anchor="middle" x="409.62" y="-30.63" font-family="Times New Roman,serif" font-size="14.00">UART bytes</text>
</g>
<!-- Slave&#45;&gt;RS485 -->
<g id="edge5" class="edge">
<title>Slave&#45;&gt;RS485</title>
<path fill="none" stroke="black" d="M471.3,-11.3C465.41,-9.49 459.36,-7.94 453.5,-6.93 415.07,-0.3 404.35,-1.37 365.75,-6.93 363.6,-7.24 361.42,-7.6 359.23,-8.01"/>
<polygon fill="black" stroke="black" points="358.76,-4.53 349.71,-10.03 360.22,-11.38 358.76,-4.53"/>
<text xml:space="preserve" text-anchor="middle" x="409.62" y="-10.13" font-family="Times New Roman,serif" font-size="14.00">Response frame</text>
</g>
<!-- Regs -->
<g id="node4" class="node">
<title>Regs</title>
<path fill="#fff5e6" stroke="black" d="M802,-45.43C802,-45.43 729,-45.43 729,-45.43 723,-45.43 717,-39.43 717,-33.43 717,-33.43 717,-21.43 717,-21.43 717,-15.43 723,-9.43 729,-9.43 729,-9.43 802,-9.43 802,-9.43 808,-9.43 814,-15.43 814,-21.43 814,-21.43 814,-33.43 814,-33.43 814,-39.43 808,-45.43 802,-45.43"/>
<text xml:space="preserve" text-anchor="middle" x="765.5" y="-29.93" font-family="Helvetica,sans-Serif" font-size="10.00">Register Bank</text>
<text xml:space="preserve" text-anchor="middle" x="765.5" y="-17.93" font-family="Helvetica,sans-Serif" font-size="10.00">(modbusRegBank)</text>
</g>
<!-- Slave&#45;&gt;Regs -->
<g id="edge3" class="edge">
<title>Slave&#45;&gt;Regs</title>
<path fill="none" stroke="black" d="M553.23,-27.43C594.34,-27.43 658.7,-27.43 705.59,-27.43"/>
<polygon fill="black" stroke="black" points="705.3,-30.93 715.3,-27.43 705.3,-23.93 705.3,-30.93"/>
<text xml:space="preserve" text-anchor="middle" x="634.88" y="-30.63" font-family="Times New Roman,serif" font-size="14.00">Read/Write + callbacks</text>
</g>
<!-- Regs&#45;&gt;Slave -->
<g id="edge4" class="edge">
<title>Regs&#45;&gt;Slave</title>
<path fill="none" stroke="black" d="M716.6,-10.63C710.73,-9.11 704.77,-7.81 699,-6.93 642.65,1.68 626.92,2.76 570.75,-6.93 568.46,-7.33 566.14,-7.8 563.82,-8.35"/>
<polygon fill="black" stroke="black" points="563.15,-4.9 554.42,-10.9 564.98,-11.66 563.15,-4.9"/>
<text xml:space="preserve" text-anchor="middle" x="634.88" y="-10.13" font-family="Times New Roman,serif" font-size="14.00">Response data</text>
</g>
</g>
</svg>
