<?xml version="1.0" encoding="UTF-8" standalone="no"?>
<!DOCTYPE svg PUBLIC "-//W3C//DTD SVG 1.1//EN"
 "http://www.w3.org/Graphics/SVG/1.1/DTD/svg11.dtd">
<!-- Generated by graphviz version 14.1.3 (20260303.0454)
 -->
<!-- Title: MainBlock Pages: 1 -->
<!--zoomable 53 -->

<svg id="main" version="1.1" xmlns="http://www.w3.org/2000/svg" xmlns:xlink="http://www.w3.org/1999/xlink" xml:space="preserve" onload="init(evt)">

<style type="text/css"><![CDATA[
.node, .edge {opacity: 0.7;}
.node.selected, .edge.selected {opacity: 1;}
.edge:hover path { stroke: red; }
.edge:hover polygon { stroke: red; fill: red; }
]]></style>

<defs>
  <circle id="rim" cx="0" cy="0" r="7"/>
  <circle id="rim2" cx="0" cy="0" r="3.5"/>
  <g id="zoomPlus">
    <use xlink:href="#rim" fill="#404040"><set attributeName="fill" to="#808080" begin="zoomplus.mouseover" end="zoomplus.mouseout"/></use>
    <path d="M-4,0h8M0,-4v8" fill="none" stroke="white" stroke-width="1.5" pointer-events="none"/>
  </g>
  <g id="zoomMin">
    <use xlink:href="#rim" fill="#404040"><set attributeName="fill" to="#808080" begin="zoomminus.mouseover" end="zoomminus.mouseout"/></use>
    <path d="M-4,0h8" fill="none" stroke="white" stroke-width="1.5" pointer-events="none"/>
  </g>
  <g id="arrowUp" transform="translate(30 24)">
    <use xlink:href="#rim"/>
    <path pointer-events="none" fill="none" stroke="white" stroke-width="1.5" d="M0,-3.0v7 M-2.5,-0.5L0,-3.0L2.5,-0.5"/>
  </g>
  <g id="arrowRight" transform="rotate(90) translate(36 -43)">
    <use xlink:href="#rim"/>
    <path pointer-events="none" fill="none" stroke="white" stroke-width="1.5" d="M0,-3.0v7 M-2.5,-0.5L0,-3.0L2.5,-0.5"/>
  </g>
  <g id="arrowDown" transform="rotate(180) translate(-30 -48)">
    <use xlink:href="#rim"/>
    <path pointer-events="none" fill="none" stroke="white" stroke-width="1.5" d="M0,-3.0v7 M-2.5,-0.5L0,-3.0L2.5,-0.5"/>
  </g>
  <g id="arrowLeft" transform="rotate(270) translate(-36 17)">
    <use xlink:href="#rim"/>
    <path pointer-events="none" fill="none" stroke="white" stroke-width="1.5" d="M0,-3.0v7 M-2.5,-0.5L0,-3.0L2.5,-0.5"/>
  </g>
  <g id="resetDef">
    <use xlink:href="#rim2" fill="#404040"><set attributeName="fill" to="#808080" begin="reset.mouseover" end="reset.mouseout"/></use>
  </g>
</defs>
<script type="application/ecmascript">
var viewWidth = 822;
var viewHeight = 53;
</script>
<script type="application/ecmascript" xlink:href="svg.min.js"/>
<svg id="graph" class="graph">
<g id="viewport">
<title>MainBlock</title>
<polygon fill="white" stroke="none" points="-4,4 -4,-49.43 818,-49.43 818,4 -4,4"/>
<!-- Master -->
<g id="node1" class="node">
<title>Master</title>
<path fill="#f2f2f2" stroke="black" d="M85,-45.43C85,-45.43 12,-45.43 12,-45.43 6,-45.43 0,-39.43 0,-33.43 0,-33.43 0,-21.43 0,-21.43 0,-15.43 6,-9.43 12,-9.43 12,-9.43 85,-9.43 85,-9.43 91,-9.43 97,-15.43 97,-21.43 97,-21.43 97,-33.43 97,-33.43 97,-39.43 91,-45.43 85,-45.43"/>
<text xml:space="preserve" text-anchor="middle" x="48.5" y="-29.93" font-family="Helvetica,sans-Serif" font-size="10.00">Modbus Master</text>
<text xml:space="preserve" text-anchor="middle" x="48.5" y="-17.93" font-family="Helvetica,sans-Serif" font-size="10.00">(PLC/SCADA/PC)</text>
</g>
<!-- RS485 -->
<g id="node2" class="node">
<title>RS485</title>
<path fill="#e6f2ff" stroke="black" d="M335.75,-45.43C335.75,-45.43 254.5,-45.43 254.5,-45.43 248.5,-45.43 242.5,-39.43 242.5,-33.43 242.5,-33.43 242.5,-21.43 242.5,-21.43 242.5,-15.43 248.5,-9.43 254.5,-9.43 254.5,-9.43 335.75,-9.43 335.75,-9.43 341.75,-9.43 347.75,-15.43 347.75,-21.43 347.75,-21.43 347.75,-33.43 347.75,-33.43 347.75,-39.43 341.75,-45.43 335.75,-45.43"/>
<text xml:space="preserve" text-anchor="middle" x="295.12" y="-29.93" font-family="Helvetica,sans-Serif" font-size="10.00">RS485 Transceiver</text>
<text xml:space="preserve" text-anchor="middle" x="295.12" y="-17.93" font-family="Helvetica,sans-Serif" font-size="10.00">(MAX485/MAX3485)</text>
</g>
<!-- Master&#45;&gt;RS485 -->
<g id="edge1" class="edge">
<title>Master&#45;&gt;RS485</title>
<path fill="none" stroke="black" d="M97.25,-27.43C135.38,-27.43 189.14,-27.43 230.85,-27.43"/>
<polygon fill="black" stroke="black" points="230.76,-30.93 240.76,-27.43 230.76,-23.93 230.76,-30.93"/>
<text xml:space="preserve" text-anchor="middle" x="169.75" y="-30.63" font-family="Times New Roman,serif" font-size="14.00">RTU/ASCII Frames</text>
</g>
<!-- RS485&#45;&gt;Master -->
<g id="edge6" class="edge">
<title>RS485&#45;&gt;Master</title>
<path fill="none" stroke="black" d="M242.02,-10.35C236.16,-8.95 230.24,-7.76 224.5,-6.93 176.33,0.01 163.11,0.42 115,-6.93 112.84,-7.26 110.64,-7.65 108.44,-8.09"/>
<polygon fill="black" stroke="black" points="107.84,-4.64 98.87,-10.29 109.4,-11.46 107.84,-4.64"/>
<text xml:space="preserve" text-anchor="middle" x="169.75" y="-10.13" font-family="Times New Roman,serif" font-size="14.00">Bus reply</text>
</g>
<!-- Slave -->
<g id="node3" class="node">
<title>Slave</title>
<path fill="#e6ffe6" stroke="black" d="M540.75,-45.43C540.75,-45.43 483.5,-45.43 483.5,-45.43 477.5,-45.43 471.5,-39.43 471.5,-33.43 471.5,-33.43 471.5,-21.43 471.5,-21.43 471.5,-15.43 477.5,-9.43 483.5,-9.43 483.5,-9.43 540.75,-9.43 540.75,-9.43 546.75,-9.43 552.75,-15.43 552.75,-21.43 552.75,-21.43 552.75,-33.43 552.75,-33.43 552.75,-39.43 546.75,-45.43 540.75,-45.43"/>
<text xml:space="preserve" text-anchor="middle" x="512.12" y="-29.93" font-family="Helvetica,sans-Serif" font-size="10.00">Arduino</text>
<text xml:space="preserve" text-anchor="middle" x="512.12" y="-17.93" font-family="Helvetica,sans-Serif" font-size="10.00">(modbusSlave)</text>
</g>
<!-- RS485&#45;&gt;Slave -->
<g id="edge2" class="edge">
<title>RS485&#45;&gt;Slave</title>
<path fill="none" stroke="black" d="M348.17,-27.43C381.97,-27.43 425.83,-27.43 459.54,-27.43"/>
<polygon fill="black" stroke="black" points="459.49,-30.93 469.49,-27.43 459.49,-23.93 459.49,-30.93"/>
<text xml:space="preserve" text-anchor="middle" x="409.62" y="-30.63" font-family="Times New Roman,serif" font-size="14.00">UART bytes</text>
</g>
<!-- Slave&#45;&gt;RS485 -->
<g id="edge5" class="edge">
<title>Slave&#45;&gt;RS485</title>
<path fill="none" stroke="black" d="M471.3,-11.3C465.41,-9.49 459.36,-7.94 453.5,-6.93 415.07,-0.3 404.35,-1.37 365.75,-6.93 363.6,-7.24 361.42,-7.6 359.23,-8.01"/>
<polygon fill="black" stroke="black" points="358.76,-4.53 349.71,-10.03 360.22,-11.38 358.76,-4.53"/>
<text xml:space="preserve" text-anchor="middle" x="409.62" y="-10.13" font-family="Times New Roman,serif" font-size="14.00">Response frame</text>
</g>
<!-- Regs -->
<g id="node4" class="node">
<title>Regs</title>
<path fill="#fff5e6" stroke="black" d="M802,-45.43C802,-45.43 729,-45.43 729,-45.43 723,-45.43 717,-39.43 717,-33.43 717,-33.43 717,-21.43 717,-21.43 717,-15.43 723,-9.43 729,-9.43 729,-9.43 802,-9.43 802,-9.43 808,-9.43 814,-15.43 814,-21.43 814,-21.43 814,-33.43 814,-33.43 814,-39.43 808,-45.43 802,-45.43"/>
<text xml:space="preserve" text-anchor="middle" x="765.5" y="-29.93" font-family="Helvetica,sans-Serif" font-size="10.00">Register Bank</text>
<text xml:space="preserve" text-anchor="middle" x="765.5" y="-17.93" font-family="Helvetica,sans-Serif" font-size="10.00">(modbusRegBank)</text>
</g>
<!-- Slave&#45;&gt;Regs -->
<g id="edge3" class="edge">
<title>Slave&#45;&gt;Regs</title>
<path fill="none" stroke="black" d="M553.23,-27.43C594.34,-27.43 658.7,-27.43 705.59,-27.43"/>
<polygon fill="black" stroke="black" points="705.3,-30.93 715.3,-27.43 705.3,-23.93 705.3,-30.93"/>
<text xml:space="preserve" text-anchor="middle" x="634.88" y="-30.63" font-family="Times New Roman,serif" font-size="14.00">Read/Write + callbacks</text>
</g>
<!-- Regs&#45;&gt;Slave -->
<g id="edge4" class="edge">
<title>Regs&#45;&gt;Slave</title>
<path fill="none" stroke="black" d="M716.6,-10.63C710.73,-9.11 704.77,-7.81 699,-6.93 642.65,1.68 626.92,2.76 570.75,-6.93 568.46,-7.33 566.14,-7.8 563.82,-8.35"/>
<polygon fill="black" stroke="black" points="563.15,-4.9 554.42,-10.9 564.98,-11.66 563.15,-4.9"/>
<text xml:space="preserve" text-anchor="middle" x="634.88" y="-10.13" font-family="Times New Roman,serif" font-size="14.00">Response data</text>
</g>
</g>
</svg>

<g id="navigator" transform="translate(0 0)" fill="#404254">
  <rect fill="#f2f5e9" fill-opacity="0.5" stroke="#606060" stroke-width=".5" x="0" y="0" width="60" height="60"/>
  <use id="zoomplus" xlink:href="#zoomPlus" x="17" y="9" onmousedown="handleZoom(evt,'in')"/>
  <use id="zoomminus" xlink:href="#zoomMin" x="42" y="9" onmousedown="handleZoom(evt,'out')"/>
  <use id="reset" xlink:href="#resetDef" x="30" y="36" onmousedown="handleReset()"/>
   <use id="arrowup" xlink:href="#arrowUp" x="0" y="0" onmousedown="handlePan(0,-1)"/>
  <use id="arrowright" xlink:href="#arrowRight" x="0" y="0" onmousedown="handlePan(1,0)"/>
  <use id="arrowdown" xlink:href="#arrowDown" x="0" y="0" onmousedown="handlePan(0,1)"/>
  <use id="arrowleft" xlink:href="#arrowLeft" x="0" y="0" onmousedown="handlePan(-1,0)"/>
</g>
<svg viewBox="0 0 15 15" width="100%" height="30px" preserveAspectRatio="xMaxYMin meet">
 <g id="arrow_out" transform="scale(0.3 0.3)">
  <a xlink:href="dot_inline_dotgraph_67aab0e1ce8e88de48ebb98f721152f7_org.svg" target="_base">
   <rect id="button" ry="5" rx="5" y="6" x="6" height="38" width="38"
        fill="#f2f5e9" fill-opacity="0.5" stroke="#606060" stroke-width="1.0"/>
   <path id="arrow"
     d="M 11.500037,31.436501 C 11.940474,20.09759 22.043105,11.32322 32.158766,21.979434 L 37.068811,17.246167 C 37.068811,17.246167 37.088388,32 37.088388,32 L 22.160133,31.978069 C 22.160133,31.978069 26.997745,27.140456 26.997745,27.140456 C 18.528582,18.264221 13.291696,25.230495 11.500037,31.436501 z"
     style="fill:#404040;"/>
  </a>
 </g>
</svg>

<style type='text/css'>
<![CDATA[
[data-mouse-over-selected='false'] { opacity: 0.7; }
[data-mouse-over-selected='true']  { opacity: 1.0; }
]]>
</style>
<script type="application/ecmascript"><![CDATA[
document.addEventListener('DOMContentLoaded', (event) => {
  highlightEdges();
  highlightAdjacentNodes();
});
]]></script>
</svg>
