<?xml version="1.0" encoding="UTF-8" standalone="no"?>
<!DOCTYPE svg PUBLIC "-//W3C//DTD SVG 1.1//EN"
 "http://www.w3.org/Graphics/SVG/1.1/DTD/svg11.dtd">
<!-- Generated by graphviz version 14.1.3 (20260303.0454)
 -->
<!-- Title: IndustrialTopology Pages: 1 -->
<svg width="833pt" height="51pt"
 viewBox="0.00 0.00 833.00 51.00" xmlns="http://www.w3.org/2000/svg" xmlns:xlink="http://www.w3.org/1999/xlink">
<g id="graph0" class="graph" transform="scale(1 1) rotate(0) translate(4 46.79)">
<title>IndustrialTopology</title>
<polygon fill="white" stroke="none" points="-4,4 -4,-46.79 829.25,-46.79 829.25,4 -4,4"/>
<!-- Master -->
<g id="node1" class="node">
<title>Master</title>
<path fill="#f2f2f2" stroke="black" d="M89.5,-42.79C89.5,-42.79 12,-42.79 12,-42.79 6,-42.79 0,-36.79 0,-30.79 0,-30.79 0,-18.79 0,-18.79 0,-12.79 6,-6.79 12,-6.79 12,-6.79 89.5,-6.79 89.5,-6.79 95.5,-6.79 101.5,-12.79 101.5,-18.79 101.5,-18.79 101.5,-30.79 101.5,-30.79 101.5,-36.79 95.5,-42.79 89.5,-42.79"/>
<text xml:space="preserve" text-anchor="middle" x="50.75" y="-27.29" font-family="Helvetica,sans-Serif" font-size="10.00">Master</text>
<text xml:space="preserve" text-anchor="middle" x="50.75" y="-15.29" font-family="Helvetica,sans-Serif" font-size="10.00">(PLC/SCADA/HMI)</text>
</g>
<!-- Line -->
<g id="node2" class="node">
<title>Line</title>
<path fill="#e6f2ff" stroke="black" d="M328.25,-42.79C328.25,-42.79 229,-42.79 229,-42.79 223,-42.79 217,-36.79 217,-30.79 217,-30.79 217,-18.79 217,-18.79 217,-12.79 223,-6.79 229,-6.79 229,-6.79 328.25,-6.79 328.25,-6.79 334.25,-6.79 340.25,-12.79 340.25,-18.79 340.25,-18.79 340.25,-30.79 340.25,-30.79 340.25,-36.79 334.25,-42.79 328.25,-42.79"/>
<text xml:space="preserve" text-anchor="middle" x="278.62" y="-21.29" font-family="Helvetica,sans-Serif" font-size="10.00">RS485 Bus / UART Link</text>
</g>
<!-- Master&#45;&gt;Line -->
<g id="edge1" class="edge">
<title>Master&#45;&gt;Line</title>
<path fill="none" stroke="black" d="M101.88,-24.79C132.36,-24.79 171.78,-24.79 205.56,-24.79"/>
<polygon fill="black" stroke="black" points="205.27,-28.29 215.27,-24.79 205.27,-21.29 205.27,-28.29"/>
<text xml:space="preserve" text-anchor="middle" x="159.25" y="-27.99" font-family="Times New Roman,serif" font-size="14.00">Request frame</text>
</g>
<!-- Line&#45;&gt;Master -->
<g id="edge6" class="edge">
<title>Line&#45;&gt;Master</title>
<path fill="none" stroke="black" d="M216.54,-7.25C210.65,-6.05 204.74,-5.02 199,-4.29 163.95,0.21 154.45,0.89 119.5,-4.29 117.31,-4.61 115.1,-4.99 112.87,-5.41"/>
<polygon fill="black" stroke="black" points="112.18,-1.98 103.17,-7.56 113.69,-8.82 112.18,-1.98"/>
<text xml:space="preserve" text-anchor="middle" x="159.25" y="-7.49" font-family="Times New Roman,serif" font-size="14.00">reply</text>
</g>
<!-- Slave -->
<g id="node3" class="node">
<title>Slave</title>
<path fill="#e6ffe6" stroke="black" d="M530.25,-42.79C530.25,-42.79 471.5,-42.79 471.5,-42.79 465.5,-42.79 459.5,-36.79 459.5,-30.79 459.5,-30.79 459.5,-18.79 459.5,-18.79 459.5,-12.79 465.5,-6.79 471.5,-6.79 471.5,-6.79 530.25,-6.79 530.25,-6.79 536.25,-6.79 542.25,-12.79 542.25,-18.79 542.25,-18.79 542.25,-30.79 542.25,-30.79 542.25,-36.79 536.25,-42.79 530.25,-42.79"/>
<text xml:space="preserve" text-anchor="middle" x="500.88" y="-27.29" font-family="Helvetica,sans-Serif" font-size="10.00">Arduino Device</text>
<text xml:space="preserve" text-anchor="middle" x="500.88" y="-15.29" font-family="Helvetica,sans-Serif" font-size="10.00">modbusSlave</text>
</g>
<!-- Line&#45;&gt;Slave -->
<g id="edge2" class="edge">
<title>Line&#45;&gt;Slave</title>
<path fill="none" stroke="black" d="M340.68,-24.79C374.36,-24.79 415.73,-24.79 447.85,-24.79"/>
<polygon fill="black" stroke="black" points="447.73,-28.29 457.73,-24.79 447.73,-21.29 447.73,-28.29"/>
<text xml:space="preserve" text-anchor="middle" x="399.88" y="-27.99" font-family="Times New Roman,serif" font-size="14.00">byte stream</text>
</g>
<!-- Slave&#45;&gt;Line -->
<g id="edge5" class="edge">
<title>Slave&#45;&gt;Line</title>
<path fill="none" stroke="black" d="M459.2,-8.55C453.34,-6.79 447.32,-5.28 441.5,-4.29 405.03,1.93 394.95,0.42 358.25,-4.29 356.19,-4.55 354.1,-4.85 352.01,-5.19"/>
<polygon fill="black" stroke="black" points="351.4,-1.74 342.2,-6.98 352.66,-8.62 351.4,-1.74"/>
<text xml:space="preserve" text-anchor="middle" x="399.88" y="-7.49" font-family="Times New Roman,serif" font-size="14.00">response frame</text>
</g>
<!-- Model -->
<g id="node4" class="node">
<title>Model</title>
<path fill="#fff5e6" stroke="black" d="M813.25,-42.79C813.25,-42.79 669,-42.79 669,-42.79 663,-42.79 657,-36.79 657,-30.79 657,-30.79 657,-18.79 657,-18.79 657,-12.79 663,-6.79 669,-6.79 669,-6.79 813.25,-6.79 813.25,-6.79 819.25,-6.79 825.25,-12.79 825.25,-18.79 825.25,-18.79 825.25,-30.79 825.25,-30.79 825.25,-36.79 819.25,-42.79 813.25,-42.79"/>
<text xml:space="preserve" text-anchor="middle" x="741.12" y="-27.29" font-family="Helvetica,sans-Serif" font-size="10.00">Register Model</text>
<text xml:space="preserve" text-anchor="middle" x="741.12" y="-15.29" font-family="Helvetica,sans-Serif" font-size="10.00">modbusDevice + modbusRegBank</text>
</g>
<!-- Slave&#45;&gt;Model -->
<g id="edge3" class="edge">
<title>Slave&#45;&gt;Model</title>
<path fill="none" stroke="black" d="M542.56,-24.79C570.74,-24.79 609.47,-24.79 645.17,-24.79"/>
<polygon fill="black" stroke="black" points="645.13,-28.29 655.13,-24.79 645.13,-21.29 645.13,-28.29"/>
<text xml:space="preserve" text-anchor="middle" x="599.62" y="-27.99" font-family="Times New Roman,serif" font-size="14.00">parse + access</text>
</g>
<!-- Model&#45;&gt;Slave -->
<g id="edge4" class="edge">
<title>Model&#45;&gt;Slave</title>
<path fill="none" stroke="black" d="M661.95,-6.29C630.27,-1.29 593.4,1.37 560.25,-4.29 558.07,-4.66 555.86,-5.1 553.64,-5.61"/>
<polygon fill="black" stroke="black" points="552.78,-2.21 544.02,-8.16 554.58,-8.98 552.78,-2.21"/>
<text xml:space="preserve" text-anchor="middle" x="599.62" y="-7.49" font-family="Times New Roman,serif" font-size="14.00">data/flags</text>
</g>
</g>
</svg>
