<?xml version="1.0" encoding="UTF-8" standalone="no"?>
<!DOCTYPE svg PUBLIC "-//W3C//DTD SVG 1.1//EN"
 "http://www.w3.org/Graphics/SVG/1.1/DTD/svg11.dtd">
<!-- Generated by graphviz version 14.1.3 (20260303.0454)
 -->
<!-- Title: StateMachine Pages: 1 -->
<svg width="564pt" height="889pt"
 viewBox="0.00 0.00 564.00 889.00" xmlns="http://www.w3.org/2000/svg" xmlns:xlink="http://www.w3.org/1999/xlink">
<g id="graph0" class="graph" transform="scale(1 1) rotate(0) translate(4 885.25)">
<title>StateMachine</title>
<polygon fill="white" stroke="none" points="-4,4 -4,-885.25 560.3,-885.25 560.3,4 -4,4"/>
<!-- Start -->
<g id="node1" class="node">
<title>Start</title>
<ellipse fill="lightgreen" stroke="black" cx="236" cy="-863.25" rx="37.13" ry="18"/>
<text xml:space="preserve" text-anchor="middle" x="236" y="-859.75" font-family="Helvetica,sans-Serif" font-size="10.00">run() Entry</text>
</g>
<!-- CheckAtomic -->
<g id="node2" class="node">
<title>CheckAtomic</title>
<polygon fill="lightyellow" stroke="black" points="236,-808.25 140.75,-790.25 236,-772.25 331.25,-790.25 236,-808.25"/>
<text xml:space="preserve" text-anchor="middle" x="236" y="-786.75" font-family="Helvetica,sans-Serif" font-size="10.00">Is atomic lock active?</text>
</g>
<!-- Start&#45;&gt;CheckAtomic -->
<g id="edge1" class="edge">
<title>Start&#45;&gt;CheckAtomic</title>
<path fill="none" stroke="black" d="M236,-845.07C236,-837.48 236,-828.36 236,-819.79"/>
<polygon fill="black" stroke="black" points="239.5,-819.8 236,-809.8 232.5,-819.8 239.5,-819.8"/>
</g>
<!-- DeferProcessing -->
<g id="node3" class="node">
<title>DeferProcessing</title>
<polygon fill="lightcoral" stroke="black" points="191.12,-622.75 88.88,-622.75 88.88,-586.75 191.12,-586.75 191.12,-622.75"/>
<text xml:space="preserve" text-anchor="middle" x="140" y="-607.25" font-family="Helvetica,sans-Serif" font-size="10.00">Defer processing</text>
<text xml:space="preserve" text-anchor="middle" x="140" y="-595.25" font-family="Helvetica,sans-Serif" font-size="10.00">(return immediately)</text>
</g>
<!-- CheckAtomic&#45;&gt;DeferProcessing -->
<g id="edge2" class="edge">
<title>CheckAtomic&#45;&gt;DeferProcessing</title>
<path fill="none" stroke="black" d="M211.05,-776.5C201.97,-770.78 192.33,-763.27 185.75,-754.25 159.23,-717.93 147.85,-665.95 143.14,-634.1"/>
<polygon fill="black" stroke="black" points="146.64,-633.9 141.84,-624.45 139.7,-634.83 146.64,-633.9"/>
<text xml:space="preserve" text-anchor="middle" x="224.38" y="-745.7" font-family="Helvetica,sans-Serif" font-size="9.00">Yes</text>
<text xml:space="preserve" text-anchor="middle" x="224.38" y="-735.2" font-family="Helvetica,sans-Serif" font-size="9.00">(atomic transaction</text>
<text xml:space="preserve" text-anchor="middle" x="224.38" y="-724.7" font-family="Helvetica,sans-Serif" font-size="9.00">in progress)</text>
</g>
<!-- CheckState -->
<g id="node4" class="node">
<title>CheckState</title>
<polygon fill="lightblue" stroke="black" points="333,-704.75 273.5,-672.75 333,-640.75 392.5,-672.75 333,-704.75"/>
<text xml:space="preserve" text-anchor="middle" x="333" y="-675.25" font-family="Helvetica,sans-Serif" font-size="10.00">Switch on</text>
<text xml:space="preserve" text-anchor="middle" x="333" y="-663.25" font-family="Helvetica,sans-Serif" font-size="10.00">_state</text>
</g>
<!-- CheckAtomic&#45;&gt;CheckState -->
<g id="edge3" class="edge">
<title>CheckAtomic&#45;&gt;CheckState</title>
<path fill="none" stroke="black" d="M249.4,-774.38C254.91,-768.2 261.31,-760.93 267,-754.25 280.88,-737.97 296.04,-719.52 308.33,-704.4"/>
<polygon fill="black" stroke="black" points="311.04,-706.61 314.62,-696.64 305.6,-702.21 311.04,-706.61"/>
<text xml:space="preserve" text-anchor="middle" x="298.69" y="-735.2" font-family="Helvetica,sans-Serif" font-size="9.00">No</text>
</g>
<!-- Return -->
<g id="node19" class="node">
<title>Return</title>
<ellipse fill="lightgreen" stroke="black" cx="244" cy="-22.63" rx="55.86" ry="22.63"/>
<text xml:space="preserve" text-anchor="middle" x="244" y="-25.13" font-family="Helvetica,sans-Serif" font-size="10.00">return</text>
<text xml:space="preserve" text-anchor="middle" x="244" y="-13.13" font-family="Helvetica,sans-Serif" font-size="10.00">(Non&#45;blocking)</text>
</g>
<!-- DeferProcessing&#45;&gt;Return -->
<g id="edge4" class="edge">
<title>DeferProcessing&#45;&gt;Return</title>
<path fill="none" stroke="black" d="M88.66,-588.12C48.71,-572.4 0,-543.79 0,-497.75 0,-497.75 0,-497.75 0,-99.25 0,-61.74 106.59,-40.78 178.87,-30.87"/>
<polygon fill="black" stroke="black" points="179.2,-34.36 188.65,-29.58 178.28,-27.42 179.2,-34.36"/>
</g>
<!-- IdleState -->
<g id="node5" class="node">
<title>IdleState</title>
<polygon fill="#e6f2ff" stroke="black" points="517.88,-514.75 414.12,-514.75 414.12,-478.75 517.88,-478.75 517.88,-514.75"/>
<text xml:space="preserve" text-anchor="middle" x="466" y="-499.25" font-family="Helvetica,sans-Serif" font-size="10.00">State: IDLE</text>
<text xml:space="preserve" text-anchor="middle" x="466" y="-487.25" font-family="Helvetica,sans-Serif" font-size="10.00">Waiting for first byte</text>
</g>
<!-- CheckState&#45;&gt;IdleState -->
<g id="edge5" class="edge">
<title>CheckState&#45;&gt;IdleState</title>
<path fill="none" stroke="black" d="M365.1,-657.58C380.9,-649.3 399.25,-637.54 412,-622.75 436.48,-594.37 451.35,-553.2 459.12,-525.97"/>
<polygon fill="black" stroke="black" points="462.49,-526.91 461.72,-516.34 455.74,-525.09 462.49,-526.91"/>
<text xml:space="preserve" text-anchor="middle" x="445.43" y="-601.45" font-family="Helvetica,sans-Serif" font-size="9.00">IDLE</text>
</g>
<!-- ReceivingState -->
<g id="node9" class="node">
<title>ReceivingState</title>
<polygon fill="#e6f2ff" stroke="black" points="299.75,-568.75 198.25,-568.75 198.25,-532.75 299.75,-532.75 299.75,-568.75"/>
<text xml:space="preserve" text-anchor="middle" x="249" y="-553.25" font-family="Helvetica,sans-Serif" font-size="10.00">State: RECEIVING</text>
<text xml:space="preserve" text-anchor="middle" x="249" y="-541.25" font-family="Helvetica,sans-Serif" font-size="10.00">Collecting bytes</text>
</g>
<!-- CheckState&#45;&gt;ReceivingState -->
<g id="edge6" class="edge">
<title>CheckState&#45;&gt;ReceivingState</title>
<path fill="none" stroke="black" d="M315.29,-650.14C308.59,-641.73 301.02,-631.93 294.5,-622.75 284.36,-608.49 273.77,-592.07 265.36,-578.61"/>
<polygon fill="black" stroke="black" points="268.44,-576.93 260.2,-570.27 262.49,-580.62 268.44,-576.93"/>
<text xml:space="preserve" text-anchor="middle" x="319.25" y="-601.45" font-family="Helvetica,sans-Serif" font-size="9.00">RECEIVING</text>
</g>
<!-- CompleteState -->
<g id="node16" class="node">
<title>CompleteState</title>
<polygon fill="#e6f2ff" stroke="black" points="419,-568.75 319,-568.75 319,-532.75 419,-532.75 419,-568.75"/>
<text xml:space="preserve" text-anchor="middle" x="369" y="-553.25" font-family="Helvetica,sans-Serif" font-size="10.00">State: COMPLETE</text>
<text xml:space="preserve" text-anchor="middle" x="369" y="-541.25" font-family="Helvetica,sans-Serif" font-size="10.00">Frame ready</text>
</g>
<!-- CheckState&#45;&gt;CompleteState -->
<g id="edge7" class="edge">
<title>CheckState&#45;&gt;CompleteState</title>
<path fill="none" stroke="black" d="M341.08,-644.82C346.87,-625.51 354.67,-599.54 360.54,-579.94"/>
<polygon fill="black" stroke="black" points="363.88,-580.99 363.4,-570.41 357.18,-578.98 363.88,-580.99"/>
<text xml:space="preserve" text-anchor="middle" x="383.11" y="-601.45" font-family="Helvetica,sans-Serif" font-size="9.00">COMPLETE</text>
</g>
<!-- CheckAvailable -->
<g id="node6" class="node">
<title>CheckAvailable</title>
<path fill="none" stroke="black" d="M465.3,-336.1C465.3,-336.1 409.4,-323.41 409.4,-323.41 403.55,-322.08 403.55,-319.43 409.4,-318.1 409.4,-318.1 465.3,-305.41 465.3,-305.41 471.15,-304.08 482.85,-304.08 488.7,-305.41 488.7,-305.41 544.6,-318.1 544.6,-318.1 550.45,-319.43 550.45,-322.08 544.6,-323.41 544.6,-323.41 488.7,-336.1 488.7,-336.1 482.85,-337.43 471.15,-337.43 465.3,-336.1"/>
<text xml:space="preserve" text-anchor="middle" x="477" y="-317.25" font-family="Helvetica,sans-Serif" font-size="10.00">Serial.available()?</text>
</g>
<!-- IdleState&#45;&gt;CheckAvailable -->
<g id="edge8" class="edge">
<title>IdleState&#45;&gt;CheckAvailable</title>
<path fill="none" stroke="black" d="M467.09,-478.43C468.99,-448.47 472.9,-386.68 475.2,-350.29"/>
<polygon fill="black" stroke="black" points="478.68,-350.72 475.81,-340.52 471.69,-350.27 478.68,-350.72"/>
</g>
<!-- ReadByte -->
<g id="node7" class="node">
<title>ReadByte</title>
<polygon fill="#ccffcc" stroke="black" points="478.25,-242.25 397.75,-242.25 397.75,-198.25 478.25,-198.25 478.25,-242.25"/>
<text xml:space="preserve" text-anchor="middle" x="438" y="-228.75" font-family="Helvetica,sans-Serif" font-size="10.00">Read first byte</text>
<text xml:space="preserve" text-anchor="middle" x="438" y="-216.75" font-family="Helvetica,sans-Serif" font-size="10.00">Reset buffer</text>
<text xml:space="preserve" text-anchor="middle" x="438" y="-204.75" font-family="Helvetica,sans-Serif" font-size="10.00">_pos = 0</text>
</g>
<!-- CheckAvailable&#45;&gt;ReadByte -->
<g id="edge10" class="edge">
<title>CheckAvailable&#45;&gt;ReadByte</title>
<path fill="none" stroke="black" d="M470.73,-303.93C465.33,-290.28 457.36,-270.14 450.63,-253.16"/>
<polygon fill="black" stroke="black" points="453.93,-251.97 446.99,-243.96 447.42,-254.55 453.93,-251.97"/>
<text xml:space="preserve" text-anchor="middle" x="465" y="-262.2" font-family="Helvetica,sans-Serif" font-size="9.00">Yes</text>
</g>
<!-- CheckAvailable&#45;&gt;Return -->
<g id="edge9" class="edge">
<title>CheckAvailable&#45;&gt;Return</title>
<path fill="none" stroke="black" d="M483.75,-304.01C500.37,-262.52 538.22,-148.78 485,-82.25 463.24,-55.05 372.73,-38.82 309.06,-30.55"/>
<polygon fill="black" stroke="black" points="309.76,-27.11 299.4,-29.34 308.89,-34.06 309.76,-27.11"/>
<text xml:space="preserve" text-anchor="middle" x="518.38" y="-154.95" font-family="Helvetica,sans-Serif" font-size="9.00">No</text>
</g>
<!-- TransitionReceiving -->
<g id="node8" class="node">
<title>TransitionReceiving</title>
<polygon fill="#ffffcc" stroke="black" points="475.75,-118.25 368.25,-118.25 368.25,-82.25 475.75,-82.25 475.75,-118.25"/>
<text xml:space="preserve" text-anchor="middle" x="422" y="-102.75" font-family="Helvetica,sans-Serif" font-size="10.00">State = RECEIVING</text>
<text xml:space="preserve" text-anchor="middle" x="422" y="-90.75" font-family="Helvetica,sans-Serif" font-size="10.00">Reset silence timer</text>
</g>
<!-- ReadByte&#45;&gt;TransitionReceiving -->
<g id="edge11" class="edge">
<title>ReadByte&#45;&gt;TransitionReceiving</title>
<path fill="none" stroke="black" d="M435.1,-197.89C432.52,-178.81 428.71,-150.73 425.86,-129.74"/>
<polygon fill="black" stroke="black" points="429.37,-129.57 424.56,-120.13 422.43,-130.51 429.37,-129.57"/>
</g>
<!-- TransitionReceiving&#45;&gt;Return -->
<g id="edge12" class="edge">
<title>TransitionReceiving&#45;&gt;Return</title>
<path fill="none" stroke="black" d="M381.16,-81.9C354.68,-70.65 320.05,-55.94 292.21,-44.11"/>
<polygon fill="black" stroke="black" points="293.88,-41.02 283.3,-40.33 291.14,-47.46 293.88,-41.02"/>
</g>
<!-- CheckBytes -->
<g id="node10" class="node">
<title>CheckBytes</title>
<path fill="none" stroke="black" d="M236.33,-457.95C236.33,-457.95 184.83,-445.56 184.83,-445.56 179,-444.16 179,-441.35 184.83,-439.95 184.83,-439.95 236.33,-427.56 236.33,-427.56 242.17,-426.16 253.83,-426.16 259.67,-427.56 259.67,-427.56 311.17,-439.95 311.17,-439.95 317,-441.35 317,-444.16 311.17,-445.56 311.17,-445.56 259.67,-457.95 259.67,-457.95 253.83,-459.35 242.17,-459.35 236.33,-457.95"/>
<text xml:space="preserve" text-anchor="middle" x="248" y="-439.25" font-family="Helvetica,sans-Serif" font-size="10.00">Bytes available?</text>
</g>
<!-- ReceivingState&#45;&gt;CheckBytes -->
<g id="edge13" class="edge">
<title>ReceivingState&#45;&gt;CheckBytes</title>
<path fill="none" stroke="black" d="M248.84,-532.72C248.69,-516.52 248.45,-491.81 248.27,-472.55"/>
<polygon fill="black" stroke="black" points="251.77,-472.58 248.18,-462.61 244.77,-472.64 251.77,-472.58"/>
</g>
<!-- CheckOverflow -->
<g id="node11" class="node">
<title>CheckOverflow</title>
<path fill="none" stroke="black" d="M236.92,-348.14C236.92,-348.14 182.33,-325.37 182.33,-325.37 176.79,-323.06 176.79,-318.45 182.33,-316.14 182.33,-316.14 236.92,-293.37 236.92,-293.37 242.46,-291.06 253.54,-291.06 259.08,-293.37 259.08,-293.37 313.67,-316.14 313.67,-316.14 319.21,-318.45 319.21,-323.06 313.67,-325.37 313.67,-325.37 259.08,-348.14 259.08,-348.14 253.54,-350.45 242.46,-350.45 236.92,-348.14"/>
<text xml:space="preserve" text-anchor="middle" x="248" y="-323.25" font-family="Helvetica,sans-Serif" font-size="10.00">Buffer full?</text>
<text xml:space="preserve" text-anchor="middle" x="248" y="-311.25" font-family="Helvetica,sans-Serif" font-size="10.00">(_pos &gt;= 256)</text>
</g>
<!-- CheckBytes&#45;&gt;CheckOverflow -->
<g id="edge15" class="edge">
<title>CheckBytes&#45;&gt;CheckOverflow</title>
<path fill="none" stroke="black" d="M248,-424.31C248,-408.69 248,-385.16 248,-364.57"/>
<polygon fill="black" stroke="black" points="251.5,-364.71 248,-354.71 244.5,-364.71 251.5,-364.71"/>
<text xml:space="preserve" text-anchor="middle" x="255.5" y="-385.45" font-family="Helvetica,sans-Serif" font-size="9.00">Yes</text>
</g>
<!-- CheckSilence -->
<g id="node14" class="node">
<title>CheckSilence</title>
<path fill="none" stroke="black" d="M86.38,-235.26C86.38,-235.26 39.88,-223.25 39.88,-223.25 34.08,-221.75 34.08,-218.76 39.88,-217.26 39.88,-217.26 86.38,-205.25 86.38,-205.25 92.19,-203.75 103.81,-203.75 109.62,-205.25 109.62,-205.25 156.12,-217.26 156.12,-217.26 161.92,-218.76 161.92,-221.75 156.12,-223.25 156.12,-223.25 109.62,-235.26 109.62,-235.26 103.81,-236.76 92.19,-236.76 86.38,-235.26"/>
<text xml:space="preserve" text-anchor="middle" x="98" y="-216.75" font-family="Helvetica,sans-Serif" font-size="10.00">Silence &gt; t3.5?</text>
</g>
<!-- CheckBytes&#45;&gt;CheckSilence -->
<g id="edge14" class="edge">
<title>CheckBytes&#45;&gt;CheckSilence</title>
<path fill="none" stroke="black" d="M216.97,-431.84C183.32,-419.28 131.14,-394.15 106.5,-352.75 87.56,-320.93 89.17,-276.78 92.92,-248.61"/>
<polygon fill="black" stroke="black" points="96.32,-249.51 94.37,-239.09 89.4,-248.45 96.32,-249.51"/>
<text xml:space="preserve" text-anchor="middle" x="134.25" y="-317.45" font-family="Helvetica,sans-Serif" font-size="9.00">No new bytes</text>
</g>
<!-- SetOverflow -->
<g id="node12" class="node">
<title>SetOverflow</title>
<polygon fill="lightcoral" stroke="black" points="341.62,-238.25 224.38,-238.25 224.38,-202.25 341.62,-202.25 341.62,-238.25"/>
<text xml:space="preserve" text-anchor="middle" x="283" y="-222.75" font-family="Helvetica,sans-Serif" font-size="10.00">Set _rxOverflow flag</text>
<text xml:space="preserve" text-anchor="middle" x="283" y="-210.75" font-family="Helvetica,sans-Serif" font-size="10.00">Increment error counter</text>
</g>
<!-- CheckOverflow&#45;&gt;SetOverflow -->
<g id="edge16" class="edge">
<title>CheckOverflow&#45;&gt;SetOverflow</title>
<path fill="none" stroke="black" d="M257.75,-292.32C262.52,-278.89 268.26,-262.74 273.06,-249.24"/>
<polygon fill="black" stroke="black" points="276.27,-250.66 276.32,-240.06 269.67,-248.31 276.27,-250.66"/>
<text xml:space="preserve" text-anchor="middle" x="276.13" y="-262.2" font-family="Helvetica,sans-Serif" font-size="9.00">Yes</text>
</g>
<!-- ReadMoreBytes -->
<g id="node13" class="node">
<title>ReadMoreBytes</title>
<polygon fill="#ccffcc" stroke="black" points="289.38,-180.25 188.62,-180.25 188.62,-136.25 289.38,-136.25 289.38,-180.25"/>
<text xml:space="preserve" text-anchor="middle" x="239" y="-166.75" font-family="Helvetica,sans-Serif" font-size="10.00">Read byte(s)</text>
<text xml:space="preserve" text-anchor="middle" x="239" y="-154.75" font-family="Helvetica,sans-Serif" font-size="10.00">Reset silence timer</text>
<text xml:space="preserve" text-anchor="middle" x="239" y="-142.75" font-family="Helvetica,sans-Serif" font-size="10.00">for each byte</text>
</g>
<!-- CheckOverflow&#45;&gt;ReadMoreBytes -->
<g id="edge17" class="edge">
<title>CheckOverflow&#45;&gt;ReadMoreBytes</title>
<path fill="none" stroke="black" d="M234.14,-294.41C226.86,-279.67 218.71,-260.45 215,-242.25 211.09,-223.09 209.67,-217.07 215,-198.25 215.73,-195.67 216.69,-193.09 217.79,-190.56"/>
<polygon fill="black" stroke="black" points="220.8,-192.36 222.32,-181.87 214.6,-189.12 220.8,-192.36"/>
<text xml:space="preserve" text-anchor="middle" x="229.61" y="-262.2" font-family="Helvetica,sans-Serif" font-size="9.00">No</text>
</g>
<!-- TransitionIdle -->
<g id="node18" class="node">
<title>TransitionIdle</title>
<polygon fill="#ffffcc" stroke="black" points="345.88,-118.25 272.12,-118.25 272.12,-82.25 345.88,-82.25 345.88,-118.25"/>
<text xml:space="preserve" text-anchor="middle" x="309" y="-102.75" font-family="Helvetica,sans-Serif" font-size="10.00">State = IDLE</text>
<text xml:space="preserve" text-anchor="middle" x="309" y="-90.75" font-family="Helvetica,sans-Serif" font-size="10.00">Reset buffer</text>
</g>
<!-- SetOverflow&#45;&gt;TransitionIdle -->
<g id="edge18" class="edge">
<title>SetOverflow&#45;&gt;TransitionIdle</title>
<path fill="none" stroke="black" d="M287.09,-201.79C288.65,-195.07 290.43,-187.31 292,-180.25 295.73,-163.51 299.78,-144.73 302.99,-129.69"/>
<polygon fill="black" stroke="black" points="306.39,-130.52 305.04,-120.01 299.54,-129.07 306.39,-130.52"/>
</g>
<!-- ReadMoreBytes&#45;&gt;Return -->
<g id="edge19" class="edge">
<title>ReadMoreBytes&#45;&gt;Return</title>
<path fill="none" stroke="black" d="M239.8,-135.79C240.6,-114.48 241.83,-81.54 242.76,-56.85"/>
<polygon fill="black" stroke="black" points="246.25,-57.12 243.13,-47 239.25,-56.86 246.25,-57.12"/>
</g>
<!-- TransitionComplete -->
<g id="node15" class="node">
<title>TransitionComplete</title>
<polygon fill="#ffffcc" stroke="black" points="137,-118.25 31,-118.25 31,-82.25 137,-82.25 137,-118.25"/>
<text xml:space="preserve" text-anchor="middle" x="84" y="-96.75" font-family="Helvetica,sans-Serif" font-size="10.00">State = COMPLETE</text>
</g>
<!-- CheckSilence&#45;&gt;TransitionComplete -->
<g id="edge21" class="edge">
<title>CheckSilence&#45;&gt;TransitionComplete</title>
<path fill="none" stroke="black" d="M95.99,-202.35C93.75,-183.44 90.08,-152.5 87.39,-129.82"/>
<polygon fill="black" stroke="black" points="90.88,-129.53 86.23,-120.02 83.93,-130.36 90.88,-129.53"/>
<text xml:space="preserve" text-anchor="middle" x="115.95" y="-154.95" font-family="Helvetica,sans-Serif" font-size="9.00">Yes (≥ t3.5)</text>
</g>
<!-- CheckSilence&#45;&gt;Return -->
<g id="edge20" class="edge">
<title>CheckSilence&#45;&gt;Return</title>
<path fill="none" stroke="black" d="M115.65,-206.52C124.59,-199.47 135.17,-190.15 143,-180.25 173.49,-141.71 166.79,-123.02 194.25,-82.25 201.02,-72.21 209.24,-61.92 217.03,-52.82"/>
<polygon fill="black" stroke="black" points="219.66,-55.13 223.62,-45.3 214.39,-50.52 219.66,-55.13"/>
<text xml:space="preserve" text-anchor="middle" x="215.62" y="-96.95" font-family="Helvetica,sans-Serif" font-size="9.00">No (&lt; t3.5)</text>
</g>
<!-- TransitionComplete&#45;&gt;Return -->
<g id="edge22" class="edge">
<title>TransitionComplete&#45;&gt;Return</title>
<path fill="none" stroke="black" d="M120.2,-81.78C132.5,-75.87 146.34,-69.25 159,-63.25 171.53,-57.33 185.13,-50.96 197.7,-45.1"/>
<polygon fill="black" stroke="black" points="199.02,-48.35 206.6,-40.95 196.06,-42 199.02,-48.35"/>
</g>
<!-- CallProcess -->
<g id="node17" class="node">
<title>CallProcess</title>
<polygon fill="#ffccff" stroke="black" points="427.12,-406.75 312.88,-406.75 312.88,-370.75 427.12,-370.75 427.12,-406.75"/>
<text xml:space="preserve" text-anchor="middle" x="370" y="-391.25" font-family="Helvetica,sans-Serif" font-size="10.00">Call processFrame()</text>
<text xml:space="preserve" text-anchor="middle" x="370" y="-379.25" font-family="Helvetica,sans-Serif" font-size="10.00">Validation + Response</text>
</g>
<!-- CompleteState&#45;&gt;CallProcess -->
<g id="edge23" class="edge">
<title>CompleteState&#45;&gt;CallProcess</title>
<path fill="none" stroke="black" d="M369.11,-532.33C369.28,-504.92 369.61,-451.45 369.82,-418.35"/>
<polygon fill="black" stroke="black" points="373.32,-418.7 369.88,-408.67 366.32,-418.65 373.32,-418.7"/>
</g>
<!-- CallProcess&#45;&gt;TransitionIdle -->
<g id="edge24" class="edge">
<title>CallProcess&#45;&gt;TransitionIdle</title>
<path fill="none" stroke="black" d="M370.03,-370.46C369.71,-336.76 367.09,-260.18 351,-198.25 344.64,-173.79 332.97,-147.57 323.54,-128.57"/>
<polygon fill="black" stroke="black" points="326.78,-127.22 319.13,-119.9 320.54,-130.4 326.78,-127.22"/>
</g>
<!-- TransitionIdle&#45;&gt;Return -->
<g id="edge25" class="edge">
<title>TransitionIdle&#45;&gt;Return</title>
<path fill="none" stroke="black" d="M294.25,-82.09C286.91,-73.55 277.82,-62.98 269.41,-53.19"/>
<polygon fill="black" stroke="black" points="272.09,-50.94 262.92,-45.64 266.78,-55.51 272.09,-50.94"/>
</g>
</g>
</svg>
