<?xml version="1.0" encoding="UTF-8" standalone="no"?>
<!DOCTYPE svg PUBLIC "-//W3C//DTD SVG 1.1//EN"
 "http://www.w3.org/Graphics/SVG/1.1/DTD/svg11.dtd">
<!-- Generated by graphviz version 14.1.3 (20260303.0454)
 -->
<!-- Title: ValidationChain Pages: 1 -->
<!--zoomable 1779 -->

<svg id="main" version="1.1" xmlns="http://www.w3.org/2000/svg" xmlns:xlink="http://www.w3.org/1999/xlink" xml:space="preserve" onload="init(evt)">

<style type="text/css"><![CDATA[
.node, .edge {opacity: 0.7;}
.node.selected, .edge.selected {opacity: 1;}
.edge:hover path { stroke: red; }
.edge:hover polygon { stroke: red; fill: red; }
]]></style>

<defs>
  <circle id="rim" cx="0" cy="0" r="7"/>
  <circle id="rim2" cx="0" cy="0" r="3.5"/>
  <g id="zoomPlus">
    <use xlink:href="#rim" fill="#404040"><set attributeName="fill" to="#808080" begin="zoomplus.mouseover" end="zoomplus.mouseout"/></use>
    <path d="M-4,0h8M0,-4v8" fill="none" stroke="white" stroke-width="1.5" pointer-events="none"/>
  </g>
  <g id="zoomMin">
    <use xlink:href="#rim" fill="#404040"><set attributeName="fill" to="#808080" begin="zoomminus.mouseover" end="zoomminus.mouseout"/></use>
    <path d="M-4,0h8" fill="none" stroke="white" stroke-width="1.5" pointer-events="none"/>
  </g>
  <g id="arrowUp" transform="translate(30 24)">
    <use xlink:href="#rim"/>
    <path pointer-events="none" fill="none" stroke="white" stroke-width="1.5" d="M0,-3.0v7 M-2.5,-0.5L0,-3.0L2.5,-0.5"/>
  </g>
  <g id="arrowRight" transform="rotate(90) translate(36 -43)">
    <use xlink:href="#rim"/>
    <path pointer-events="none" fill="none" stroke="white" stroke-width="1.5" d="M0,-3.0v7 M-2.5,-0.5L0,-3.0L2.5,-0.5"/>
  </g>
  <g id="arrowDown" transform="rotate(180) translate(-30 -48)">
    <use xlink:href="#rim"/>
    <path pointer-events="none" fill="none" stroke="white" stroke-width="1.5" d="M0,-3.0v7 M-2.5,-0.5L0,-3.0L2.5,-0.5"/>
  </g>
  <g id="arrowLeft" transform="rotate(270) translate(-36 17)">
    <use xlink:href="#rim"/>
    <path pointer-events="none" fill="none" stroke="white" stroke-width="1.5" d="M0,-3.0v7 M-2.5,-0.5L0,-3.0L2.5,-0.5"/>
  </g>
  <g id="resetDef">
    <use xlink:href="#rim2" fill="#404040"><set attributeName="fill" to="#808080" begin="reset.mouseover" end="reset.mouseout"/></use>
  </g>
</defs>
<script type="application/ecmascript">
var viewWidth = 664;
var viewHeight = 1779;
</script>
<script type="application/ecmascript" xlink:href="svg.min.js"/>
<svg id="graph" class="graph">
<g id="viewport">
<title>ValidationChain</title>
<polygon fill="white" stroke="none" points="-4,4 -4,-1774.75 660.12,-1774.75 660.12,4 -4,4"/>
<!-- Entry -->
<g id="node1" class="node">
<title>Entry</title>
<ellipse fill="lightgreen" stroke="black" cx="135.25" cy="-1748.13" rx="78.14" ry="22.63"/>
<text xml:space="preserve" text-anchor="middle" x="135.25" y="-1750.63" font-family="Helvetica,sans-Serif" font-size="10.00">processFrame() Entry</text>
<text xml:space="preserve" text-anchor="middle" x="135.25" y="-1738.63" font-family="Helvetica,sans-Serif" font-size="10.00">Frame in buffer</text>
</g>
<!-- Check1 -->
<g id="node2" class="node">
<title>Check1</title>
<polygon fill="lightyellow" stroke="black" points="135.25,-1688.5 0,-1644.5 135.25,-1600.5 270.5,-1644.5 135.25,-1688.5"/>
<text xml:space="preserve" text-anchor="middle" x="135.25" y="-1653" font-family="Helvetica,sans-Serif" font-size="10.00">Check 1: Frame Length</text>
<text xml:space="preserve" text-anchor="middle" x="135.25" y="-1641" font-family="Helvetica,sans-Serif" font-size="10.00">Minimum 8 bytes?</text>
<text xml:space="preserve" text-anchor="middle" x="135.25" y="-1629" font-family="Helvetica,sans-Serif" font-size="10.00">(Addr + FC + Data + CRC)</text>
</g>
<!-- Entry&#45;&gt;Check1 -->
<g id="edge1" class="edge">
<title>Entry&#45;&gt;Check1</title>
<path fill="none" stroke="black" d="M135.25,-1725.08C135.25,-1717.61 135.25,-1708.9 135.25,-1700.04"/>
<polygon fill="black" stroke="black" points="138.75,-1700.33 135.25,-1690.33 131.75,-1700.33 138.75,-1700.33"/>
</g>
<!-- Reject1 -->
<g id="node3" class="node">
<title>Reject1</title>
<polygon fill="lightcoral" stroke="black" points="155.88,-1448 80.62,-1448 80.62,-1404 155.88,-1404 155.88,-1448"/>
<text xml:space="preserve" text-anchor="middle" x="118.25" y="-1434.5" font-family="Helvetica,sans-Serif" font-size="10.00">REJECT</text>
<text xml:space="preserve" text-anchor="middle" x="118.25" y="-1422.5" font-family="Helvetica,sans-Serif" font-size="10.00">Silent discard</text>
<text xml:space="preserve" text-anchor="middle" x="118.25" y="-1410.5" font-family="Helvetica,sans-Serif" font-size="10.00">(too short)</text>
</g>
<!-- Check1&#45;&gt;Reject1 -->
<g id="edge2" class="edge">
<title>Check1&#45;&gt;Reject1</title>
<path fill="none" stroke="black" d="M131.93,-1601.24C128.68,-1559.82 123.79,-1497.56 120.82,-1459.76"/>
<polygon fill="black" stroke="black" points="124.32,-1459.61 120.05,-1449.91 117.34,-1460.16 124.32,-1459.61"/>
<text xml:space="preserve" text-anchor="middle" x="136.29" y="-1573.95" font-family="Helvetica,sans-Serif" font-size="9.00">No</text>
</g>
<!-- Check2 -->
<g id="node4" class="node">
<title>Check2</title>
<polygon fill="lightyellow" stroke="black" points="275.25,-1554 146.75,-1510 275.25,-1466 403.75,-1510 275.25,-1554"/>
<text xml:space="preserve" text-anchor="middle" x="275.25" y="-1518.5" font-family="Helvetica,sans-Serif" font-size="10.00">Check 2: CRC&#45;16</text>
<text xml:space="preserve" text-anchor="middle" x="275.25" y="-1506.5" font-family="Helvetica,sans-Serif" font-size="10.00">Calculated CRC matches</text>
<text xml:space="preserve" text-anchor="middle" x="275.25" y="-1494.5" font-family="Helvetica,sans-Serif" font-size="10.00">received CRC?</text>
</g>
<!-- Check1&#45;&gt;Check2 -->
<g id="edge3" class="edge">
<title>Check1&#45;&gt;Check2</title>
<path fill="none" stroke="black" d="M169.14,-1611.43C188.49,-1593.12 212.9,-1570.01 233.43,-1550.58"/>
<polygon fill="black" stroke="black" points="235.72,-1553.24 240.57,-1543.82 230.9,-1548.15 235.72,-1553.24"/>
<text xml:space="preserve" text-anchor="middle" x="216.95" y="-1573.95" font-family="Helvetica,sans-Serif" font-size="9.00">Yes</text>
</g>
<!-- Exit -->
<g id="node26" class="node">
<title>Exit</title>
<ellipse fill="lightgreen" stroke="black" cx="277.25" cy="-18" rx="64.19" ry="18"/>
<text xml:space="preserve" text-anchor="middle" x="277.25" y="-14.5" font-family="Helvetica,sans-Serif" font-size="10.00">Return to IDLE state</text>
</g>
<!-- Reject1&#45;&gt;Exit -->
<g id="edge4" class="edge">
<title>Reject1&#45;&gt;Exit</title>
<path fill="none" stroke="black" d="M118.25,-1403.51C118.25,-1371.87 118.25,-1310.88 118.25,-1259 118.25,-1259 118.25,-1259 118.25,-100 118.25,-57.25 164.45,-37.05 207.04,-27.52"/>
<polygon fill="black" stroke="black" points="207.47,-31 216.56,-25.56 206.06,-24.14 207.47,-31"/>
</g>
<!-- Reject2 -->
<g id="node5" class="node">
<title>Reject2</title>
<polygon fill="lightcoral" stroke="black" points="269.25,-1280 133.25,-1280 133.25,-1236 269.25,-1236 269.25,-1280"/>
<text xml:space="preserve" text-anchor="middle" x="201.25" y="-1266.5" font-family="Helvetica,sans-Serif" font-size="10.00">REJECT</text>
<text xml:space="preserve" text-anchor="middle" x="201.25" y="-1254.5" font-family="Helvetica,sans-Serif" font-size="10.00">Increment bus error counter</text>
<text xml:space="preserve" text-anchor="middle" x="201.25" y="-1242.5" font-family="Helvetica,sans-Serif" font-size="10.00">Silent discard</text>
</g>
<!-- Check2&#45;&gt;Reject2 -->
<g id="edge5" class="edge">
<title>Check2&#45;&gt;Reject2</title>
<path fill="none" stroke="black" d="M255.68,-1472.32C243.7,-1448.38 229.05,-1416.09 220.25,-1386 211.07,-1354.6 206.17,-1317.46 203.66,-1291.49"/>
<polygon fill="black" stroke="black" points="207.15,-1291.21 202.78,-1281.56 200.18,-1291.83 207.15,-1291.21"/>
<text xml:space="preserve" text-anchor="middle" x="249.73" y="-1422.7" font-family="Helvetica,sans-Serif" font-size="9.00">No</text>
</g>
<!-- Check3 -->
<g id="node6" class="node">
<title>Check3</title>
<polygon fill="lightyellow" stroke="black" points="326.25,-1386 229.25,-1342 326.25,-1298 423.25,-1342 326.25,-1386"/>
<text xml:space="preserve" text-anchor="middle" x="326.25" y="-1350.5" font-family="Helvetica,sans-Serif" font-size="10.00">Check 3: Slave ID</text>
<text xml:space="preserve" text-anchor="middle" x="326.25" y="-1338.5" font-family="Helvetica,sans-Serif" font-size="10.00">Matches our ID or</text>
<text xml:space="preserve" text-anchor="middle" x="326.25" y="-1326.5" font-family="Helvetica,sans-Serif" font-size="10.00">Broadcast (0)?</text>
</g>
<!-- Check2&#45;&gt;Check3 -->
<g id="edge6" class="edge">
<title>Check2&#45;&gt;Check3</title>
<path fill="none" stroke="black" d="M287.34,-1469.66C294.46,-1446.46 303.54,-1416.91 311.14,-1392.18"/>
<polygon fill="black" stroke="black" points="314.48,-1393.23 314.07,-1382.65 307.79,-1391.18 314.48,-1393.23"/>
<text xml:space="preserve" text-anchor="middle" x="314.32" y="-1422.7" font-family="Helvetica,sans-Serif" font-size="9.00">Yes</text>
</g>
<!-- Reject2&#45;&gt;Exit -->
<g id="edge7" class="edge">
<title>Reject2&#45;&gt;Exit</title>
<path fill="none" stroke="black" d="M201.25,-1235.57C201.25,-1212.66 201.25,-1175.26 201.25,-1143 201.25,-1143 201.25,-1143 201.25,-100 201.25,-75.31 220.26,-55.05 239.27,-40.97"/>
<polygon fill="black" stroke="black" points="241.05,-44 247.27,-35.43 237.06,-38.25 241.05,-44"/>
</g>
<!-- Reject3 -->
<g id="node7" class="node">
<title>Reject3</title>
<polygon fill="lightcoral" stroke="black" points="310.88,-1164 235.62,-1164 235.62,-1120 310.88,-1120 310.88,-1164"/>
<text xml:space="preserve" text-anchor="middle" x="273.25" y="-1150.5" font-family="Helvetica,sans-Serif" font-size="10.00">REJECT</text>
<text xml:space="preserve" text-anchor="middle" x="273.25" y="-1138.5" font-family="Helvetica,sans-Serif" font-size="10.00">Silent discard</text>
<text xml:space="preserve" text-anchor="middle" x="273.25" y="-1126.5" font-family="Helvetica,sans-Serif" font-size="10.00">(not for us)</text>
</g>
<!-- Check3&#45;&gt;Reject3 -->
<g id="edge8" class="edge">
<title>Check3&#45;&gt;Reject3</title>
<path fill="none" stroke="black" d="M315.91,-1302.35C306,-1265.35 291.22,-1210.15 281.92,-1175.38"/>
<polygon fill="black" stroke="black" points="285.35,-1174.65 279.38,-1165.9 278.58,-1176.46 285.35,-1174.65"/>
<text xml:space="preserve" text-anchor="middle" x="315.75" y="-1254.7" font-family="Helvetica,sans-Serif" font-size="9.00">No</text>
</g>
<!-- IncrementBus -->
<g id="node8" class="node">
<title>IncrementBus</title>
<polygon fill="#e6f2ff" stroke="black" points="476.38,-1218 320.12,-1218 320.12,-1182 476.38,-1182 476.38,-1218"/>
<text xml:space="preserve" text-anchor="middle" x="398.25" y="-1196.5" font-family="Helvetica,sans-Serif" font-size="10.00">Increment bus message counter</text>
</g>
<!-- Check3&#45;&gt;IncrementBus -->
<g id="edge9" class="edge">
<title>Check3&#45;&gt;IncrementBus</title>
<path fill="none" stroke="black" d="M344.23,-1306.03C356.62,-1281.95 372.84,-1250.42 384.26,-1228.21"/>
<polygon fill="black" stroke="black" points="387.29,-1229.97 388.75,-1219.47 381.06,-1226.76 387.29,-1229.97"/>
<text xml:space="preserve" text-anchor="middle" x="386.44" y="-1254.7" font-family="Helvetica,sans-Serif" font-size="9.00">Yes</text>
</g>
<!-- Reject3&#45;&gt;Exit -->
<g id="edge10" class="edge">
<title>Reject3&#45;&gt;Exit</title>
<path fill="none" stroke="black" d="M265.19,-1119.6C255.14,-1090.92 239.25,-1038.26 239.25,-991.75 239.25,-991.75 239.25,-991.75 239.25,-100 239.25,-80.38 248.5,-60.4 257.88,-45.19"/>
<polygon fill="black" stroke="black" points="260.56,-47.48 263.13,-37.2 254.71,-43.64 260.56,-47.48"/>
</g>
<!-- Check4 -->
<g id="node9" class="node">
<title>Check4</title>
<polygon fill="lightyellow" stroke="black" points="398.25,-1102 275.75,-1058 398.25,-1014 520.75,-1058 398.25,-1102"/>
<text xml:space="preserve" text-anchor="middle" x="398.25" y="-1066.5" font-family="Helvetica,sans-Serif" font-size="10.00">Check 4: Function Code</text>
<text xml:space="preserve" text-anchor="middle" x="398.25" y="-1054.5" font-family="Helvetica,sans-Serif" font-size="10.00">FC01&#45;06, FC15&#45;16</text>
<text xml:space="preserve" text-anchor="middle" x="398.25" y="-1042.5" font-family="Helvetica,sans-Serif" font-size="10.00">supported?</text>
</g>
<!-- IncrementBus&#45;&gt;Check4 -->
<g id="edge11" class="edge">
<title>IncrementBus&#45;&gt;Check4</title>
<path fill="none" stroke="black" d="M398.25,-1181.55C398.25,-1164.53 398.25,-1137.74 398.25,-1113.54"/>
<polygon fill="black" stroke="black" points="401.75,-1113.8 398.25,-1103.8 394.75,-1113.8 401.75,-1113.8"/>
</g>
<!-- CallUnknown -->
<g id="node10" class="node">
<title>CallUnknown</title>
<polygon fill="orange" stroke="black" points="379.88,-967.5 268.62,-967.5 268.62,-923.5 379.88,-923.5 379.88,-967.5"/>
<text xml:space="preserve" text-anchor="middle" x="324.25" y="-954" font-family="Helvetica,sans-Serif" font-size="10.00">Call</text>
<text xml:space="preserve" text-anchor="middle" x="324.25" y="-942" font-family="Helvetica,sans-Serif" font-size="10.00">onUnknownFunction()</text>
<text xml:space="preserve" text-anchor="middle" x="324.25" y="-930" font-family="Helvetica,sans-Serif" font-size="10.00">if registered</text>
</g>
<!-- Check4&#45;&gt;CallUnknown -->
<g id="edge12" class="edge">
<title>Check4&#45;&gt;CallUnknown</title>
<path fill="none" stroke="black" d="M374.84,-1022.04C365.13,-1007.55 353.98,-990.9 344.63,-976.93"/>
<polygon fill="black" stroke="black" points="347.79,-975.36 339.32,-969 341.97,-979.25 347.79,-975.36"/>
<text xml:space="preserve" text-anchor="middle" x="362.82" y="-987.45" font-family="Helvetica,sans-Serif" font-size="9.00">No</text>
</g>
<!-- IncrementSlave -->
<g id="node12" class="node">
<title>IncrementSlave</title>
<polygon fill="#e6f2ff" stroke="black" points="564.12,-963.5 400.38,-963.5 400.38,-927.5 564.12,-927.5 564.12,-963.5"/>
<text xml:space="preserve" text-anchor="middle" x="482.25" y="-942" font-family="Helvetica,sans-Serif" font-size="10.00">Increment slave message counter</text>
</g>
<!-- Check4&#45;&gt;IncrementSlave -->
<g id="edge13" class="edge">
<title>Check4&#45;&gt;IncrementSlave</title>
<path fill="none" stroke="black" d="M424.14,-1022.94C436.43,-1006.77 450.9,-987.74 462.32,-972.71"/>
<polygon fill="black" stroke="black" points="464.82,-975.22 468.08,-965.14 459.24,-970.98 464.82,-975.22"/>
<text xml:space="preserve" text-anchor="middle" x="457.74" y="-987.45" font-family="Helvetica,sans-Serif" font-size="9.00">Yes</text>
</g>
<!-- SendException -->
<g id="node11" class="node">
<title>SendException</title>
<polygon fill="lightcoral" stroke="black" points="386.38,-756.5 254.12,-756.5 254.12,-720.5 386.38,-720.5 386.38,-756.5"/>
<text xml:space="preserve" text-anchor="middle" x="320.25" y="-741" font-family="Helvetica,sans-Serif" font-size="10.00">Send Exception Response</text>
<text xml:space="preserve" text-anchor="middle" x="320.25" y="-729" font-family="Helvetica,sans-Serif" font-size="10.00">(0x80 + FC, Code 0x01)</text>
</g>
<!-- CallUnknown&#45;&gt;SendException -->
<g id="edge14" class="edge">
<title>CallUnknown&#45;&gt;SendException</title>
<path fill="none" stroke="black" d="M323.84,-923.33C323.11,-886.28 321.62,-809.64 320.81,-767.97"/>
<polygon fill="black" stroke="black" points="324.31,-768.17 320.62,-758.24 317.31,-768.31 324.31,-768.17"/>
</g>
<!-- SendException&#45;&gt;Exit -->
<g id="edge15" class="edge">
<title>SendException&#45;&gt;Exit</title>
<path fill="none" stroke="black" d="M308.73,-720.03C295.99,-698.99 277.25,-662.15 277.25,-627.5 277.25,-627.5 277.25,-627.5 277.25,-100 277.25,-82.69 277.25,-63.3 277.25,-47.83"/>
<polygon fill="black" stroke="black" points="280.75,-47.89 277.25,-37.89 273.75,-47.89 280.75,-47.89"/>
</g>
<!-- Check5 -->
<g id="node13" class="node">
<title>Check5</title>
<polygon fill="lightyellow" stroke="black" points="484.25,-886.5 359.5,-830.5 484.25,-774.5 609,-830.5 484.25,-886.5"/>
<text xml:space="preserve" text-anchor="middle" x="484.25" y="-845" font-family="Helvetica,sans-Serif" font-size="10.00">Check 5: Data Validation</text>
<text xml:space="preserve" text-anchor="middle" x="484.25" y="-833" font-family="Helvetica,sans-Serif" font-size="10.00">&#45; Address in range?</text>
<text xml:space="preserve" text-anchor="middle" x="484.25" y="-821" font-family="Helvetica,sans-Serif" font-size="10.00">&#45; Quantity valid?</text>
<text xml:space="preserve" text-anchor="middle" x="484.25" y="-809" font-family="Helvetica,sans-Serif" font-size="10.00">&#45; Register exists?</text>
</g>
<!-- IncrementSlave&#45;&gt;Check5 -->
<g id="edge16" class="edge">
<title>IncrementSlave&#45;&gt;Check5</title>
<path fill="none" stroke="black" d="M482.55,-927.34C482.7,-919 482.89,-908.4 483.09,-897.31"/>
<polygon fill="black" stroke="black" points="486.58,-897.69 483.26,-887.63 479.58,-897.56 486.58,-897.69"/>
</g>
<!-- SendException2 -->
<g id="node14" class="node">
<title>SendException2</title>
<polygon fill="lightcoral" stroke="black" points="454.88,-648.5 307.62,-648.5 307.62,-604.5 454.88,-604.5 454.88,-648.5"/>
<text xml:space="preserve" text-anchor="middle" x="381.25" y="-635" font-family="Helvetica,sans-Serif" font-size="10.00">Send Exception Response</text>
<text xml:space="preserve" text-anchor="middle" x="381.25" y="-623" font-family="Helvetica,sans-Serif" font-size="10.00">(Code 0x02: Illegal Address or</text>
<text xml:space="preserve" text-anchor="middle" x="381.25" y="-611" font-family="Helvetica,sans-Serif" font-size="10.00">Code 0x03: Illegal Value)</text>
</g>
<!-- Check5&#45;&gt;SendException2 -->
<g id="edge17" class="edge">
<title>Check5&#45;&gt;SendException2</title>
<path fill="none" stroke="black" d="M461.26,-784.42C441.84,-746.33 414.52,-692.75 397.36,-659.09"/>
<polygon fill="black" stroke="black" points="400.51,-657.58 392.85,-650.26 394.28,-660.76 400.51,-657.58"/>
<text xml:space="preserve" text-anchor="middle" x="451.86" y="-735.2" font-family="Helvetica,sans-Serif" font-size="9.00">No</text>
</g>
<!-- ReadAction -->
<g id="node15" class="node">
<title>ReadAction</title>
<polygon fill="#ccffcc" stroke="black" points="531.62,-702.5 436.88,-702.5 436.88,-666.5 531.62,-666.5 531.62,-702.5"/>
<text xml:space="preserve" text-anchor="middle" x="484.25" y="-687" font-family="Helvetica,sans-Serif" font-size="10.00">READ Operations</text>
<text xml:space="preserve" text-anchor="middle" x="484.25" y="-675" font-family="Helvetica,sans-Serif" font-size="10.00">(FC01&#45;04)</text>
</g>
<!-- Check5&#45;&gt;ReadAction -->
<g id="edge18" class="edge">
<title>Check5&#45;&gt;ReadAction</title>
<path fill="none" stroke="black" d="M484.25,-774.24C484.25,-753.81 484.25,-731.49 484.25,-714.34"/>
<polygon fill="black" stroke="black" points="487.75,-714.38 484.25,-704.38 480.75,-714.38 487.75,-714.38"/>
<text xml:space="preserve" text-anchor="middle" x="507.12" y="-735.2" font-family="Helvetica,sans-Serif" font-size="9.00">Yes (Read)</text>
</g>
<!-- WriteAction -->
<g id="node18" class="node">
<title>WriteAction</title>
<polygon fill="#ccffcc" stroke="black" points="653.75,-702.5 550.75,-702.5 550.75,-666.5 653.75,-666.5 653.75,-702.5"/>
<text xml:space="preserve" text-anchor="middle" x="602.25" y="-687" font-family="Helvetica,sans-Serif" font-size="10.00">WRITE Operations</text>
<text xml:space="preserve" text-anchor="middle" x="602.25" y="-675" font-family="Helvetica,sans-Serif" font-size="10.00">(FC05&#45;06, FC15&#45;16)</text>
</g>
<!-- Check5&#45;&gt;WriteAction -->
<g id="edge19" class="edge">
<title>Check5&#45;&gt;WriteAction</title>
<path fill="none" stroke="black" d="M517.43,-789C537.83,-764.11 563.36,-732.96 581.05,-711.37"/>
<polygon fill="black" stroke="black" points="583.53,-713.87 587.16,-703.92 578.11,-709.43 583.53,-713.87"/>
<text xml:space="preserve" text-anchor="middle" x="592.73" y="-735.2" font-family="Helvetica,sans-Serif" font-size="9.00">Yes (Write)</text>
</g>
<!-- SendException2&#45;&gt;Exit -->
<g id="edge20" class="edge">
<title>SendException2&#45;&gt;Exit</title>
<path fill="none" stroke="black" d="M354.41,-604.04C336.13,-586.87 315.25,-561.01 315.25,-532.5 315.25,-532.5 315.25,-532.5 315.25,-100 315.25,-80.38 306,-60.4 296.62,-45.19"/>
<polygon fill="black" stroke="black" points="299.79,-43.64 291.37,-37.2 293.94,-47.48 299.79,-43.64"/>
</g>
<!-- CallOnRead -->
<g id="node16" class="node">
<title>CallOnRead</title>
<polygon fill="orange" stroke="black" points="543.38,-586.5 423.12,-586.5 423.12,-550.5 543.38,-550.5 543.38,-586.5"/>
<text xml:space="preserve" text-anchor="middle" x="483.25" y="-571" font-family="Helvetica,sans-Serif" font-size="10.00">Call onRead() callbacks</text>
<text xml:space="preserve" text-anchor="middle" x="483.25" y="-559" font-family="Helvetica,sans-Serif" font-size="10.00">for each address</text>
</g>
<!-- ReadAction&#45;&gt;CallOnRead -->
<g id="edge21" class="edge">
<title>ReadAction&#45;&gt;CallOnRead</title>
<path fill="none" stroke="black" d="M484.1,-666.19C483.94,-648.19 483.69,-619.72 483.5,-598.32"/>
<polygon fill="black" stroke="black" points="487,-598.46 483.42,-588.49 480,-598.52 487,-598.46"/>
</g>
<!-- CollectData -->
<g id="node17" class="node">
<title>CollectData</title>
<polygon fill="#e6f2ff" stroke="black" points="541,-459.5 427.5,-459.5 427.5,-423.5 541,-423.5 541,-459.5"/>
<text xml:space="preserve" text-anchor="middle" x="484.25" y="-444" font-family="Helvetica,sans-Serif" font-size="10.00">Collect register values</text>
<text xml:space="preserve" text-anchor="middle" x="484.25" y="-432" font-family="Helvetica,sans-Serif" font-size="10.00">from Register Bank</text>
</g>
<!-- CallOnRead&#45;&gt;CollectData -->
<g id="edge22" class="edge">
<title>CallOnRead&#45;&gt;CollectData</title>
<path fill="none" stroke="black" d="M483.39,-550.12C483.55,-529.69 483.83,-495.49 484.02,-471.12"/>
<polygon fill="black" stroke="black" points="487.52,-471.27 484.1,-461.25 480.52,-471.22 487.52,-471.27"/>
</g>
<!-- BuildResponse -->
<g id="node22" class="node">
<title>BuildResponse</title>
<polygon fill="#ccffcc" stroke="black" points="569.12,-332.5 453.38,-332.5 453.38,-276.5 569.12,-276.5 569.12,-332.5"/>
<text xml:space="preserve" text-anchor="middle" x="511.25" y="-319" font-family="Helvetica,sans-Serif" font-size="10.00">Build Response Frame</text>
<text xml:space="preserve" text-anchor="middle" x="511.25" y="-307" font-family="Helvetica,sans-Serif" font-size="10.00">&#45; Echo request (writes)</text>
<text xml:space="preserve" text-anchor="middle" x="511.25" y="-295" font-family="Helvetica,sans-Serif" font-size="10.00">&#45; Pack data (reads)</text>
<text xml:space="preserve" text-anchor="middle" x="511.25" y="-283" font-family="Helvetica,sans-Serif" font-size="10.00">&#45; Calculate CRC</text>
</g>
<!-- CollectData&#45;&gt;BuildResponse -->
<g id="edge23" class="edge">
<title>CollectData&#45;&gt;BuildResponse</title>
<path fill="none" stroke="black" d="M487.72,-423.13C491.71,-403.21 498.36,-369.97 503.57,-343.89"/>
<polygon fill="black" stroke="black" points="506.95,-344.83 505.48,-334.34 500.09,-343.46 506.95,-344.83"/>
</g>
<!-- UpdateBank -->
<g id="node19" class="node">
<title>UpdateBank</title>
<polygon fill="#e6f2ff" stroke="black" points="642.88,-586.5 561.62,-586.5 561.62,-550.5 642.88,-550.5 642.88,-586.5"/>
<text xml:space="preserve" text-anchor="middle" x="602.25" y="-571" font-family="Helvetica,sans-Serif" font-size="10.00">Write values to</text>
<text xml:space="preserve" text-anchor="middle" x="602.25" y="-559" font-family="Helvetica,sans-Serif" font-size="10.00">Register Bank</text>
</g>
<!-- WriteAction&#45;&gt;UpdateBank -->
<g id="edge24" class="edge">
<title>WriteAction&#45;&gt;UpdateBank</title>
<path fill="none" stroke="black" d="M602.25,-666.19C602.25,-648.19 602.25,-619.72 602.25,-598.32"/>
<polygon fill="black" stroke="black" points="605.75,-598.49 602.25,-588.49 598.75,-598.49 605.75,-598.49"/>
</g>
<!-- NormalizeCoils -->
<g id="node21" class="node">
<title>NormalizeCoils</title>
<polygon fill="#ffffcc" stroke="black" points="656.12,-513.5 546.38,-513.5 546.38,-477.5 656.12,-477.5 656.12,-513.5"/>
<text xml:space="preserve" text-anchor="middle" x="601.25" y="-498" font-family="Helvetica,sans-Serif" font-size="10.00">Normalize coil values</text>
<text xml:space="preserve" text-anchor="middle" x="601.25" y="-486" font-family="Helvetica,sans-Serif" font-size="10.00">(0x00FF or 0x0000)</text>
</g>
<!-- UpdateBank&#45;&gt;NormalizeCoils -->
<g id="edge25" class="edge">
<title>UpdateBank&#45;&gt;NormalizeCoils</title>
<path fill="none" stroke="black" d="M602.01,-550.31C601.9,-542.73 601.77,-533.6 601.65,-525.04"/>
<polygon fill="black" stroke="black" points="605.15,-524.99 601.51,-515.04 598.15,-525.09 605.15,-524.99"/>
</g>
<!-- CallOnWrite -->
<g id="node20" class="node">
<title>CallOnWrite</title>
<polygon fill="orange" stroke="black" points="651,-405.5 531.5,-405.5 531.5,-369.5 651,-369.5 651,-405.5"/>
<text xml:space="preserve" text-anchor="middle" x="591.25" y="-390" font-family="Helvetica,sans-Serif" font-size="10.00">Call onWrite() callbacks</text>
<text xml:space="preserve" text-anchor="middle" x="591.25" y="-378" font-family="Helvetica,sans-Serif" font-size="10.00">for each address</text>
</g>
<!-- CallOnWrite&#45;&gt;BuildResponse -->
<g id="edge27" class="edge">
<title>CallOnWrite&#45;&gt;BuildResponse</title>
<path fill="none" stroke="black" d="M574.28,-369.32C566.11,-361.05 556,-350.81 546.28,-340.97"/>
<polygon fill="black" stroke="black" points="548.85,-338.58 539.33,-333.93 543.87,-343.5 548.85,-338.58"/>
</g>
<!-- NormalizeCoils&#45;&gt;CallOnWrite -->
<g id="edge26" class="edge">
<title>NormalizeCoils&#45;&gt;CallOnWrite</title>
<path fill="none" stroke="black" d="M599.64,-477.47C598.11,-461.26 595.78,-436.56 593.97,-417.29"/>
<polygon fill="black" stroke="black" points="597.45,-416.97 593.03,-407.35 590.48,-417.63 597.45,-416.97"/>
</g>
<!-- CheckBroadcast -->
<g id="node23" class="node">
<title>CheckBroadcast</title>
<polygon fill="lightyellow" stroke="black" points="511.25,-239.5 421.75,-207.5 511.25,-175.5 600.75,-207.5 511.25,-239.5"/>
<text xml:space="preserve" text-anchor="middle" x="511.25" y="-210" font-family="Helvetica,sans-Serif" font-size="10.00">Was it broadcast</text>
<text xml:space="preserve" text-anchor="middle" x="511.25" y="-198" font-family="Helvetica,sans-Serif" font-size="10.00">(ID=0)?</text>
</g>
<!-- BuildResponse&#45;&gt;CheckBroadcast -->
<g id="edge28" class="edge">
<title>BuildResponse&#45;&gt;CheckBroadcast</title>
<path fill="none" stroke="black" d="M511.25,-276.02C511.25,-268.26 511.25,-259.63 511.25,-251.2"/>
<polygon fill="black" stroke="black" points="514.75,-251.44 511.25,-241.44 507.75,-251.44 514.75,-251.44"/>
</g>
<!-- SendResponse -->
<g id="node24" class="node">
<title>SendResponse</title>
<polygon fill="#ccffcc" stroke="black" points="449.25,-129 343.25,-129 343.25,-73 449.25,-73 449.25,-129"/>
<text xml:space="preserve" text-anchor="middle" x="396.25" y="-115.5" font-family="Helvetica,sans-Serif" font-size="10.00">Send Response</text>
<text xml:space="preserve" text-anchor="middle" x="396.25" y="-103.5" font-family="Helvetica,sans-Serif" font-size="10.00">&#45; TX Enable (RS485)</text>
<text xml:space="preserve" text-anchor="middle" x="396.25" y="-91.5" font-family="Helvetica,sans-Serif" font-size="10.00">&#45; Write bytes</text>
<text xml:space="preserve" text-anchor="middle" x="396.25" y="-79.5" font-family="Helvetica,sans-Serif" font-size="10.00">&#45; TX Disable</text>
</g>
<!-- CheckBroadcast&#45;&gt;SendResponse -->
<g id="edge29" class="edge">
<title>CheckBroadcast&#45;&gt;SendResponse</title>
<path fill="none" stroke="black" d="M486.58,-184.08C471.38,-170.27 451.58,-152.27 434.39,-136.66"/>
<polygon fill="black" stroke="black" points="437.07,-134.36 427.31,-130.22 432.36,-139.54 437.07,-134.36"/>
<text xml:space="preserve" text-anchor="middle" x="481.95" y="-148.95" font-family="Helvetica,sans-Serif" font-size="9.00">No (unicast)</text>
</g>
<!-- SilentSuccess -->
<g id="node25" class="node">
<title>SilentSuccess</title>
<polygon fill="#e6ffe6" stroke="black" points="599.38,-119 467.12,-119 467.12,-83 599.38,-83 599.38,-119"/>
<text xml:space="preserve" text-anchor="middle" x="533.25" y="-103.5" font-family="Helvetica,sans-Serif" font-size="10.00">Silent success</text>
<text xml:space="preserve" text-anchor="middle" x="533.25" y="-91.5" font-family="Helvetica,sans-Serif" font-size="10.00">(no response to broadcast)</text>
</g>
<!-- CheckBroadcast&#45;&gt;SilentSuccess -->
<g id="edge30" class="edge">
<title>CheckBroadcast&#45;&gt;SilentSuccess</title>
<path fill="none" stroke="black" d="M517.38,-177.39C520.49,-162.62 524.25,-144.75 527.33,-130.12"/>
<polygon fill="black" stroke="black" points="530.68,-131.19 529.32,-120.68 523.83,-129.75 530.68,-131.19"/>
<text xml:space="preserve" text-anchor="middle" x="531.07" y="-148.95" font-family="Helvetica,sans-Serif" font-size="9.00">Yes</text>
</g>
<!-- SendResponse&#45;&gt;Exit -->
<g id="edge31" class="edge">
<title>SendResponse&#45;&gt;Exit</title>
<path fill="none" stroke="black" d="M356.61,-72.7C347.63,-66.53 338.12,-60.03 329.25,-54 323.28,-49.94 316.92,-45.64 310.77,-41.49"/>
<polygon fill="black" stroke="black" points="312.86,-38.69 302.61,-36 308.95,-44.49 312.86,-38.69"/>
</g>
<!-- SilentSuccess&#45;&gt;Exit -->
<g id="edge32" class="edge">
<title>SilentSuccess&#45;&gt;Exit</title>
<path fill="none" stroke="black" d="M486.18,-82.6C476.95,-79.32 467.32,-75.98 458.25,-73 416.19,-59.17 368.14,-44.9 332.12,-34.51"/>
<polygon fill="black" stroke="black" points="333.39,-31.23 322.81,-31.83 331.45,-37.96 333.39,-31.23"/>
</g>
</g>
</svg>

<g id="navigator" transform="translate(0 0)" fill="#404254">
  <rect fill="#f2f5e9" fill-opacity="0.5" stroke="#606060" stroke-width=".5" x="0" y="0" width="60" height="60"/>
  <use id="zoomplus" xlink:href="#zoomPlus" x="17" y="9" onmousedown="handleZoom(evt,'in')"/>
  <use id="zoomminus" xlink:href="#zoomMin" x="42" y="9" onmousedown="handleZoom(evt,'out')"/>
  <use id="reset" xlink:href="#resetDef" x="30" y="36" onmousedown="handleReset()"/>
   <use id="arrowup" xlink:href="#arrowUp" x="0" y="0" onmousedown="handlePan(0,-1)"/>
  <use id="arrowright" xlink:href="#arrowRight" x="0" y="0" onmousedown="handlePan(1,0)"/>
  <use id="arrowdown" xlink:href="#arrowDown" x="0" y="0" onmousedown="handlePan(0,1)"/>
  <use id="arrowleft" xlink:href="#arrowLeft" x="0" y="0" onmousedown="handlePan(-1,0)"/>
</g>
<svg viewBox="0 0 15 15" width="100%" height="30px" preserveAspectRatio="xMaxYMin meet">
 <g id="arrow_out" transform="scale(0.3 0.3)">
  <a xlink:href="dot_inline_dotgraph_b1334f0f56ff901053d1f129f056b62b_org.svg" target="_base">
   <rect id="button" ry="5" rx="5" y="6" x="6" height="38" width="38"
        fill="#f2f5e9" fill-opacity="0.5" stroke="#606060" stroke-width="1.0"/>
   <path id="arrow"
     d="M 11.500037,31.436501 C 11.940474,20.09759 22.043105,11.32322 32.158766,21.979434 L 37.068811,17.246167 C 37.068811,17.246167 37.088388,32 37.088388,32 L 22.160133,31.978069 C 22.160133,31.978069 26.997745,27.140456 26.997745,27.140456 C 18.528582,18.264221 13.291696,25.230495 11.500037,31.436501 z"
     style="fill:#404040;"/>
  </a>
 </g>
</svg>

<style type='text/css'>
<![CDATA[
[data-mouse-over-selected='false'] { opacity: 0.7; }
[data-mouse-over-selected='true']  { opacity: 1.0; }
]]>
</style>
<script type="application/ecmascript"><![CDATA[
document.addEventListener('DOMContentLoaded', (event) => {
  highlightEdges();
  highlightAdjacentNodes();
});
]]></script>
</svg>
