<?xml version="1.0" encoding="UTF-8" standalone="no"?>
<!DOCTYPE svg PUBLIC "-//W3C//DTD SVG 1.1//EN"
 "http://www.w3.org/Graphics/SVG/1.1/DTD/svg11.dtd">
<!-- Generated by graphviz version 14.1.3 (20260303.0454)
 -->
<!-- Title: LayeredArchitecture Pages: 1 -->
<svg width="267pt" height="310pt"
 viewBox="0.00 0.00 267.00 310.00" xmlns="http://www.w3.org/2000/svg" xmlns:xlink="http://www.w3.org/1999/xlink">
<g id="graph0" class="graph" transform="scale(1 1) rotate(0) translate(4 305.5)">
<title>LayeredArchitecture</title>
<polygon fill="white" stroke="none" points="-4,4 -4,-305.5 263.23,-305.5 263.23,4 -4,4"/>
<!-- HW -->
<g id="node1" class="node">
<title>HW</title>
<path fill="#f2f2f2" stroke="black" d="M145.75,-301.5C145.75,-301.5 61.5,-301.5 61.5,-301.5 55.5,-301.5 49.5,-295.5 49.5,-289.5 49.5,-289.5 49.5,-277.5 49.5,-277.5 49.5,-271.5 55.5,-265.5 61.5,-265.5 61.5,-265.5 145.75,-265.5 145.75,-265.5 151.75,-265.5 157.75,-271.5 157.75,-277.5 157.75,-277.5 157.75,-289.5 157.75,-289.5 157.75,-295.5 151.75,-301.5 145.75,-301.5"/>
<text xml:space="preserve" text-anchor="middle" x="103.62" y="-286" font-family="Helvetica,sans-Serif" font-size="10.00">Hardware Layer</text>
<text xml:space="preserve" text-anchor="middle" x="103.62" y="-274" font-family="Helvetica,sans-Serif" font-size="10.00">Serial/RS485 Stream</text>
</g>
<!-- PROTO -->
<g id="node2" class="node">
<title>PROTO</title>
<path fill="#e6f2ff" stroke="black" d="M131.12,-213C131.12,-213 76.12,-213 76.12,-213 70.12,-213 64.12,-207 64.12,-201 64.12,-201 64.12,-189 64.12,-189 64.12,-183 70.12,-177 76.12,-177 76.12,-177 131.12,-177 131.12,-177 137.12,-177 143.12,-183 143.12,-189 143.12,-189 143.12,-201 143.12,-201 143.12,-207 137.12,-213 131.12,-213"/>
<text xml:space="preserve" text-anchor="middle" x="103.62" y="-197.5" font-family="Helvetica,sans-Serif" font-size="10.00">Protocol Layer</text>
<text xml:space="preserve" text-anchor="middle" x="103.62" y="-185.5" font-family="Helvetica,sans-Serif" font-size="10.00">modbusSlave</text>
</g>
<!-- HW&#45;&gt;PROTO -->
<g id="edge1" class="edge">
<title>HW&#45;&gt;PROTO</title>
<path fill="none" stroke="black" d="M103.62,-265.41C103.62,-253.76 103.62,-238.05 103.62,-224.52"/>
<polygon fill="black" stroke="black" points="107.13,-224.86 103.63,-214.86 100.13,-224.86 107.13,-224.86"/>
<text xml:space="preserve" text-anchor="middle" x="149.75" y="-234.2" font-family="Times New Roman,serif" font-size="14.00">raw UART bytes</text>
</g>
<!-- DEVICE -->
<g id="node3" class="node">
<title>DEVICE</title>
<path fill="#e6ffe6" stroke="black" d="M69.25,-124.5C69.25,-124.5 12,-124.5 12,-124.5 6,-124.5 0,-118.5 0,-112.5 0,-112.5 0,-100.5 0,-100.5 0,-94.5 6,-88.5 12,-88.5 12,-88.5 69.25,-88.5 69.25,-88.5 75.25,-88.5 81.25,-94.5 81.25,-100.5 81.25,-100.5 81.25,-112.5 81.25,-112.5 81.25,-118.5 75.25,-124.5 69.25,-124.5"/>
<text xml:space="preserve" text-anchor="middle" x="40.62" y="-109" font-family="Helvetica,sans-Serif" font-size="10.00">Identity Layer</text>
<text xml:space="preserve" text-anchor="middle" x="40.62" y="-97" font-family="Helvetica,sans-Serif" font-size="10.00">modbusDevice</text>
</g>
<!-- PROTO&#45;&gt;DEVICE -->
<g id="edge2" class="edge">
<title>PROTO&#45;&gt;DEVICE</title>
<path fill="none" stroke="black" d="M70.72,-176.57C63.98,-171.68 57.53,-165.8 52.88,-159 48.27,-152.27 45.39,-144.03 43.58,-136.12"/>
<polygon fill="black" stroke="black" points="47.07,-135.74 41.9,-126.49 40.17,-136.94 47.07,-135.74"/>
<text xml:space="preserve" text-anchor="middle" x="101.25" y="-145.7" font-family="Times New Roman,serif" font-size="14.00">slave id + routing</text>
</g>
<!-- DATA -->
<g id="node4" class="node">
<title>DATA</title>
<path fill="#fff5e6" stroke="black" d="M133.12,-36C133.12,-36 66.12,-36 66.12,-36 60.12,-36 54.12,-30 54.12,-24 54.12,-24 54.12,-12 54.12,-12 54.12,-6 60.12,0 66.12,0 66.12,0 133.12,0 133.12,0 139.12,0 145.12,-6 145.12,-12 145.12,-12 145.12,-24 145.12,-24 145.12,-30 139.12,-36 133.12,-36"/>
<text xml:space="preserve" text-anchor="middle" x="99.62" y="-20.5" font-family="Helvetica,sans-Serif" font-size="10.00">Data Layer</text>
<text xml:space="preserve" text-anchor="middle" x="99.62" y="-8.5" font-family="Helvetica,sans-Serif" font-size="10.00">modbusRegBank</text>
</g>
<!-- DEVICE&#45;&gt;DATA -->
<g id="edge3" class="edge">
<title>DEVICE&#45;&gt;DATA</title>
<path fill="none" stroke="black" d="M35.13,-88.14C32.84,-77.59 31.92,-64.21 37.88,-54 40.15,-50.1 43.04,-46.6 46.31,-43.46"/>
<polygon fill="black" stroke="black" points="48.34,-46.32 53.96,-37.34 43.97,-40.86 48.34,-46.32"/>
<text xml:space="preserve" text-anchor="middle" x="93.75" y="-57.2" font-family="Times New Roman,serif" font-size="14.00">addressed read/write</text>
</g>
<!-- DATA&#45;&gt;PROTO -->
<g id="edge4" class="edge">
<title>DATA&#45;&gt;PROTO</title>
<path fill="none" stroke="black" d="M134.02,-36.37C140.3,-41.19 146,-47.05 149.62,-54 171.18,-95.39 170.35,-117.19 149.62,-159 147.88,-162.52 145.59,-165.79 142.96,-168.79"/>
<polygon fill="black" stroke="black" points="140.75,-166.07 135.94,-175.51 145.58,-171.13 140.75,-166.07"/>
<text xml:space="preserve" text-anchor="middle" x="212.35" y="-101.45" font-family="Times New Roman,serif" font-size="14.00">response payload</text>
</g>
</g>
</svg>
