<?xml version="1.0" encoding="UTF-8" standalone="no"?>
<!DOCTYPE svg PUBLIC "-//W3C//DTD SVG 1.1//EN"
 "http://www.w3.org/Graphics/SVG/1.1/DTD/svg11.dtd">
<!-- Generated by graphviz version 14.1.3 (20260303.0454)
 -->
<!-- Title: ParserFSM Pages: 1 -->
<svg width="586pt" height="132pt"
 viewBox="0.00 0.00 586.00 132.00" xmlns="http://www.w3.org/2000/svg" xmlns:xlink="http://www.w3.org/1999/xlink">
<g id="graph0" class="graph" transform="scale(1 1) rotate(0) translate(4 128)">
<title>ParserFSM</title>
<polygon fill="white" stroke="none" points="-4,4 -4,-128 581.5,-128 581.5,4 -4,4"/>
<!-- IDLE -->
<g id="node1" class="node">
<title>IDLE</title>
<path fill="none" stroke="black" d="M73,-53C73,-53 12,-53 12,-53 6,-53 0,-47 0,-41 0,-41 0,-29 0,-29 0,-23 6,-17 12,-17 12,-17 73,-17 73,-17 79,-17 85,-23 85,-29 85,-29 85,-41 85,-41 85,-47 79,-53 73,-53"/>
<text xml:space="preserve" text-anchor="middle" x="42.5" y="-31.5" font-family="Helvetica,sans-Serif" font-size="10.00">PARSER_IDLE</text>
</g>
<!-- RX -->
<g id="node2" class="node">
<title>RX</title>
<path fill="none" stroke="black" d="M326,-73C326,-73 231.25,-73 231.25,-73 225.25,-73 219.25,-67 219.25,-61 219.25,-61 219.25,-49 219.25,-49 219.25,-43 225.25,-37 231.25,-37 231.25,-37 326,-37 326,-37 332,-37 338,-43 338,-49 338,-49 338,-61 338,-61 338,-67 332,-73 326,-73"/>
<text xml:space="preserve" text-anchor="middle" x="278.62" y="-51.5" font-family="Helvetica,sans-Serif" font-size="10.00">PARSER_RECEIVING</text>
</g>
<!-- IDLE&#45;&gt;RX -->
<g id="edge1" class="edge">
<title>IDLE&#45;&gt;RX</title>
<path fill="none" stroke="black" d="M85.42,-49.28C91.26,-50.8 97.24,-52.11 103,-53 137.16,-58.25 175.53,-59.23 207.58,-58.69"/>
<polygon fill="black" stroke="black" points="207.65,-62.19 217.57,-58.46 207.49,-55.19 207.65,-62.19"/>
<text xml:space="preserve" text-anchor="middle" x="152.12" y="-62.02" font-family="Times New Roman,serif" font-size="14.00">first byte received</text>
</g>
<!-- RX&#45;&gt;IDLE -->
<g id="edge4" class="edge">
<title>RX&#45;&gt;IDLE</title>
<path fill="none" stroke="black" d="M221.72,-36.55C214.89,-34.89 207.95,-33.47 201.25,-32.5 158.03,-26.27 146.66,-31.58 103,-32.5 100.96,-32.54 98.87,-32.59 96.77,-32.65"/>
<polygon fill="black" stroke="black" points="96.82,-29.15 86.94,-32.97 97.05,-36.14 96.82,-29.15"/>
<text xml:space="preserve" text-anchor="middle" x="152.12" y="-35.7" font-family="Times New Roman,serif" font-size="14.00">overflow or reset</text>
</g>
<!-- RX&#45;&gt;RX -->
<g id="edge2" class="edge">
<title>RX&#45;&gt;RX</title>
<path fill="none" stroke="black" d="M256.83,-73.15C253.47,-82.54 260.74,-91 278.62,-91 288.69,-91 295.39,-88.32 298.73,-84.31"/>
<polygon fill="black" stroke="black" points="302.15,-85.06 300.2,-74.65 295.23,-84.01 302.15,-85.06"/>
<text xml:space="preserve" text-anchor="middle" x="278.62" y="-110.7" font-family="Times New Roman,serif" font-size="14.00">more bytes;</text>
<text xml:space="preserve" text-anchor="middle" x="278.62" y="-94.2" font-family="Times New Roman,serif" font-size="14.00">reset silence timer</text>
</g>
<!-- COMPLETE -->
<g id="node3" class="node">
<title>COMPLETE</title>
<path fill="none" stroke="black" d="M565.5,-36C565.5,-36 472.25,-36 472.25,-36 466.25,-36 460.25,-30 460.25,-24 460.25,-24 460.25,-12 460.25,-12 460.25,-6 466.25,0 472.25,0 472.25,0 565.5,0 565.5,0 571.5,0 577.5,-6 577.5,-12 577.5,-12 577.5,-24 577.5,-24 577.5,-30 571.5,-36 565.5,-36"/>
<text xml:space="preserve" text-anchor="middle" x="518.88" y="-14.5" font-family="Helvetica,sans-Serif" font-size="10.00">PARSER_COMPLETE</text>
</g>
<!-- RX&#45;&gt;COMPLETE -->
<g id="edge3" class="edge">
<title>RX&#45;&gt;COMPLETE</title>
<path fill="none" stroke="black" d="M338.21,-45.9C371.66,-40.71 413.77,-34.17 448.82,-28.72"/>
<polygon fill="black" stroke="black" points="449.09,-32.22 458.43,-27.23 448.01,-25.31 449.09,-32.22"/>
<text xml:space="preserve" text-anchor="middle" x="399.12" y="-46.23" font-family="Times New Roman,serif" font-size="14.00">silence &gt;= T3.5</text>
</g>
<!-- COMPLETE&#45;&gt;IDLE -->
<g id="edge5" class="edge">
<title>COMPLETE&#45;&gt;IDLE</title>
<path fill="none" stroke="black" d="M459.97,-15.38C424.72,-13.91 378.77,-12.24 338,-11.5 285.23,-10.55 271.93,-8.23 219.25,-11.5 167.28,-14.73 154.58,-18.88 103,-26 100.95,-26.28 98.87,-26.57 96.76,-26.87"/>
<polygon fill="black" stroke="black" points="96.31,-23.4 86.91,-28.3 97.31,-30.33 96.31,-23.4"/>
<text xml:space="preserve" text-anchor="middle" x="278.62" y="-14.7" font-family="Times New Roman,serif" font-size="14.00">processFrame() done</text>
</g>
</g>
</svg>
