<?xml version="1.0" encoding="UTF-8" standalone="no"?>
<!DOCTYPE svg PUBLIC "-//W3C//DTD SVG 1.1//EN"
 "http://www.w3.org/Graphics/SVG/1.1/DTD/svg11.dtd">
<!-- Generated by graphviz version 14.1.3 (20260303.0454)
 -->
<!-- Title: modbusDevice.h Pages: 1 -->
<svg width="248pt" height="140pt"
 viewBox="0.00 0.00 248.00 140.00" xmlns="http://www.w3.org/2000/svg" xmlns:xlink="http://www.w3.org/1999/xlink">

<svg id="main" version="1.1" xmlns="http://www.w3.org/2000/svg" xmlns:xlink="http://www.w3.org/1999/xlink" xml:space="preserve">

<style type="text/css"><![CDATA[
.node, .edge {opacity: 0.7;}
.node.selected, .edge.selected {opacity: 1;}
.edge:hover path { stroke: red; }
.edge:hover polygon { stroke: red; fill: red; }
]]></style>
<script type="application/ecmascript" xlink:href="svg.min.js"/>
<svg id="graph" class="graph">
<g id="graph0" class="graph" transform="scale(1 1) rotate(0) translate(4 136)">
<title>modbusDevice.h</title>
<!-- Node1 -->
<g id="Node000001" class="node">
<title>Node1</title>
<g id="a_Node000001"><a xlink:title="Modbus device abstraction that extends the register bank with slave ID handling.">
<polygon fill="#999999" stroke="#666666" points="172.75,-132 83.25,-132 83.25,-112 172.75,-112 172.75,-132"/>
<text xml:space="preserve" text-anchor="middle" x="128" y="-118.5" font-family="Helvetica,sans-Serif" font-size="10.00">modbusDevice.h</text>
</a>
</g>
</g>
<!-- Node2 -->
<g id="Node000002" class="node">
<title>Node2</title>
<g id="a_Node000002"><a xlink:href="modbus_device_8cpp.html" target="_top" xlink:title=" ">
<polygon fill="white" stroke="#666666" points="100,-76 0,-76 0,-56 100,-56 100,-76"/>
<text xml:space="preserve" text-anchor="middle" x="50" y="-62.5" font-family="Helvetica,sans-Serif" font-size="10.00">modbusDevice.cpp</text>
</a>
</g>
</g>
<!-- Node1&#45;&gt;Node2 -->
<g id="edge1_Node000001_Node000002" class="edge">
<title>Node1&#45;&gt;Node2</title>
<g id="a_edge1_Node000001_Node000002"><a xlink:title=" ">
<path fill="none" stroke="#63b8ff" d="M105.28,-105.27C91.81,-95.94 75.17,-84.43 63.69,-76.48"/>
<polygon fill="#63b8ff" stroke="#63b8ff" points="102.95,-107.92 113.17,-110.73 106.94,-102.16 102.95,-107.92"/>
</a>
</g>
</g>
<!-- Node3 -->
<g id="Node000003" class="node">
<title>Node3</title>
<g id="a_Node000003"><a xlink:href="modbus_slave_8cpp.html" target="_top" xlink:title=" ">
<polygon fill="white" stroke="#666666" points="210,-20 116,-20 116,0 210,0 210,-20"/>
<text xml:space="preserve" text-anchor="middle" x="163" y="-6.5" font-family="Helvetica,sans-Serif" font-size="10.00">modbusSlave.cpp</text>
</a>
</g>
</g>
<!-- Node1&#45;&gt;Node3 -->
<g id="edge2_Node000001_Node000003" class="edge">
<title>Node1&#45;&gt;Node3</title>
<g id="a_edge2_Node000001_Node000003"><a xlink:title=" ">
<path fill="none" stroke="#63b8ff" d="M133.58,-100.82C137.22,-87.94 142.17,-70.92 147,-56 151.03,-43.54 156.18,-29.32 159.53,-20.25"/>
<polygon fill="#63b8ff" stroke="#63b8ff" points="130.27,-99.66 130.95,-110.23 137.01,-101.54 130.27,-99.66"/>
</a>
</g>
</g>
<!-- Node4 -->
<g id="Node000004" class="node">
<title>Node4</title>
<g id="a_Node000004"><a xlink:href="modbus_slave_8h.html" target="_top" xlink:title="Modbus RTU slave protocol engine and callback API.">
<polygon fill="white" stroke="#666666" points="239.75,-76 156.25,-76 156.25,-56 239.75,-56 239.75,-76"/>
<text xml:space="preserve" text-anchor="middle" x="198" y="-62.5" font-family="Helvetica,sans-Serif" font-size="10.00">modbusSlave.h</text>
</a>
</g>
</g>
<!-- Node1&#45;&gt;Node4 -->
<g id="edge3_Node000001_Node000004" class="edge">
<title>Node1&#45;&gt;Node4</title>
<g id="a_edge3_Node000001_Node000004"><a xlink:title=" ">
<path fill="none" stroke="#63b8ff" d="M149.16,-104.68C161.2,-95.39 175.85,-84.09 185.95,-76.3"/>
<polygon fill="#63b8ff" stroke="#63b8ff" points="147.17,-101.79 141.39,-110.67 151.45,-107.33 147.17,-101.79"/>
</a>
</g>
</g>
<!-- Node4&#45;&gt;Node3 -->
<g id="edge4_Node000004_Node000003" class="edge">
<title>Node4&#45;&gt;Node3</title>
<g id="a_edge4_Node000004_Node000003"><a xlink:title=" ">
<path fill="none" stroke="#63b8ff" d="M185.78,-46.15C180.11,-37.4 173.62,-27.39 169.03,-20.3"/>
<polygon fill="#63b8ff" stroke="#63b8ff" points="182.7,-47.84 191.08,-54.32 188.58,-44.03 182.7,-47.84"/>
</a>
</g>
</g>
</g>
</svg>
</svg>

<style type='text/css'>
<![CDATA[
[data-mouse-over-selected='false'] { opacity: 0.7; }
[data-mouse-over-selected='true']  { opacity: 1.0; }
]]>
</style>
<script type="application/ecmascript"><![CDATA[
document.addEventListener('DOMContentLoaded', (event) => {
  highlightEdges();
  highlightAdjacentNodes();
});
]]></script>
</svg>
