<?xml version="1.0" encoding="UTF-8" standalone="no"?>
<!DOCTYPE svg PUBLIC "-//W3C//DTD SVG 1.1//EN"
 "http://www.w3.org/Graphics/SVG/1.1/DTD/svg11.dtd">
<!-- Generated by graphviz version 14.1.3 (20260303.0454)
 -->
<!-- Title: modbus.h Pages: 1 -->
<svg width="275pt" height="252pt"
 viewBox="0.00 0.00 275.00 252.00" xmlns="http://www.w3.org/2000/svg" xmlns:xlink="http://www.w3.org/1999/xlink">

<svg id="main" version="1.1" xmlns="http://www.w3.org/2000/svg" xmlns:xlink="http://www.w3.org/1999/xlink" xml:space="preserve">

<style type="text/css"><![CDATA[
.node, .edge {opacity: 0.7;}
.node.selected, .edge.selected {opacity: 1;}
.edge:hover path { stroke: red; }
.edge:hover polygon { stroke: red; fill: red; }
]]></style>
<script type="application/ecmascript" xlink:href="svg.min.js"/>
<svg id="graph" class="graph">
<g id="graph0" class="graph" transform="scale(1 1) rotate(0) translate(4 248)">
<title>modbus.h</title>
<!-- Node1 -->
<g id="Node000001" class="node">
<title>Node1</title>
<g id="a_Node000001"><a xlink:title="Core protocol constants, limits, and compile&#45;time configuration for the Modbus RTU library.">
<polygon fill="#999999" stroke="#666666" points="233.12,-244 174.38,-244 174.38,-224 233.12,-224 233.12,-244"/>
<text xml:space="preserve" text-anchor="middle" x="203.75" y="-230.5" font-family="Helvetica,sans-Serif" font-size="10.00">modbus.h</text>
</a>
</g>
</g>
<!-- Node2 -->
<g id="Node000002" class="node">
<title>Node2</title>
<g id="a_Node000002"><a xlink:href="modbus_device_8h.html" target="_top" xlink:title="Modbus device abstraction that extends the register bank with slave ID handling.">
<polygon fill="white" stroke="#666666" points="89.5,-132 0,-132 0,-112 89.5,-112 89.5,-132"/>
<text xml:space="preserve" text-anchor="middle" x="44.75" y="-118.5" font-family="Helvetica,sans-Serif" font-size="10.00">modbusDevice.h</text>
</a>
</g>
</g>
<!-- Node1&#45;&gt;Node2 -->
<g id="edge1_Node000001_Node000002" class="edge">
<title>Node1&#45;&gt;Node2</title>
<g id="a_edge1_Node000001_Node000002"><a xlink:title=" ">
<path fill="none" stroke="#63b8ff" d="M164.36,-219.62C145.07,-212.02 122.12,-201.34 103.75,-188 81.31,-171.7 60.96,-145.72 51.06,-132.07"/>
<polygon fill="#63b8ff" stroke="#63b8ff" points="162.93,-222.82 173.52,-223.09 165.41,-216.28 162.93,-222.82"/>
</a>
</g>
</g>
<!-- Node4 -->
<g id="Node000004" class="node">
<title>Node4</title>
<g id="a_Node000004"><a xlink:href="modbus_slave_8cpp.html" target="_top" xlink:title=" ">
<polygon fill="white" stroke="#666666" points="260.75,-20 166.75,-20 166.75,0 260.75,0 260.75,-20"/>
<text xml:space="preserve" text-anchor="middle" x="213.75" y="-6.5" font-family="Helvetica,sans-Serif" font-size="10.00">modbusSlave.cpp</text>
</a>
</g>
</g>
<!-- Node1&#45;&gt;Node4 -->
<g id="edge9_Node000001_Node000004" class="edge">
<title>Node1&#45;&gt;Node4</title>
<g id="a_edge9_Node000001_Node000004"><a xlink:title=" ">
<path fill="none" stroke="#63b8ff" d="M219.91,-215.18C226.28,-207.32 233.17,-197.69 237.75,-188 259.64,-141.71 258.71,-126.85 264.75,-76 265.8,-67.17 268.41,-64.1 264.75,-56 257.76,-40.5 242.49,-28.2 230.48,-20.4"/>
<polygon fill="#63b8ff" stroke="#63b8ff" points="217.4,-212.73 213.55,-222.6 222.71,-217.28 217.4,-212.73"/>
</a>
</g>
</g>
<!-- Node5 -->
<g id="Node000005" class="node">
<title>Node5</title>
<g id="a_Node000005"><a xlink:href="modbus_slave_8h.html" target="_top" xlink:title="Modbus RTU slave protocol engine and callback API.">
<polygon fill="white" stroke="#666666" points="255.5,-76 172,-76 172,-56 255.5,-56 255.5,-76"/>
<text xml:space="preserve" text-anchor="middle" x="213.75" y="-62.5" font-family="Helvetica,sans-Serif" font-size="10.00">modbusSlave.h</text>
</a>
</g>
</g>
<!-- Node1&#45;&gt;Node5 -->
<g id="edge10_Node000001_Node000005" class="edge">
<title>Node1&#45;&gt;Node5</title>
<g id="a_edge10_Node000001_Node000005"><a xlink:title=" ">
<path fill="none" stroke="#63b8ff" d="M213.14,-213.16C216.39,-205.46 219.72,-196.48 221.75,-188 229.62,-155.08 231.49,-145.52 226.75,-112 224.97,-99.44 220.53,-85.48 217.34,-76.49"/>
<polygon fill="#63b8ff" stroke="#63b8ff" points="209.97,-211.67 209.07,-222.23 216.35,-214.54 209.97,-211.67"/>
</a>
</g>
</g>
<!-- Node6 -->
<g id="Node000006" class="node">
<title>Node6</title>
<g id="a_Node000006"><a xlink:href="modbus_reg_bank_8h.html" target="_top" xlink:title="Register storage engine and typed data helpers for Modbus maps.">
<polygon fill="white" stroke="#666666" points="212.38,-188 113.12,-188 113.12,-168 212.38,-168 212.38,-188"/>
<text xml:space="preserve" text-anchor="middle" x="162.75" y="-174.5" font-family="Helvetica,sans-Serif" font-size="10.00">modbusRegBank.h</text>
</a>
</g>
</g>
<!-- Node1&#45;&gt;Node6 -->
<g id="edge6_Node000001_Node000006" class="edge">
<title>Node1&#45;&gt;Node6</title>
<g id="a_edge6_Node000001_Node000006"><a xlink:title=" ">
<path fill="none" stroke="#63b8ff" d="M189.66,-214.44C182.96,-205.62 175.25,-195.47 169.81,-188.3"/>
<polygon fill="#63b8ff" stroke="#63b8ff" points="186.86,-216.54 195.69,-222.39 192.43,-212.31 186.86,-216.54"/>
</a>
</g>
</g>
<!-- Node3 -->
<g id="Node000003" class="node">
<title>Node3</title>
<g id="a_Node000003"><a xlink:href="modbus_device_8cpp.html" target="_top" xlink:title=" ">
<polygon fill="white" stroke="#666666" points="153.75,-76 53.75,-76 53.75,-56 153.75,-56 153.75,-76"/>
<text xml:space="preserve" text-anchor="middle" x="103.75" y="-62.5" font-family="Helvetica,sans-Serif" font-size="10.00">modbusDevice.cpp</text>
</a>
</g>
</g>
<!-- Node2&#45;&gt;Node3 -->
<g id="edge2_Node000002_Node000003" class="edge">
<title>Node2&#45;&gt;Node3</title>
<g id="a_edge2_Node000002_Node000003"><a xlink:title=" ">
<path fill="none" stroke="#63b8ff" d="M63.49,-103.85C73.46,-94.72 85.33,-83.86 93.59,-76.3"/>
<polygon fill="#63b8ff" stroke="#63b8ff" points="61.16,-101.24 56.14,-110.57 65.88,-106.4 61.16,-101.24"/>
</a>
</g>
</g>
<!-- Node2&#45;&gt;Node4 -->
<g id="edge3_Node000002_Node000004" class="edge">
<title>Node2&#45;&gt;Node4</title>
<g id="a_edge3_Node000002_Node000004"><a xlink:title=" ">
<path fill="none" stroke="#63b8ff" d="M38.87,-101C36.04,-86.99 35.07,-68.59 44.75,-56 59.55,-36.74 121.87,-23.98 166.52,-17.11"/>
<polygon fill="#63b8ff" stroke="#63b8ff" points="35.41,-101.62 41.24,-110.46 42.2,-99.91 35.41,-101.62"/>
</a>
</g>
</g>
<!-- Node2&#45;&gt;Node5 -->
<g id="edge4_Node000002_Node000005" class="edge">
<title>Node2&#45;&gt;Node5</title>
<g id="a_edge4_Node000002_Node000005"><a xlink:title=" ">
<path fill="none" stroke="#63b8ff" d="M84.88,-108.18C115.34,-98.44 156.55,-85.28 184.08,-76.48"/>
<polygon fill="#63b8ff" stroke="#63b8ff" points="84.09,-104.76 75.63,-111.13 86.22,-111.42 84.09,-104.76"/>
</a>
</g>
</g>
<!-- Node5&#45;&gt;Node4 -->
<g id="edge5_Node000005_Node000004" class="edge">
<title>Node5&#45;&gt;Node4</title>
<g id="a_edge5_Node000005_Node000004"><a xlink:title=" ">
<path fill="none" stroke="#63b8ff" d="M213.75,-44.13C213.75,-35.9 213.75,-26.85 213.75,-20.3"/>
<polygon fill="#63b8ff" stroke="#63b8ff" points="210.25,-44.08 213.75,-54.08 217.25,-44.08 210.25,-44.08"/>
</a>
</g>
</g>
<!-- Node6&#45;&gt;Node2 -->
<g id="edge7_Node000006_Node000002" class="edge">
<title>Node6&#45;&gt;Node2</title>
<g id="a_edge7_Node000006_Node000002"><a xlink:title=" ">
<path fill="none" stroke="#63b8ff" d="M131.89,-162.88C110.95,-153.3 83.85,-140.89 65.46,-132.48"/>
<polygon fill="#63b8ff" stroke="#63b8ff" points="130.27,-165.99 140.82,-166.96 133.18,-159.62 130.27,-165.99"/>
</a>
</g>
</g>
<!-- Node7 -->
<g id="Node000007" class="node">
<title>Node7</title>
<g id="a_Node000007"><a xlink:href="modbus_reg_bank_8cpp.html" target="_top" xlink:title=" ">
<polygon fill="white" stroke="#666666" points="217.62,-132 107.88,-132 107.88,-112 217.62,-112 217.62,-132"/>
<text xml:space="preserve" text-anchor="middle" x="162.75" y="-118.5" font-family="Helvetica,sans-Serif" font-size="10.00">modbusRegBank.cpp</text>
</a>
</g>
</g>
<!-- Node6&#45;&gt;Node7 -->
<g id="edge8_Node000006_Node000007" class="edge">
<title>Node6&#45;&gt;Node7</title>
<g id="a_edge8_Node000006_Node000007"><a xlink:title=" ">
<path fill="none" stroke="#63b8ff" d="M162.75,-156.13C162.75,-147.9 162.75,-138.85 162.75,-132.3"/>
<polygon fill="#63b8ff" stroke="#63b8ff" points="159.25,-156.08 162.75,-166.08 166.25,-156.08 159.25,-156.08"/>
</a>
</g>
</g>
</g>
</svg>
</svg>

<style type='text/css'>
<![CDATA[
[data-mouse-over-selected='false'] { opacity: 0.7; }
[data-mouse-over-selected='true']  { opacity: 1.0; }
]]>
</style>
<script type="application/ecmascript"><![CDATA[
document.addEventListener('DOMContentLoaded', (event) => {
  highlightEdges();
  highlightAdjacentNodes();
});
]]></script>
</svg>
