<?xml version="1.0" encoding="UTF-8" standalone="no"?>
<!DOCTYPE svg PUBLIC "-//W3C//DTD SVG 1.1//EN"
 "http://www.w3.org/Graphics/SVG/1.1/DTD/svg11.dtd">
<!-- Generated by graphviz version 14.1.3 (20260303.0454)
 -->
<!-- Title: modbusDevice.h Pages: 1 -->
<svg width="196pt" height="196pt"
 viewBox="0.00 0.00 196.00 196.00" xmlns="http://www.w3.org/2000/svg" xmlns:xlink="http://www.w3.org/1999/xlink">
<g id="graph0" class="graph" transform="scale(1 1) rotate(0) translate(4 192)">
<title>modbusDevice.h</title>
<!-- Node1 -->
<g id="Node000001" class="node">
<title>Node1</title>
<g id="a_Node000001"><a xlink:title="Modbus device abstraction that extends the register bank with slave ID handling.">
<polygon fill="#999999" stroke="#666666" points="108.85,-188 19.35,-188 19.35,-168 108.85,-168 108.85,-188"/>
<text xml:space="preserve" text-anchor="middle" x="64.1" y="-174.5" font-family="Helvetica,sans-Serif" font-size="10.00">modbusDevice.h</text>
</a>
</g>
</g>
<!-- Node2 -->
<g id="Node000002" class="node">
<title>Node2</title>
<g id="a_Node000002"><a xlink:title=" ">
<polygon fill="#e0e0e0" stroke="#999999" points="126.23,-20 77.98,-20 77.98,0 126.23,0 126.23,-20"/>
<text xml:space="preserve" text-anchor="middle" x="102.1" y="-6.5" font-family="Helvetica,sans-Serif" font-size="10.00">stdint.h</text>
</a>
</g>
</g>
<!-- Node1&#45;&gt;Node2 -->
<g id="edge1_Node000001_Node000002" class="edge">
<title>Node1&#45;&gt;Node2</title>
<g id="a_edge1_Node000001_Node000002"><a xlink:title=" ">
<path fill="none" stroke="#63b8ff" d="M53.55,-167.8C31.03,-147.02 -17.73,-95.24 7.1,-56 20.17,-35.35 45.57,-23.99 66.82,-17.85"/>
<polygon fill="#63b8ff" stroke="#63b8ff" points="67.5,-21.29 76.31,-15.4 65.75,-14.51 67.5,-21.29"/>
</a>
</g>
</g>
<!-- Node3 -->
<g id="Node000003" class="node">
<title>Node3</title>
<g id="a_Node000003"><a xlink:title=" ">
<polygon fill="#e0e0e0" stroke="#999999" points="73.73,-76 16.48,-76 16.48,-56 73.73,-56 73.73,-76"/>
<text xml:space="preserve" text-anchor="middle" x="45.1" y="-62.5" font-family="Helvetica,sans-Serif" font-size="10.00">Arduino.h</text>
</a>
</g>
</g>
<!-- Node1&#45;&gt;Node3 -->
<g id="edge2_Node000001_Node000003" class="edge">
<title>Node1&#45;&gt;Node3</title>
<g id="a_edge2_Node000001_Node000003"><a xlink:title=" ">
<path fill="none" stroke="#63b8ff" d="M58.6,-167.74C53.69,-158.9 46.87,-145.05 44.1,-132 41.01,-117.43 41.37,-100.6 42.45,-87.72"/>
<polygon fill="#63b8ff" stroke="#63b8ff" points="45.92,-88.2 43.5,-77.89 38.96,-87.46 45.92,-88.2"/>
</a>
</g>
</g>
<!-- Node4 -->
<g id="Node000004" class="node">
<title>Node4</title>
<g id="a_Node000004"><a xlink:href="modbus_reg_bank_8h.html" target="_top" xlink:title="Register storage engine and typed data helpers for Modbus maps.">
<polygon fill="white" stroke="#666666" points="152.73,-132 53.48,-132 53.48,-112 152.73,-112 152.73,-132"/>
<text xml:space="preserve" text-anchor="middle" x="103.1" y="-118.5" font-family="Helvetica,sans-Serif" font-size="10.00">modbusRegBank.h</text>
</a>
</g>
</g>
<!-- Node1&#45;&gt;Node4 -->
<g id="edge3_Node000001_Node000004" class="edge">
<title>Node1&#45;&gt;Node4</title>
<g id="a_edge3_Node000001_Node000004"><a xlink:title=" ">
<path fill="none" stroke="#63b8ff" d="M70.9,-167.59C76.1,-160.39 83.43,-150.23 89.79,-141.43"/>
<polygon fill="#63b8ff" stroke="#63b8ff" points="92.48,-143.68 95.5,-133.53 86.81,-139.58 92.48,-143.68"/>
</a>
</g>
</g>
<!-- Node5 -->
<g id="Node000005" class="node">
<title>Node5</title>
<g id="a_Node000005"><a xlink:href="modbus_8h.html" target="_top" xlink:title="Core protocol constants, limits, and compile&#45;time configuration for the Modbus RTU library.">
<polygon fill="white" stroke="#666666" points="188.48,-76 129.73,-76 129.73,-56 188.48,-56 188.48,-76"/>
<text xml:space="preserve" text-anchor="middle" x="159.1" y="-62.5" font-family="Helvetica,sans-Serif" font-size="10.00">modbus.h</text>
</a>
</g>
</g>
<!-- Node1&#45;&gt;Node5 -->
<g id="edge8_Node000001_Node000005" class="edge">
<title>Node1&#45;&gt;Node5</title>
<g id="a_edge8_Node000001_Node000005"><a xlink:title=" ">
<path fill="none" stroke="#63b8ff" d="M109.2,-167.83C128.98,-161.33 150.33,-150.36 162.1,-132 170.59,-118.76 168.96,-100.7 165.71,-86.97"/>
<polygon fill="#63b8ff" stroke="#63b8ff" points="169.17,-86.37 163.06,-77.71 162.44,-88.29 169.17,-86.37"/>
</a>
</g>
</g>
<!-- Node4&#45;&gt;Node2 -->
<g id="edge4_Node000004_Node000002" class="edge">
<title>Node4&#45;&gt;Node2</title>
<g id="a_edge4_Node000004_Node000002"><a xlink:title=" ">
<path fill="none" stroke="#63b8ff" d="M103.02,-111.62C102.86,-94.01 102.51,-55.59 102.29,-31.65"/>
<polygon fill="#63b8ff" stroke="#63b8ff" points="105.79,-31.84 102.2,-21.87 98.79,-31.9 105.79,-31.84"/>
</a>
</g>
</g>
<!-- Node4&#45;&gt;Node3 -->
<g id="edge5_Node000004_Node000003" class="edge">
<title>Node4&#45;&gt;Node3</title>
<g id="a_edge5_Node000004_Node000003"><a xlink:title=" ">
<path fill="none" stroke="#63b8ff" d="M93,-111.59C84.85,-104.01 73.17,-93.13 63.39,-84.02"/>
<polygon fill="#63b8ff" stroke="#63b8ff" points="65.9,-81.58 56.2,-77.33 61.13,-86.71 65.9,-81.58"/>
</a>
</g>
</g>
<!-- Node4&#45;&gt;Node5 -->
<g id="edge6_Node000004_Node000005" class="edge">
<title>Node4&#45;&gt;Node5</title>
<g id="a_edge6_Node000004_Node000005"><a xlink:title=" ">
<path fill="none" stroke="#63b8ff" d="M112.86,-111.59C120.73,-104.01 132,-93.13 141.45,-84.02"/>
<polygon fill="#63b8ff" stroke="#63b8ff" points="143.6,-86.81 148.37,-77.35 138.74,-81.77 143.6,-86.81"/>
</a>
</g>
</g>
<!-- Node5&#45;&gt;Node2 -->
<g id="edge7_Node000005_Node000002" class="edge">
<title>Node5&#45;&gt;Node2</title>
<g id="a_edge7_Node000005_Node000002"><a xlink:title=" ">
<path fill="none" stroke="#63b8ff" d="M149.17,-55.59C141.16,-48.01 129.69,-37.13 120.07,-28.02"/>
<polygon fill="#63b8ff" stroke="#63b8ff" points="122.68,-25.68 113.02,-21.34 117.87,-30.76 122.68,-25.68"/>
</a>
</g>
</g>
</g>
</svg>
