<?xml version="1.0" encoding="UTF-8" standalone="no"?>
<!DOCTYPE svg PUBLIC "-//W3C//DTD SVG 1.1//EN"
 "http://www.w3.org/Graphics/SVG/1.1/DTD/svg11.dtd">
<!-- Generated by graphviz version 14.1.3 (20260303.0454)
 -->
<!-- Title: modbus.h Pages: 1 -->
<svg width="150pt" height="196pt"
 viewBox="0.00 0.00 150.00 196.00" xmlns="http://www.w3.org/2000/svg" xmlns:xlink="http://www.w3.org/1999/xlink">
<g id="graph0" class="graph" transform="scale(1 1) rotate(0) translate(4 192)">
<title>modbus.h</title>
<!-- Node1 -->
<g id="Node000001" class="node">
<title>Node1</title>
<g id="a_Node000001"><a xlink:title="Core protocol constants, limits, and compile&#45;time configuration for the Modbus RTU library.">
<polygon fill="#999999" stroke="#666666" points="91.09,-188 32.34,-188 32.34,-168 91.09,-168 91.09,-188"/>
<text xml:space="preserve" text-anchor="middle" x="61.72" y="-174.5" font-family="Helvetica,sans-Serif" font-size="10.00">modbus.h</text>
</a>
</g>
</g>
<!-- Node2 -->
<g id="Node000002" class="node">
<title>Node2</title>
<g id="a_Node000002"><a xlink:href="modbus_device_8h.html" target="_top" xlink:title="Modbus device abstraction that extends the register bank with slave ID handling.">
<polygon fill="white" stroke="#666666" points="106.47,-76 16.97,-76 16.97,-56 106.47,-56 106.47,-76"/>
<text xml:space="preserve" text-anchor="middle" x="61.72" y="-62.5" font-family="Helvetica,sans-Serif" font-size="10.00">modbusDevice.h</text>
</a>
</g>
</g>
<!-- Node1&#45;&gt;Node2 -->
<g id="edge1_Node000001_Node000002" class="edge">
<title>Node1&#45;&gt;Node2</title>
<g id="a_edge1_Node000001_Node000002"><a xlink:title=" ">
<path fill="none" stroke="#63b8ff" d="M31.63,-161.83C20.41,-154.48 8.9,-144.5 2.72,-132 -8.71,-108.92 20.66,-87.98 41.95,-76.42"/>
<polygon fill="#63b8ff" stroke="#63b8ff" points="29.61,-164.69 39.98,-166.83 33.2,-158.69 29.61,-164.69"/>
</a>
</g>
</g>
<!-- Node3 -->
<g id="Node000003" class="node">
<title>Node3</title>
<g id="a_Node000003"><a xlink:href="modbus_slave_8h.html" target="_top" xlink:title="Modbus RTU slave protocol engine and callback API.">
<polygon fill="white" stroke="#666666" points="142.47,-20 58.97,-20 58.97,0 142.47,0 142.47,-20"/>
<text xml:space="preserve" text-anchor="middle" x="100.72" y="-6.5" font-family="Helvetica,sans-Serif" font-size="10.00">modbusSlave.h</text>
</a>
</g>
</g>
<!-- Node1&#45;&gt;Node3 -->
<g id="edge5_Node000001_Node000003" class="edge">
<title>Node1&#45;&gt;Node3</title>
<g id="a_edge5_Node000001_Node000003"><a xlink:title=" ">
<path fill="none" stroke="#63b8ff" d="M91.8,-161.83C103.02,-154.48 114.53,-144.5 120.72,-132 139.61,-93.84 116.77,-41.45 105.88,-20.36"/>
<polygon fill="#63b8ff" stroke="#63b8ff" points="90.23,-158.69 83.45,-166.83 93.83,-164.69 90.23,-158.69"/>
</a>
</g>
</g>
<!-- Node4 -->
<g id="Node000004" class="node">
<title>Node4</title>
<g id="a_Node000004"><a xlink:href="modbus_reg_bank_8h.html" target="_top" xlink:title="Register storage engine and typed data helpers for Modbus maps.">
<polygon fill="white" stroke="#666666" points="111.34,-132 12.09,-132 12.09,-112 111.34,-112 111.34,-132"/>
<text xml:space="preserve" text-anchor="middle" x="61.72" y="-118.5" font-family="Helvetica,sans-Serif" font-size="10.00">modbusRegBank.h</text>
</a>
</g>
</g>
<!-- Node1&#45;&gt;Node4 -->
<g id="edge3_Node000001_Node000004" class="edge">
<title>Node1&#45;&gt;Node4</title>
<g id="a_edge3_Node000001_Node000004"><a xlink:title=" ">
<path fill="none" stroke="#63b8ff" d="M61.72,-156.13C61.72,-147.9 61.72,-138.85 61.72,-132.3"/>
<polygon fill="#63b8ff" stroke="#63b8ff" points="58.22,-156.08 61.72,-166.08 65.22,-156.08 58.22,-156.08"/>
</a>
</g>
</g>
<!-- Node2&#45;&gt;Node3 -->
<g id="edge2_Node000002_Node000003" class="edge">
<title>Node2&#45;&gt;Node3</title>
<g id="a_edge2_Node000002_Node000003"><a xlink:title=" ">
<path fill="none" stroke="#63b8ff" d="M75.12,-46.44C81.49,-37.62 88.82,-27.47 94,-20.3"/>
<polygon fill="#63b8ff" stroke="#63b8ff" points="72.41,-44.21 69.4,-54.37 78.09,-48.31 72.41,-44.21"/>
</a>
</g>
</g>
<!-- Node4&#45;&gt;Node2 -->
<g id="edge4_Node000004_Node000002" class="edge">
<title>Node4&#45;&gt;Node2</title>
<g id="a_edge4_Node000004_Node000002"><a xlink:title=" ">
<path fill="none" stroke="#63b8ff" d="M61.72,-100.13C61.72,-91.9 61.72,-82.85 61.72,-76.3"/>
<polygon fill="#63b8ff" stroke="#63b8ff" points="58.22,-100.08 61.72,-110.08 65.22,-100.08 58.22,-100.08"/>
</a>
</g>
</g>
</g>
</svg>
