<?xml version="1.0" encoding="UTF-8" standalone="no"?>
<!DOCTYPE svg PUBLIC "-//W3C//DTD SVG 1.1//EN"
 "http://www.w3.org/Graphics/SVG/1.1/DTD/svg11.dtd">
<!-- Generated by graphviz version 14.1.3 (20260303.0454)
 -->
<!-- Title: modbusSlave.h Pages: 1 -->
<svg width="227pt" height="252pt"
 viewBox="0.00 0.00 227.00 252.00" xmlns="http://www.w3.org/2000/svg" xmlns:xlink="http://www.w3.org/1999/xlink">

<svg id="main" version="1.1" xmlns="http://www.w3.org/2000/svg" xmlns:xlink="http://www.w3.org/1999/xlink" xml:space="preserve">

<style type="text/css"><![CDATA[
.node, .edge {opacity: 0.7;}
.node.selected, .edge.selected {opacity: 1;}
.edge:hover path { stroke: red; }
.edge:hover polygon { stroke: red; fill: red; }
]]></style>
<script type="application/ecmascript" xlink:href="svg.min.js"/>
<svg id="graph" class="graph">
<g id="graph0" class="graph" transform="scale(1 1) rotate(0) translate(4 248)">
<title>modbusSlave.h</title>
<!-- Node1 -->
<g id="Node000001" class="node">
<title>Node1</title>
<g id="a_Node000001"><a xlink:title="Modbus RTU slave protocol engine and callback API.">
<polygon fill="#999999" stroke="#666666" points="207.12,-244 123.62,-244 123.62,-224 207.12,-224 207.12,-244"/>
<text xml:space="preserve" text-anchor="middle" x="165.38" y="-230.5" font-family="Helvetica,sans-Serif" font-size="10.00">modbusSlave.h</text>
</a>
</g>
</g>
<!-- Node2 -->
<g id="Node000002" class="node">
<title>Node2</title>
<g id="a_Node000002"><a xlink:title=" ">
<polygon fill="#e0e0e0" stroke="#999999" points="197.5,-20 149.25,-20 149.25,0 197.5,0 197.5,-20"/>
<text xml:space="preserve" text-anchor="middle" x="173.38" y="-6.5" font-family="Helvetica,sans-Serif" font-size="10.00">stdint.h</text>
</a>
</g>
</g>
<!-- Node1&#45;&gt;Node2 -->
<g id="edge1_Node000001_Node000002" class="edge">
<title>Node1&#45;&gt;Node2</title>
<g id="a_edge1_Node000001_Node000002"><a xlink:title=" ">
<path fill="none" stroke="#63b8ff" d="M174.15,-223.8C181.8,-215.23 192.56,-201.74 198.38,-188 218.05,-141.5 213.14,-126.31 217.38,-76 218.12,-67.14 220.73,-64.23 217.38,-56 212.84,-44.89 204.1,-35.02 195.59,-27.39"/>
<polygon fill="#63b8ff" stroke="#63b8ff" points="198.1,-24.92 188.17,-21.24 193.64,-30.31 198.1,-24.92"/>
</a>
</g>
</g>
<!-- Node3 -->
<g id="Node000003" class="node">
<title>Node3</title>
<g id="a_Node000003"><a xlink:title=" ">
<polygon fill="#e0e0e0" stroke="#999999" points="193,-76 135.75,-76 135.75,-56 193,-56 193,-76"/>
<text xml:space="preserve" text-anchor="middle" x="164.38" y="-62.5" font-family="Helvetica,sans-Serif" font-size="10.00">Arduino.h</text>
</a>
</g>
</g>
<!-- Node1&#45;&gt;Node3 -->
<g id="edge2_Node000001_Node000003" class="edge">
<title>Node1&#45;&gt;Node3</title>
<g id="a_edge2_Node000001_Node000003"><a xlink:title=" ">
<path fill="none" stroke="#63b8ff" d="M170.33,-223.67C174.75,-214.78 180.89,-200.89 183.38,-188 190.19,-152.63 179.67,-111.09 171.77,-87.04"/>
<polygon fill="#63b8ff" stroke="#63b8ff" points="175.17,-86.18 168.58,-77.88 168.56,-88.48 175.17,-86.18"/>
</a>
</g>
</g>
<!-- Node4 -->
<g id="Node000004" class="node">
<title>Node4</title>
<g id="a_Node000004"><a xlink:href="modbus_8h.html" target="_top" xlink:title="Core protocol constants, limits, and compile&#45;time configuration for the Modbus RTU library.">
<polygon fill="white" stroke="#666666" points="58.75,-76 0,-76 0,-56 58.75,-56 58.75,-76"/>
<text xml:space="preserve" text-anchor="middle" x="29.38" y="-62.5" font-family="Helvetica,sans-Serif" font-size="10.00">modbus.h</text>
</a>
</g>
</g>
<!-- Node1&#45;&gt;Node4 -->
<g id="edge3_Node000001_Node000004" class="edge">
<title>Node1&#45;&gt;Node4</title>
<g id="a_edge3_Node000001_Node000004"><a xlink:title=" ">
<path fill="none" stroke="#63b8ff" d="M135.1,-223.54C98.25,-210.08 38.34,-181.39 17.38,-132 11.2,-117.46 15.14,-99.76 20.1,-86.5"/>
<polygon fill="#63b8ff" stroke="#63b8ff" points="23.2,-88.15 23.9,-77.58 16.76,-85.41 23.2,-88.15"/>
</a>
</g>
</g>
<!-- Node5 -->
<g id="Node000005" class="node">
<title>Node5</title>
<g id="a_Node000005"><a xlink:href="modbus_device_8h.html" target="_top" xlink:title="Modbus device abstraction that extends the register bank with slave ID handling.">
<polygon fill="white" stroke="#666666" points="174.12,-188 84.62,-188 84.62,-168 174.12,-168 174.12,-188"/>
<text xml:space="preserve" text-anchor="middle" x="129.38" y="-174.5" font-family="Helvetica,sans-Serif" font-size="10.00">modbusDevice.h</text>
</a>
</g>
</g>
<!-- Node1&#45;&gt;Node5 -->
<g id="edge5_Node000001_Node000005" class="edge">
<title>Node1&#45;&gt;Node5</title>
<g id="a_edge5_Node000001_Node000005"><a xlink:title=" ">
<path fill="none" stroke="#63b8ff" d="M159.1,-223.59C154.36,-216.47 147.68,-206.45 141.85,-197.72"/>
<polygon fill="#63b8ff" stroke="#63b8ff" points="144.87,-195.94 136.41,-189.56 139.05,-199.82 144.87,-195.94"/>
</a>
</g>
</g>
<!-- Node4&#45;&gt;Node2 -->
<g id="edge4_Node000004_Node000002" class="edge">
<title>Node4&#45;&gt;Node2</title>
<g id="a_edge4_Node000004_Node000002"><a xlink:title=" ">
<path fill="none" stroke="#63b8ff" d="M54.46,-55.59C77.73,-46.87 112.57,-33.8 138.54,-24.06"/>
<polygon fill="#63b8ff" stroke="#63b8ff" points="139.51,-27.44 147.64,-20.65 137.05,-20.88 139.51,-27.44"/>
</a>
</g>
</g>
<!-- Node5&#45;&gt;Node2 -->
<g id="edge6_Node000005_Node000002" class="edge">
<title>Node5&#45;&gt;Node2</title>
<g id="a_edge6_Node000005_Node000002"><a xlink:title=" ">
<path fill="none" stroke="#63b8ff" d="M139.46,-167.61C156.41,-151.05 189.96,-114.73 202.38,-76 207.6,-59.68 198.66,-41.97 189.36,-29.17"/>
<polygon fill="#63b8ff" stroke="#63b8ff" points="192.32,-27.26 183.36,-21.62 186.84,-31.62 192.32,-27.26"/>
</a>
</g>
</g>
<!-- Node5&#45;&gt;Node3 -->
<g id="edge7_Node000005_Node000003" class="edge">
<title>Node5&#45;&gt;Node3</title>
<g id="a_edge7_Node000005_Node000003"><a xlink:title=" ">
<path fill="none" stroke="#63b8ff" d="M132.84,-167.75C136.19,-158.68 141.34,-144.46 145.38,-132 150.2,-117.08 155.16,-100.06 158.8,-87.18"/>
<polygon fill="#63b8ff" stroke="#63b8ff" points="162.11,-88.34 161.43,-77.77 155.37,-86.46 162.11,-88.34"/>
</a>
</g>
</g>
<!-- Node5&#45;&gt;Node4 -->
<g id="edge12_Node000005_Node000004" class="edge">
<title>Node5&#45;&gt;Node4</title>
<g id="a_edge12_Node000005_Node000004"><a xlink:title=" ">
<path fill="none" stroke="#63b8ff" d="M84.34,-168.87C63.26,-162.56 40.06,-151.46 27.38,-132 18.79,-118.83 20.14,-100.76 23.15,-87.02"/>
<polygon fill="#63b8ff" stroke="#63b8ff" points="26.43,-88.31 25.63,-77.75 19.66,-86.5 26.43,-88.31"/>
</a>
</g>
</g>
<!-- Node6 -->
<g id="Node000006" class="node">
<title>Node6</title>
<g id="a_Node000006"><a xlink:href="modbus_reg_bank_8h.html" target="_top" xlink:title="Register storage engine and typed data helpers for Modbus maps.">
<polygon fill="white" stroke="#666666" points="136,-132 36.75,-132 36.75,-112 136,-112 136,-132"/>
<text xml:space="preserve" text-anchor="middle" x="86.38" y="-118.5" font-family="Helvetica,sans-Serif" font-size="10.00">modbusRegBank.h</text>
</a>
</g>
</g>
<!-- Node5&#45;&gt;Node6 -->
<g id="edge8_Node000005_Node000006" class="edge">
<title>Node5&#45;&gt;Node6</title>
<g id="a_edge8_Node000005_Node000006"><a xlink:title=" ">
<path fill="none" stroke="#63b8ff" d="M121.88,-167.59C116.09,-160.32 107.89,-150.02 100.83,-141.15"/>
<polygon fill="#63b8ff" stroke="#63b8ff" points="103.69,-139.12 94.72,-133.48 98.21,-143.49 103.69,-139.12"/>
</a>
</g>
</g>
<!-- Node6&#45;&gt;Node2 -->
<g id="edge9_Node000006_Node000002" class="edge">
<title>Node6&#45;&gt;Node2</title>
<g id="a_edge9_Node000006_Node000002"><a xlink:title=" ">
<path fill="none" stroke="#63b8ff" d="M91.13,-111.68C98.01,-98.61 111.56,-74.35 126.38,-56 134.49,-45.96 144.73,-35.91 153.57,-27.87"/>
<polygon fill="#63b8ff" stroke="#63b8ff" points="155.83,-30.54 161.01,-21.3 151.2,-25.29 155.83,-30.54"/>
</a>
</g>
</g>
<!-- Node6&#45;&gt;Node3 -->
<g id="edge10_Node000006_Node000003" class="edge">
<title>Node6&#45;&gt;Node3</title>
<g id="a_edge10_Node000006_Node000003"><a xlink:title=" ">
<path fill="none" stroke="#63b8ff" d="M99.96,-111.59C111.41,-103.67 128.04,-92.16 141.53,-82.82"/>
<polygon fill="#63b8ff" stroke="#63b8ff" points="143.21,-85.91 149.44,-77.34 139.22,-80.16 143.21,-85.91"/>
</a>
</g>
</g>
<!-- Node6&#45;&gt;Node4 -->
<g id="edge11_Node000006_Node000004" class="edge">
<title>Node6&#45;&gt;Node4</title>
<g id="a_edge11_Node000006_Node000004"><a xlink:title=" ">
<path fill="none" stroke="#63b8ff" d="M76.45,-111.59C68.44,-104.01 56.96,-93.13 47.34,-84.02"/>
<polygon fill="#63b8ff" stroke="#63b8ff" points="49.96,-81.68 40.29,-77.34 45.14,-86.76 49.96,-81.68"/>
</a>
</g>
</g>
</g>
</svg>
</svg>

<style type='text/css'>
<![CDATA[
[data-mouse-over-selected='false'] { opacity: 0.7; }
[data-mouse-over-selected='true']  { opacity: 1.0; }
]]>
</style>
<script type="application/ecmascript"><![CDATA[
document.addEventListener('DOMContentLoaded', (event) => {
  highlightEdges();
  highlightAdjacentNodes();
});
]]></script>
</svg>
