<?xml version="1.0" encoding="UTF-8" standalone="no"?>
<!DOCTYPE svg PUBLIC "-//W3C//DTD SVG 1.1//EN"
 "http://www.w3.org/Graphics/SVG/1.1/DTD/svg11.dtd">
<!-- Generated by graphviz version 14.1.3 (20260303.0454)
 -->
<!-- Title: modbusRegBank.cpp Pages: 1 -->
<svg width="303pt" height="196pt"
 viewBox="0.00 0.00 303.00 196.00" xmlns="http://www.w3.org/2000/svg" xmlns:xlink="http://www.w3.org/1999/xlink">
<g id="graph0" class="graph" transform="scale(1 1) rotate(0) translate(4 192)">
<title>modbusRegBank.cpp</title>
<!-- Node1 -->
<g id="Node000001" class="node">
<title>Node1</title>
<g id="a_Node000001"><a xlink:title=" ">
<polygon fill="#999999" stroke="#666666" points="227.5,-188 117.75,-188 117.75,-168 227.5,-168 227.5,-188"/>
<text xml:space="preserve" text-anchor="middle" x="172.62" y="-174.5" font-family="Helvetica,sans-Serif" font-size="10.00">modbusRegBank.cpp</text>
</a>
</g>
</g>
<!-- Node2 -->
<g id="Node000002" class="node">
<title>Node2</title>
<g id="a_Node000002"><a xlink:href="modbus_reg_bank_8h.html" target="_top" xlink:title="Register storage engine and typed data helpers for Modbus maps.">
<polygon fill="white" stroke="#666666" points="99.25,-132 0,-132 0,-112 99.25,-112 99.25,-132"/>
<text xml:space="preserve" text-anchor="middle" x="49.62" y="-118.5" font-family="Helvetica,sans-Serif" font-size="10.00">modbusRegBank.h</text>
</a>
</g>
</g>
<!-- Node1&#45;&gt;Node2 -->
<g id="edge1_Node000001_Node000002" class="edge">
<title>Node1&#45;&gt;Node2</title>
<g id="a_edge1_Node000001_Node000002"><a xlink:title=" ">
<path fill="none" stroke="#63b8ff" d="M151.2,-167.59C132,-159.17 103.58,-146.69 81.68,-137.07"/>
<polygon fill="#63b8ff" stroke="#63b8ff" points="83.17,-133.9 72.6,-133.09 80.35,-140.31 83.17,-133.9"/>
</a>
</g>
</g>
<!-- Node6 -->
<g id="Node000006" class="node">
<title>Node6</title>
<g id="a_Node000006"><a xlink:title=" ">
<polygon fill="#e0e0e0" stroke="#999999" points="164.38,-132 116.88,-132 116.88,-112 164.38,-112 164.38,-132"/>
<text xml:space="preserve" text-anchor="middle" x="140.62" y="-118.5" font-family="Helvetica,sans-Serif" font-size="10.00">stdlib.h</text>
</a>
</g>
</g>
<!-- Node1&#45;&gt;Node6 -->
<g id="edge6_Node000001_Node000006" class="edge">
<title>Node1&#45;&gt;Node6</title>
<g id="a_edge6_Node000001_Node000006"><a xlink:title=" ">
<path fill="none" stroke="#63b8ff" d="M167.05,-167.59C162.88,-160.55 157.02,-150.67 151.88,-142"/>
<polygon fill="#63b8ff" stroke="#63b8ff" points="155.02,-140.42 146.91,-133.6 148.99,-143.99 155.02,-140.42"/>
</a>
</g>
</g>
<!-- Node7 -->
<g id="Node000007" class="node">
<title>Node7</title>
<g id="a_Node000007"><a xlink:title=" ">
<polygon fill="#e0e0e0" stroke="#999999" points="228.62,-132 182.62,-132 182.62,-112 228.62,-112 228.62,-132"/>
<text xml:space="preserve" text-anchor="middle" x="205.62" y="-118.5" font-family="Helvetica,sans-Serif" font-size="10.00">math.h</text>
</a>
</g>
</g>
<!-- Node1&#45;&gt;Node7 -->
<g id="edge7_Node000001_Node000007" class="edge">
<title>Node1&#45;&gt;Node7</title>
<g id="a_edge7_Node000001_Node000007"><a xlink:title=" ">
<path fill="none" stroke="#63b8ff" d="M178.37,-167.59C182.68,-160.55 188.72,-150.67 194.01,-142"/>
<polygon fill="#63b8ff" stroke="#63b8ff" points="196.93,-143.95 199.15,-133.59 190.95,-140.3 196.93,-143.95"/>
</a>
</g>
</g>
<!-- Node8 -->
<g id="Node000008" class="node">
<title>Node8</title>
<g id="a_Node000008"><a xlink:title=" ">
<polygon fill="#e0e0e0" stroke="#999999" points="294.75,-132 246.5,-132 246.5,-112 294.75,-112 294.75,-132"/>
<text xml:space="preserve" text-anchor="middle" x="270.62" y="-118.5" font-family="Helvetica,sans-Serif" font-size="10.00">string.h</text>
</a>
</g>
</g>
<!-- Node1&#45;&gt;Node8 -->
<g id="edge8_Node000001_Node000008" class="edge">
<title>Node1&#45;&gt;Node8</title>
<g id="a_edge8_Node000001_Node000008"><a xlink:title=" ">
<path fill="none" stroke="#63b8ff" d="M189.7,-167.59C204.5,-159.44 226.19,-147.48 243.39,-138"/>
<polygon fill="#63b8ff" stroke="#63b8ff" points="245.03,-141.1 252.1,-133.21 241.65,-134.97 245.03,-141.1"/>
</a>
</g>
</g>
<!-- Node3 -->
<g id="Node000003" class="node">
<title>Node3</title>
<g id="a_Node000003"><a xlink:title=" ">
<polygon fill="#e0e0e0" stroke="#999999" points="82.75,-20 34.5,-20 34.5,0 82.75,0 82.75,-20"/>
<text xml:space="preserve" text-anchor="middle" x="58.62" y="-6.5" font-family="Helvetica,sans-Serif" font-size="10.00">stdint.h</text>
</a>
</g>
</g>
<!-- Node2&#45;&gt;Node3 -->
<g id="edge2_Node000002_Node000003" class="edge">
<title>Node2&#45;&gt;Node3</title>
<g id="a_edge2_Node000002_Node000003"><a xlink:title=" ">
<path fill="none" stroke="#63b8ff" d="M37.68,-111.7C23.46,-99.43 2.69,-76.92 11.62,-56 16.43,-44.74 25.59,-34.95 34.56,-27.4"/>
<polygon fill="#63b8ff" stroke="#63b8ff" points="36.67,-30.19 42.44,-21.31 32.39,-24.66 36.67,-30.19"/>
</a>
</g>
</g>
<!-- Node4 -->
<g id="Node000004" class="node">
<title>Node4</title>
<g id="a_Node000004"><a xlink:title=" ">
<polygon fill="#e0e0e0" stroke="#999999" points="78.25,-76 21,-76 21,-56 78.25,-56 78.25,-76"/>
<text xml:space="preserve" text-anchor="middle" x="49.62" y="-62.5" font-family="Helvetica,sans-Serif" font-size="10.00">Arduino.h</text>
</a>
</g>
</g>
<!-- Node2&#45;&gt;Node4 -->
<g id="edge3_Node000002_Node000004" class="edge">
<title>Node2&#45;&gt;Node4</title>
<g id="a_edge3_Node000002_Node000004"><a xlink:title=" ">
<path fill="none" stroke="#63b8ff" d="M49.62,-111.59C49.62,-105.01 49.62,-95.96 49.62,-87.73"/>
<polygon fill="#63b8ff" stroke="#63b8ff" points="53.13,-87.81 49.63,-77.81 46.13,-87.81 53.13,-87.81"/>
</a>
</g>
</g>
<!-- Node5 -->
<g id="Node000005" class="node">
<title>Node5</title>
<g id="a_Node000005"><a xlink:href="modbus_8h.html" target="_top" xlink:title="Core protocol constants, limits, and compile&#45;time configuration for the Modbus RTU library.">
<polygon fill="white" stroke="#666666" points="155,-76 96.25,-76 96.25,-56 155,-56 155,-76"/>
<text xml:space="preserve" text-anchor="middle" x="125.62" y="-62.5" font-family="Helvetica,sans-Serif" font-size="10.00">modbus.h</text>
</a>
</g>
</g>
<!-- Node2&#45;&gt;Node5 -->
<g id="edge4_Node000002_Node000005" class="edge">
<title>Node2&#45;&gt;Node5</title>
<g id="a_edge4_Node000002_Node000005"><a xlink:title=" ">
<path fill="none" stroke="#63b8ff" d="M62.86,-111.59C73.91,-103.74 89.91,-92.38 102.98,-83.09"/>
<polygon fill="#63b8ff" stroke="#63b8ff" points="104.93,-86 111.05,-77.36 100.87,-80.3 104.93,-86"/>
</a>
</g>
</g>
<!-- Node5&#45;&gt;Node3 -->
<g id="edge5_Node000005_Node000003" class="edge">
<title>Node5&#45;&gt;Node3</title>
<g id="a_edge5_Node000005_Node000003"><a xlink:title=" ">
<path fill="none" stroke="#63b8ff" d="M113.95,-55.59C104.35,-47.85 90.5,-36.69 79.06,-27.47"/>
<polygon fill="#63b8ff" stroke="#63b8ff" points="81.32,-24.8 71.34,-21.25 76.93,-30.25 81.32,-24.8"/>
</a>
</g>
</g>
</g>
</svg>
