<?xml version="1.0" encoding="UTF-8" standalone="no"?>
<!DOCTYPE svg PUBLIC "-//W3C//DTD SVG 1.1//EN"
 "http://www.w3.org/Graphics/SVG/1.1/DTD/svg11.dtd">
<!-- Generated by graphviz version 14.1.3 (20260303.0454)
 -->
<!-- Title: modbusSlave.cpp Pages: 1 -->
<svg width="422pt" height="308pt"
 viewBox="0.00 0.00 422.00 308.00" xmlns="http://www.w3.org/2000/svg" xmlns:xlink="http://www.w3.org/1999/xlink">
<g id="graph0" class="graph" transform="scale(1 1) rotate(0) translate(4 304)">
<title>modbusSlave.cpp</title>
<!-- Node1 -->
<g id="Node000001" class="node">
<title>Node1</title>
<g id="a_Node000001"><a xlink:title=" ">
<polygon fill="#999999" stroke="#666666" points="227.33,-300 133.33,-300 133.33,-280 227.33,-280 227.33,-300"/>
<text xml:space="preserve" text-anchor="middle" x="180.33" y="-286.5" font-family="Helvetica,sans-Serif" font-size="10.00">modbusSlave.cpp</text>
</a>
</g>
</g>
<!-- Node2 -->
<g id="Node000002" class="node">
<title>Node2</title>
<g id="a_Node000002"><a xlink:href="modbus_slave_8h.html" target="_top" xlink:title="Modbus RTU slave protocol engine and callback API.">
<polygon fill="white" stroke="#666666" points="152.08,-244 68.58,-244 68.58,-224 152.08,-224 152.08,-244"/>
<text xml:space="preserve" text-anchor="middle" x="110.33" y="-230.5" font-family="Helvetica,sans-Serif" font-size="10.00">modbusSlave.h</text>
</a>
</g>
</g>
<!-- Node1&#45;&gt;Node2 -->
<g id="edge1_Node000001_Node000002" class="edge">
<title>Node1&#45;&gt;Node2</title>
<g id="a_edge1_Node000001_Node000002"><a xlink:title=" ">
<path fill="none" stroke="#63b8ff" d="M168.14,-279.59C158,-271.77 143.34,-260.46 131.32,-251.19"/>
<polygon fill="#63b8ff" stroke="#63b8ff" points="133.64,-248.56 123.58,-245.22 129.36,-254.1 133.64,-248.56"/>
</a>
</g>
</g>
<!-- Node4 -->
<g id="Node000004" class="node">
<title>Node4</title>
<g id="a_Node000004"><a xlink:title=" ">
<polygon fill="#e0e0e0" stroke="#999999" points="77.96,-76 20.71,-76 20.71,-56 77.96,-56 77.96,-76"/>
<text xml:space="preserve" text-anchor="middle" x="49.33" y="-62.5" font-family="Helvetica,sans-Serif" font-size="10.00">Arduino.h</text>
</a>
</g>
</g>
<!-- Node1&#45;&gt;Node4 -->
<g id="edge16_Node000001_Node000004" class="edge">
<title>Node1&#45;&gt;Node4</title>
<g id="a_edge16_Node000001_Node000004"><a xlink:title=" ">
<path fill="none" stroke="#63b8ff" d="M132.91,-283.88C106.85,-278.42 76.43,-267.18 59.33,-244 24.68,-197.03 35.88,-122.52 44.01,-87.05"/>
<polygon fill="#63b8ff" stroke="#63b8ff" points="47.32,-88.25 46.32,-77.7 40.53,-86.57 47.32,-88.25"/>
</a>
</g>
</g>
<!-- Node5 -->
<g id="Node000005" class="node">
<title>Node5</title>
<g id="a_Node000005"><a xlink:href="modbus_8h.html" target="_top" xlink:title="Core protocol constants, limits, and compile&#45;time configuration for the Modbus RTU library.">
<polygon fill="white" stroke="#666666" points="291.71,-76 232.96,-76 232.96,-56 291.71,-56 291.71,-76"/>
<text xml:space="preserve" text-anchor="middle" x="262.33" y="-62.5" font-family="Helvetica,sans-Serif" font-size="10.00">modbus.h</text>
</a>
</g>
</g>
<!-- Node1&#45;&gt;Node5 -->
<g id="edge14_Node000001_Node000005" class="edge">
<title>Node1&#45;&gt;Node5</title>
<g id="a_edge14_Node000001_Node000005"><a xlink:title=" ">
<path fill="none" stroke="#63b8ff" d="M188.88,-279.66C209.27,-256.68 260.37,-194.7 278.33,-132 282.69,-116.79 277.89,-99.38 272.44,-86.41"/>
<polygon fill="#63b8ff" stroke="#63b8ff" points="275.76,-85.25 268.34,-77.68 269.42,-88.22 275.76,-85.25"/>
</a>
</g>
</g>
<!-- Node6 -->
<g id="Node000006" class="node">
<title>Node6</title>
<g id="a_Node000006"><a xlink:href="modbus_device_8h.html" target="_top" xlink:title="Modbus device abstraction that extends the register bank with slave ID handling.">
<polygon fill="white" stroke="#666666" points="190.08,-188 100.58,-188 100.58,-168 190.08,-168 190.08,-188"/>
<text xml:space="preserve" text-anchor="middle" x="145.33" y="-174.5" font-family="Helvetica,sans-Serif" font-size="10.00">modbusDevice.h</text>
</a>
</g>
</g>
<!-- Node1&#45;&gt;Node6 -->
<g id="edge15_Node000001_Node000006" class="edge">
<title>Node1&#45;&gt;Node6</title>
<g id="a_edge15_Node000001_Node000006"><a xlink:title=" ">
<path fill="none" stroke="#63b8ff" d="M177.79,-279.69C174.29,-267.03 167.7,-243.69 161.33,-224 158.65,-215.72 155.48,-206.67 152.67,-198.87"/>
<polygon fill="#63b8ff" stroke="#63b8ff" points="156.03,-197.87 149.32,-189.68 149.46,-200.27 156.03,-197.87"/>
</a>
</g>
</g>
<!-- Node8 -->
<g id="Node000008" class="node">
<title>Node8</title>
<g id="a_Node000008"><a xlink:title=" ">
<polygon fill="#e0e0e0" stroke="#999999" points="414.46,-244 366.21,-244 366.21,-224 414.46,-224 414.46,-244"/>
<text xml:space="preserve" text-anchor="middle" x="390.33" y="-230.5" font-family="Helvetica,sans-Serif" font-size="10.00">string.h</text>
</a>
</g>
</g>
<!-- Node1&#45;&gt;Node8 -->
<g id="edge17_Node000001_Node000008" class="edge">
<title>Node1&#45;&gt;Node8</title>
<g id="a_edge17_Node000001_Node000008"><a xlink:title=" ">
<path fill="none" stroke="#63b8ff" d="M216.91,-279.59C255.68,-269.63 316.48,-253.99 354.83,-244.13"/>
<polygon fill="#63b8ff" stroke="#63b8ff" points="355.68,-247.52 364.49,-241.64 353.94,-240.74 355.68,-247.52"/>
</a>
</g>
</g>
<!-- Node3 -->
<g id="Node000003" class="node">
<title>Node3</title>
<g id="a_Node000003"><a xlink:title=" ">
<polygon fill="#e0e0e0" stroke="#999999" points="159.46,-20 111.21,-20 111.21,0 159.46,0 159.46,-20"/>
<text xml:space="preserve" text-anchor="middle" x="135.33" y="-6.5" font-family="Helvetica,sans-Serif" font-size="10.00">stdint.h</text>
</a>
</g>
</g>
<!-- Node2&#45;&gt;Node3 -->
<g id="edge2_Node000002_Node000003" class="edge">
<title>Node2&#45;&gt;Node3</title>
<g id="a_edge2_Node000002_Node000003"><a xlink:title=" ">
<path fill="none" stroke="#63b8ff" d="M97.53,-223.58C62.25,-196.48 -31.01,-116.4 11.33,-56 31.09,-27.81 70.38,-17.21 99.47,-13.26"/>
<polygon fill="#63b8ff" stroke="#63b8ff" points="99.78,-16.75 109.33,-12.15 99,-9.8 99.78,-16.75"/>
</a>
</g>
</g>
<!-- Node2&#45;&gt;Node4 -->
<g id="edge3_Node000002_Node000004" class="edge">
<title>Node2&#45;&gt;Node4</title>
<g id="a_edge3_Node000002_Node000004"><a xlink:title=" ">
<path fill="none" stroke="#63b8ff" d="M106.22,-223.76C102.25,-214.72 96.14,-200.51 91.33,-188 77.82,-152.84 63.8,-111.24 55.86,-87.11"/>
<polygon fill="#63b8ff" stroke="#63b8ff" points="59.3,-86.34 52.86,-77.93 52.64,-88.52 59.3,-86.34"/>
</a>
</g>
</g>
<!-- Node2&#45;&gt;Node5 -->
<g id="edge4_Node000002_Node000005" class="edge">
<title>Node2&#45;&gt;Node5</title>
<g id="a_edge4_Node000002_Node000005"><a xlink:title=" ">
<path fill="none" stroke="#63b8ff" d="M141.48,-223.57C179.07,-210.22 240.01,-181.71 262.33,-132 268.57,-118.11 268.23,-100.81 266.52,-87.55"/>
<polygon fill="#63b8ff" stroke="#63b8ff" points="269.99,-87.09 264.87,-77.81 263.09,-88.26 269.99,-87.09"/>
</a>
</g>
</g>
<!-- Node2&#45;&gt;Node6 -->
<g id="edge6_Node000002_Node000006" class="edge">
<title>Node2&#45;&gt;Node6</title>
<g id="a_edge6_Node000002_Node000006"><a xlink:title=" ">
<path fill="none" stroke="#63b8ff" d="M116.43,-223.59C121.05,-216.47 127.54,-206.45 133.2,-197.72"/>
<polygon fill="#63b8ff" stroke="#63b8ff" points="135.98,-199.86 138.48,-189.57 130.11,-196.06 135.98,-199.86"/>
</a>
</g>
</g>
<!-- Node5&#45;&gt;Node3 -->
<g id="edge5_Node000005_Node000003" class="edge">
<title>Node5&#45;&gt;Node3</title>
<g id="a_edge5_Node000005_Node000003"><a xlink:title=" ">
<path fill="none" stroke="#63b8ff" d="M240.21,-55.59C220.3,-47.13 190.78,-34.58 168.12,-24.94"/>
<polygon fill="#63b8ff" stroke="#63b8ff" points="169.59,-21.76 159.02,-21.07 166.85,-28.21 169.59,-21.76"/>
</a>
</g>
</g>
<!-- Node6&#45;&gt;Node3 -->
<g id="edge7_Node000006_Node000003" class="edge">
<title>Node6&#45;&gt;Node3</title>
<g id="a_edge7_Node000006_Node000003"><a xlink:title=" ">
<path fill="none" stroke="#63b8ff" d="M139.83,-167.74C134.92,-158.9 128.1,-145.05 125.33,-132 117.92,-97.06 124.7,-55.36 130.13,-31.15"/>
<polygon fill="#63b8ff" stroke="#63b8ff" points="133.47,-32.24 132.42,-21.69 126.67,-30.59 133.47,-32.24"/>
</a>
</g>
</g>
<!-- Node6&#45;&gt;Node4 -->
<g id="edge8_Node000006_Node000004" class="edge">
<title>Node6&#45;&gt;Node4</title>
<g id="a_edge8_Node000006_Node000004"><a xlink:title=" ">
<path fill="none" stroke="#63b8ff" d="M132.23,-167.55C120.91,-159.02 104.51,-145.73 92.33,-132 79.72,-117.78 68,-99.6 60,-86.08"/>
<polygon fill="#63b8ff" stroke="#63b8ff" points="63.2,-84.64 55.18,-77.72 57.14,-88.13 63.2,-84.64"/>
</a>
</g>
</g>
<!-- Node6&#45;&gt;Node5 -->
<g id="edge13_Node000006_Node000005" class="edge">
<title>Node6&#45;&gt;Node5</title>
<g id="a_edge13_Node000006_Node000005"><a xlink:title=" ">
<path fill="none" stroke="#63b8ff" d="M184.04,-167.62C204.31,-160.86 228.04,-149.71 243.33,-132 254.04,-119.6 258.72,-101.44 260.76,-87.47"/>
<polygon fill="#63b8ff" stroke="#63b8ff" points="264.23,-87.92 261.83,-77.6 257.27,-87.16 264.23,-87.92"/>
</a>
</g>
</g>
<!-- Node7 -->
<g id="Node000007" class="node">
<title>Node7</title>
<g id="a_Node000007"><a xlink:href="modbus_reg_bank_8h.html" target="_top" xlink:title="Register storage engine and typed data helpers for Modbus maps.">
<polygon fill="white" stroke="#666666" points="233.96,-132 134.71,-132 134.71,-112 233.96,-112 233.96,-132"/>
<text xml:space="preserve" text-anchor="middle" x="184.33" y="-118.5" font-family="Helvetica,sans-Serif" font-size="10.00">modbusRegBank.h</text>
</a>
</g>
</g>
<!-- Node6&#45;&gt;Node7 -->
<g id="edge9_Node000006_Node000007" class="edge">
<title>Node6&#45;&gt;Node7</title>
<g id="a_edge9_Node000006_Node000007"><a xlink:title=" ">
<path fill="none" stroke="#63b8ff" d="M152.12,-167.59C157.33,-160.39 164.66,-150.23 171.02,-141.43"/>
<polygon fill="#63b8ff" stroke="#63b8ff" points="173.71,-143.68 176.73,-133.53 168.04,-139.58 173.71,-143.68"/>
</a>
</g>
</g>
<!-- Node7&#45;&gt;Node3 -->
<g id="edge10_Node000007_Node000003" class="edge">
<title>Node7&#45;&gt;Node3</title>
<g id="a_edge10_Node000007_Node000003"><a xlink:title=" ">
<path fill="none" stroke="#63b8ff" d="M180.15,-111.62C172.2,-93.76 154.72,-54.53 144.09,-30.67"/>
<polygon fill="#63b8ff" stroke="#63b8ff" points="147.38,-29.45 140.11,-21.74 140.99,-32.3 147.38,-29.45"/>
</a>
</g>
</g>
<!-- Node7&#45;&gt;Node4 -->
<g id="edge11_Node000007_Node000004" class="edge">
<title>Node7&#45;&gt;Node4</title>
<g id="a_edge11_Node000007_Node000004"><a xlink:title=" ">
<path fill="none" stroke="#63b8ff" d="M160.82,-111.59C139.46,-103.05 107.7,-90.35 83.53,-80.68"/>
<polygon fill="#63b8ff" stroke="#63b8ff" points="85.02,-77.51 74.44,-77.04 82.42,-84.01 85.02,-77.51"/>
</a>
</g>
</g>
<!-- Node7&#45;&gt;Node5 -->
<g id="edge12_Node000007_Node000005" class="edge">
<title>Node7&#45;&gt;Node5</title>
<g id="a_edge12_Node000007_Node000005"><a xlink:title=" ">
<path fill="none" stroke="#63b8ff" d="M197.92,-111.59C209.37,-103.67 225.99,-92.16 239.49,-82.82"/>
<polygon fill="#63b8ff" stroke="#63b8ff" points="241.16,-85.91 247.39,-77.34 237.18,-80.16 241.16,-85.91"/>
</a>
</g>
</g>
</g>
</svg>
