<?xml version="1.0" encoding="UTF-8" standalone="no"?>
<!DOCTYPE svg PUBLIC "-//W3C//DTD SVG 1.1//EN"
 "http://www.w3.org/Graphics/SVG/1.1/DTD/svg11.dtd">
<!-- Generated by graphviz version 14.1.3 (20260303.0454)
 -->
<!-- Title: modbusAnaReg Pages: 1 -->
<svg width="135pt" height="76pt"
 viewBox="0.00 0.00 135.00 76.00" xmlns="http://www.w3.org/2000/svg" xmlns:xlink="http://www.w3.org/1999/xlink">
<g id="graph0" class="graph" transform="scale(1 1) rotate(0) translate(4 72)">
<title>modbusAnaReg</title>
<!-- Node1 -->
<g id="Node000001" class="node">
<title>Node1</title>
<g id="a_Node000001"><a xlink:title="Linked&#45;node representation for analog register domains.">
<polygon fill="#999999" stroke="none" points="77.75,-68 0,-68 0,0 77.75,0 77.75,-68"/>
<text xml:space="preserve" text-anchor="start" x="4" y="-54.25" font-family="Helvetica,sans-Serif" font-size="10.00">modbusAnaReg</text>
<text xml:space="preserve" text-anchor="start" x="10.31" y="-38.25" font-family="Helvetica,sans-Serif" font-size="10.00">+</text>
<text xml:space="preserve" text-anchor="start" x="26.62" y="-38.25" font-family="Helvetica,sans-Serif" font-size="10.00">address</text>
<text xml:space="preserve" text-anchor="start" x="10.31" y="-22.25" font-family="Helvetica,sans-Serif" font-size="10.00">+</text>
<text xml:space="preserve" text-anchor="start" x="26.62" y="-22.25" font-family="Helvetica,sans-Serif" font-size="10.00">value</text>
<text xml:space="preserve" text-anchor="start" x="37.38" y="-6.25" font-family="Helvetica,sans-Serif" font-size="10.00"> </text>
<polygon fill="#666666" stroke="#666666" points="0,-50 0,-50 77.75,-50 77.75,-50 0,-50"/>
<polygon fill="#666666" stroke="#666666" points="0,-18 0,-18 24.62,-18 24.62,-18 0,-18"/>
<polygon fill="#666666" stroke="#666666" points="24.62,-18 24.62,-18 77.75,-18 77.75,-18 24.62,-18"/>
<polygon fill="none" stroke="#666666" points="0,0 0,-68 77.75,-68 77.75,0 0,0"/>
</a>
</g>
</g>
<!-- Node1&#45;&gt;Node1 -->
<g id="edge1_Node000001_Node000001" class="edge">
<title>Node1&#45;&gt;Node1</title>
<g id="a_edge1_Node000001_Node000001"><a xlink:title=" ">
<path fill="none" stroke="#63b8ff" d="M77.69,-46.64C87.96,-45.92 95.75,-41.7 95.75,-34 95.75,-29.91 93.55,-26.8 89.95,-24.68"/>
<polygon fill="none" stroke="#63b8ff" points="90.14,-24.73 83.3,-27.02 78.56,-21.6 85.39,-19.3 90.14,-24.73"/>
</a>
</g>
<text xml:space="preserve" text-anchor="start" x="98.75" y="-30.25" font-family="Helvetica,sans-Serif" font-size="10.00" fill="grey">+next</text>
</g>
</g>
</svg>
